  0
SECTION
  2
HEADER
  9
$ACADVER
  1
AC1014
  9
$HANDSEED
  5
FFFF
  9
$MEASUREMENT
 70
     1
  0
ENDSEC
  0
SECTION
  2
TABLES
  0
TABLE
  2
VPORT
  5
8
330
0
100
AcDbSymbolTable
 70
     4
  0
VPORT
  5
2E
330
8
100
AcDbSymbolTableRecord
100
AcDbViewportTableRecord
  2
*ACTIVE
 70
     0
 10
0.0
 20
0.0
 11
1.0
 21
1.0
 12
210.0
 22
148.5
 13
0.0
 23
0.0
 14
10.0
 24
10.0
 15
10.0
 25
10.0
 16
0.0
 26
0.0
 36
1.0
 17
0.0
 27
0.0
 37
0.0
 40
341.0
 41
1.24
 42
50.0
 43
0.0
 44
0.0
 50
0.0
 51
0.0
 71
     0
 72
   100
 73
     1
 74
     3
 75
     0
 76
     0
 77
     0
 78
     0
  0
ENDTAB
  0
TABLE
  2
LTYPE
  5
5
330
0
100
AcDbSymbolTable
 70
     1
  0
LTYPE
  5
14
330
5
100
AcDbSymbolTableRecord
100
AcDbLinetypeTableRecord
  2
BYBLOCK
 70
     0
  3

 72
    65
 73
     0
 40
0.0
  0
LTYPE
  5
15
330
5
100
AcDbSymbolTableRecord
100
AcDbLinetypeTableRecord
  2
BYLAYER
 70
     0
  3

 72
    65
 73
     0
 40
0.0
  0
LTYPE
  5
16
330
5
100
AcDbSymbolTableRecord
100
AcDbLinetypeTableRecord
  2
CONTINUOUS
 70
     0
  3
Solid line
 72
    65
 73
     0
 40
0.0
  0
ENDTAB
  0
TABLE
  2
LAYER
  5
2
100
AcDbSymbolTable
 70
5
  0
LAYER
  5
50
100
AcDbSymbolTableRecord
100
AcDbLayerTableRecord
  2
0
 70
0
  6
CONTINUOUS
  0
LAYER
  5
51
100
AcDbSymbolTableRecord
100
AcDbLayerTableRecord
  2
panel
 70
0
  6
CONTINUOUS
  0
LAYER
  5
52
100
AcDbSymbolTableRecord
100
AcDbLayerTableRecord
  2
text
 70
0
  6
CONTINUOUS
  0
LAYER
  5
53
100
AcDbSymbolTableRecord
100
AcDbLayerTableRecord
  2
symbol
 70
0
  6
CONTINUOUS
  0
LAYER
  5
54
100
AcDbSymbolTableRecord
100
AcDbLayerTableRecord
  2
logo
 70
0
  6
CONTINUOUS
  0
ENDTAB
  0
TABLE
  2
STYLE
  5
3
330
0
100
AcDbSymbolTable
 70
     1
  0
STYLE
  5
11
330
3
100
AcDbSymbolTableRecord
100
AcDbTextStyleTableRecord
  2
STANDARD
 70
     0
 40
0.0
 41
1.0
 50
0.0
 71
     0
 42
2.5
  3
txt
  4

  0
ENDTAB
  0
TABLE
  2
VIEW
  5
6
330
0
100
AcDbSymbolTable
 70
     0
  0
ENDTAB
  0
TABLE
  2
UCS
  5
7
330
0
100
AcDbSymbolTable
 70
     0
  0
ENDTAB
  0
TABLE
  2
APPID
  5
9
330
0
100
AcDbSymbolTable
 70
     2
  0
APPID
  5
12
330
9
100
AcDbSymbolTableRecord
100
AcDbRegAppTableRecord
  2
ACAD
 70
     0
  0
ENDTAB
  0
TABLE
  2
DIMSTYLE
  5
A
330
0
100
AcDbSymbolTable
 70
     1
  0
DIMSTYLE
105
27
330
A
100
AcDbSymbolTableRecord
100
AcDbDimStyleTableRecord
  2
ISO-25
 70
     0
  3

  4

  5

  6

  7

 40
1.0
 41
2.5
 42
0.625
 43
3.75
 44
1.25
 45
0.0
 46
0.0
 47
0.0
 48
0.0
140
2.5
141
2.5
142
0.0
143
0.03937007874016
144
1.0
145
0.0
146
1.0
147
0.625
 71
     0
 72
     0
 73
     0
 74
     0
 75
     0
 76
     0
 77
     1
 78
     8
170
     0
171
     3
172
     1
173
     0
174
     0
175
     0
176
     0
177
     0
178
     0
270
     2
271
     2
272
     2
273
     2
274
     3
340
11
275
     0
280
     0
281
     0
282
     0
283
     0
284
     8
285
     0
286
     0
287
     3
288
     0
  0
ENDTAB
  0
TABLE
  2
BLOCK_RECORD
  5
1
330
0
100
AcDbSymbolTable
 70
     1
  0
BLOCK_RECORD
  5
1F
330
1
100
AcDbSymbolTableRecord
100
AcDbBlockTableRecord
  2
*MODEL_SPACE
  0
BLOCK_RECORD
  5
1B
330
1
100
AcDbSymbolTableRecord
100
AcDbBlockTableRecord
  2
*PAPER_SPACE
  0
ENDTAB
  0
ENDSEC
  0
SECTION
  2
BLOCKS
  0
BLOCK
  5
20
330
1F
100
AcDbEntity
  8
0
100
AcDbBlockBegin
  2
*MODEL_SPACE
 70
     0
 10
0.0
 20
0.0
 30
0.0
  3
*MODEL_SPACE
  1

  0
ENDBLK
  5
21
330
1F
100
AcDbEntity
  8
0
100
AcDbBlockEnd
  0
BLOCK
  5
1C
330
1B
100
AcDbEntity
 67
     1
  8
0
100
AcDbBlockBegin
  2
*PAPER_SPACE
  1

  0
ENDBLK
  5
1D
330
1B
100
AcDbEntity
 67
     1
  8
0
100
AcDbBlockEnd
  0
ENDSEC
  0
SECTION
  2
ENTITIES
  0
LINE
  5
100
100
AcDbEntity
  8
panel
 62
7
100
AcDbLine
 10
0.049981
 20
0.049849
 30
0.0
 11
40.590090
 21
0.049849
 31
0.0
  0
LINE
  5
101
100
AcDbEntity
  8
panel
 62
7
100
AcDbLine
 10
0.049981
 20
128.450048
 30
0.0
 11
0.049981
 21
0.049849
 31
0.0
  0
LINE
  5
102
100
AcDbEntity
  8
panel
 62
7
100
AcDbLine
 10
40.590090
 20
0.049849
 30
0.0
 11
40.590090
 21
128.450048
 31
0.0
  0
LINE
  5
103
100
AcDbEntity
  8
panel
 62
7
100
AcDbLine
 10
40.590090
 20
128.450048
 30
0.0
 11
0.049981
 21
128.450048
 31
0.0
  0
SPLINE
  5
104
100
AcDbEntity
  8
panel
 62
7
100
AcDbSpline
 70
8
 71
3
 72
8
 73
4
 74
0
 40
0
 40
0
 40
0
 40
0
 40
1
 40
1
 40
1
 40
1
 10
3.042564
 20
4.596334
 30
0.0
 10
2.189239
 20
4.595469
 30
0.0
 10
1.497939
 20
3.902303
 30
0.0
 10
1.497939
 20
3.047538
 30
0.0
  0
SPLINE
  5
105
100
AcDbEntity
  8
panel
 62
7
100
AcDbSpline
 70
8
 71
3
 72
8
 73
4
 74
0
 40
0
 40
0
 40
0
 40
0
 40
1
 40
1
 40
1
 40
1
 10
1.497939
 20
3.047538
 30
0.0
 10
1.497939
 20
2.192773
 30
0.0
 10
2.189239
 20
1.499606
 30
0.0
 10
3.042564
 20
1.498741
 30
0.0
  0
LINE
  5
106
100
AcDbEntity
  8
panel
 62
7
100
AcDbLine
 10
3.042454
 20
1.498641
 30
0.0
 11
6.035190
 21
1.498641
 31
0.0
  0
SPLINE
  5
107
100
AcDbEntity
  8
panel
 62
7
100
AcDbSpline
 70
8
 71
3
 72
8
 73
4
 74
0
 40
0
 40
0
 40
0
 40
0
 40
1
 40
1
 40
1
 40
1
 10
6.035192
 20
1.498741
 30
0.0
 10
6.888518
 20
1.499606
 30
0.0
 10
7.579818
 20
2.192773
 30
0.0
 10
7.579818
 20
3.047538
 30
0.0
  0
SPLINE
  5
108
100
AcDbEntity
  8
panel
 62
7
100
AcDbSpline
 70
8
 71
3
 72
8
 73
4
 74
0
 40
0
 40
0
 40
0
 40
0
 40
1
 40
1
 40
1
 40
1
 10
7.579818
 20
3.047538
 30
0.0
 10
7.579818
 20
3.902303
 30
0.0
 10
6.888518
 20
4.595469
 30
0.0
 10
6.035192
 20
4.596334
 30
0.0
  0
LINE
  5
109
100
AcDbEntity
  8
panel
 62
7
100
AcDbLine
 10
3.042454
 20
4.596358
 30
0.0
 11
6.035190
 21
4.596358
 31
0.0
  0
SPLINE
  5
10a
100
AcDbEntity
  8
panel
 62
7
100
AcDbSpline
 70
8
 71
3
 72
8
 73
4
 74
0
 40
0
 40
0
 40
0
 40
0
 40
1
 40
1
 40
1
 40
1
 10
8.748506
 20
19.284927
 30
0.0
 10
8.747500
 20
21.022561
 30
0.0
 10
7.340958
 20
22.430658
 30
0.0
 10
5.606249
 20
22.430658
 30
0.0
  0
SPLINE
  5
10b
100
AcDbEntity
  8
panel
 62
7
100
AcDbSpline
 70
8
 71
3
 72
8
 73
4
 74
0
 40
0
 40
0
 40
0
 40
0
 40
1
 40
1
 40
1
 40
1
 10
5.606249
 20
22.430658
 30
0.0
 10
3.871539
 20
22.430658
 30
0.0
 10
2.464997
 20
21.022561
 30
0.0
 10
2.463992
 20
19.284927
 30
0.0
  0
SPLINE
  5
10c
100
AcDbEntity
  8
panel
 62
7
100
AcDbSpline
 70
8
 71
3
 72
8
 73
4
 74
0
 40
0
 40
0
 40
0
 40
0
 40
1
 40
1
 40
1
 40
1
 10
2.463992
 20
19.284927
 30
0.0
 10
2.464997
 20
17.547293
 30
0.0
 10
3.871539
 20
16.139196
 30
0.0
 10
5.606249
 20
16.139196
 30
0.0
  0
SPLINE
  5
10d
100
AcDbEntity
  8
panel
 62
7
100
AcDbSpline
 70
8
 71
3
 72
8
 73
4
 74
0
 40
0
 40
0
 40
0
 40
0
 40
1
 40
1
 40
1
 40
1
 10
5.606249
 20
16.139196
 30
0.0
 10
7.340958
 20
16.139196
 30
0.0
 10
8.747500
 20
17.547293
 30
0.0
 10
8.748506
 20
19.284927
 30
0.0
  0
LINE
  5
10e
100
AcDbEntity
  8
panel
 62
7
100
AcDbLine
 10
8.748506
 20
19.284927
 30
0.0
 11
8.748506
 21
19.284927
 31
0.0
  0
SPLINE
  5
10f
100
AcDbEntity
  8
panel
 62
7
100
AcDbSpline
 70
8
 71
3
 72
8
 73
4
 74
0
 40
0
 40
0
 40
0
 40
0
 40
1
 40
1
 40
1
 40
1
 10
8.748506
 20
31.275614
 30
0.0
 10
8.747500
 20
33.013249
 30
0.0
 10
7.340958
 20
34.421345
 30
0.0
 10
5.606249
 20
34.421345
 30
0.0
  0
SPLINE
  5
110
100
AcDbEntity
  8
panel
 62
7
100
AcDbSpline
 70
8
 71
3
 72
8
 73
4
 74
0
 40
0
 40
0
 40
0
 40
0
 40
1
 40
1
 40
1
 40
1
 10
5.606249
 20
34.421345
 30
0.0
 10
3.871539
 20
34.421345
 30
0.0
 10
2.464997
 20
33.013249
 30
0.0
 10
2.463992
 20
31.275614
 30
0.0
  0
SPLINE
  5
111
100
AcDbEntity
  8
panel
 62
7
100
AcDbSpline
 70
8
 71
3
 72
8
 73
4
 74
0
 40
0
 40
0
 40
0
 40
0
 40
1
 40
1
 40
1
 40
1
 10
2.463992
 20
31.275614
 30
0.0
 10
2.464997
 20
29.537980
 30
0.0
 10
3.871539
 20
28.129883
 30
0.0
 10
5.606249
 20
28.129883
 30
0.0
  0
SPLINE
  5
112
100
AcDbEntity
  8
panel
 62
7
100
AcDbSpline
 70
8
 71
3
 72
8
 73
4
 74
0
 40
0
 40
0
 40
0
 40
0
 40
1
 40
1
 40
1
 40
1
 10
5.606249
 20
28.129883
 30
0.0
 10
7.340958
 20
28.129883
 30
0.0
 10
8.747500
 20
29.537980
 30
0.0
 10
8.748506
 20
31.275614
 30
0.0
  0
LINE
  5
113
100
AcDbEntity
  8
panel
 62
7
100
AcDbLine
 10
8.748506
 20
31.275614
 30
0.0
 11
8.748506
 21
31.275614
 31
0.0
  0
SPLINE
  5
114
100
AcDbEntity
  8
panel
 62
7
100
AcDbSpline
 70
8
 71
3
 72
8
 73
4
 74
0
 40
0
 40
0
 40
0
 40
0
 40
1
 40
1
 40
1
 40
1
 10
18.558336
 20
19.284927
 30
0.0
 10
18.558335
 20
21.023275
 30
0.0
 10
17.151499
 20
22.432483
 30
0.0
 10
15.416077
 20
22.432483
 30
0.0
  0
SPLINE
  5
115
100
AcDbEntity
  8
panel
 62
7
100
AcDbSpline
 70
8
 71
3
 72
8
 73
4
 74
0
 40
0
 40
0
 40
0
 40
0
 40
1
 40
1
 40
1
 40
1
 10
15.416077
 20
22.432483
 30
0.0
 10
13.680656
 20
22.432483
 30
0.0
 10
12.273819
 20
21.023275
 30
0.0
 10
12.273819
 20
19.284927
 30
0.0
  0
SPLINE
  5
116
100
AcDbEntity
  8
panel
 62
7
100
AcDbSpline
 70
8
 71
3
 72
8
 73
4
 74
0
 40
0
 40
0
 40
0
 40
0
 40
1
 40
1
 40
1
 40
1
 10
12.273819
 20
19.284927
 30
0.0
 10
12.273819
 20
17.546580
 30
0.0
 10
13.680656
 20
16.137371
 30
0.0
 10
15.416077
 20
16.137371
 30
0.0
  0
SPLINE
  5
117
100
AcDbEntity
  8
panel
 62
7
100
AcDbSpline
 70
8
 71
3
 72
8
 73
4
 74
0
 40
0
 40
0
 40
0
 40
0
 40
1
 40
1
 40
1
 40
1
 10
15.416077
 20
16.137371
 30
0.0
 10
17.151499
 20
16.137371
 30
0.0
 10
18.558335
 20
17.546580
 30
0.0
 10
18.558336
 20
19.284927
 30
0.0
  0
LINE
  5
118
100
AcDbEntity
  8
panel
 62
7
100
AcDbLine
 10
18.558336
 20
19.284927
 30
0.0
 11
18.558336
 21
19.284927
 31
0.0
  0
SPLINE
  5
119
100
AcDbEntity
  8
panel
 62
7
100
AcDbSpline
 70
8
 71
3
 72
8
 73
4
 74
0
 40
0
 40
0
 40
0
 40
0
 40
1
 40
1
 40
1
 40
1
 10
18.558336
 20
31.275614
 30
0.0
 10
18.558335
 20
33.013962
 30
0.0
 10
17.151499
 20
34.423170
 30
0.0
 10
15.416077
 20
34.423170
 30
0.0
  0
SPLINE
  5
11a
100
AcDbEntity
  8
panel
 62
7
100
AcDbSpline
 70
8
 71
3
 72
8
 73
4
 74
0
 40
0
 40
0
 40
0
 40
0
 40
1
 40
1
 40
1
 40
1
 10
15.416077
 20
34.423170
 30
0.0
 10
13.680656
 20
34.423170
 30
0.0
 10
12.273819
 20
33.013962
 30
0.0
 10
12.273819
 20
31.275614
 30
0.0
  0
SPLINE
  5
11b
100
AcDbEntity
  8
panel
 62
7
100
AcDbSpline
 70
8
 71
3
 72
8
 73
4
 74
0
 40
0
 40
0
 40
0
 40
0
 40
1
 40
1
 40
1
 40
1
 10
12.273819
 20
31.275614
 30
0.0
 10
12.273819
 20
29.537267
 30
0.0
 10
13.680656
 20
28.128058
 30
0.0
 10
15.416077
 20
28.128058
 30
0.0
  0
SPLINE
  5
11c
100
AcDbEntity
  8
panel
 62
7
100
AcDbSpline
 70
8
 71
3
 72
8
 73
4
 74
0
 40
0
 40
0
 40
0
 40
0
 40
1
 40
1
 40
1
 40
1
 10
15.416077
 20
28.128058
 30
0.0
 10
17.151499
 20
28.128058
 30
0.0
 10
18.558335
 20
29.537267
 30
0.0
 10
18.558336
 20
31.275614
 30
0.0
  0
LINE
  5
11d
100
AcDbEntity
  8
panel
 62
7
100
AcDbLine
 10
18.558336
 20
31.275614
 30
0.0
 11
18.558336
 21
31.275614
 31
0.0
  0
SPLINE
  5
11e
100
AcDbEntity
  8
panel
 62
7
100
AcDbSpline
 70
8
 71
3
 72
8
 73
4
 74
0
 40
0
 40
0
 40
0
 40
0
 40
1
 40
1
 40
1
 40
1
 10
17.410164
 20
42.267077
 30
0.0
 10
17.409763
 20
43.370505
 30
0.0
 10
16.516651
 20
44.264798
 30
0.0
 10
15.415080
 20
44.264798
 30
0.0
  0
SPLINE
  5
11f
100
AcDbEntity
  8
panel
 62
7
100
AcDbSpline
 70
8
 71
3
 72
8
 73
4
 74
0
 40
0
 40
0
 40
0
 40
0
 40
1
 40
1
 40
1
 40
1
 10
15.415080
 20
44.264798
 30
0.0
 10
14.313508
 20
44.264798
 30
0.0
 10
13.420396
 20
43.370505
 30
0.0
 10
13.419996
 20
42.267077
 30
0.0
  0
SPLINE
  5
120
100
AcDbEntity
  8
panel
 62
7
100
AcDbSpline
 70
8
 71
3
 72
8
 73
4
 74
0
 40
0
 40
0
 40
0
 40
0
 40
1
 40
1
 40
1
 40
1
 10
13.419996
 20
42.267077
 30
0.0
 10
13.420396
 20
41.163648
 30
0.0
 10
14.313508
 20
40.269356
 30
0.0
 10
15.415080
 20
40.269356
 30
0.0
  0
SPLINE
  5
121
100
AcDbEntity
  8
panel
 62
7
100
AcDbSpline
 70
8
 71
3
 72
8
 73
4
 74
0
 40
0
 40
0
 40
0
 40
0
 40
1
 40
1
 40
1
 40
1
 10
15.415080
 20
40.269356
 30
0.0
 10
16.516651
 20
40.269356
 30
0.0
 10
17.409763
 20
41.163648
 30
0.0
 10
17.410164
 20
42.267077
 30
0.0
  0
LINE
  5
122
100
AcDbEntity
  8
panel
 62
7
100
AcDbLine
 10
17.410164
 20
42.267077
 30
0.0
 11
17.410164
 21
42.267077
 31
0.0
  0
SPLINE
  5
123
100
AcDbEntity
  8
panel
 62
7
100
AcDbSpline
 70
8
 71
3
 72
8
 73
4
 74
0
 40
0
 40
0
 40
0
 40
0
 40
1
 40
1
 40
1
 40
1
 10
26.771099
 20
19.284927
 30
0.0
 10
26.771099
 20
19.838259
 30
0.0
 10
26.476397
 20
20.349559
 30
0.0
 10
25.998004
 20
20.626225
 30
0.0
  0
SPLINE
  5
124
100
AcDbEntity
  8
panel
 62
7
100
AcDbSpline
 70
8
 71
3
 72
8
 73
4
 74
0
 40
0
 40
0
 40
0
 40
0
 40
1
 40
1
 40
1
 40
1
 10
25.998004
 20
20.626225
 30
0.0
 10
25.519611
 20
20.902892
 30
0.0
 10
24.930206
 20
20.902892
 30
0.0
 10
24.451813
 20
20.626225
 30
0.0
  0
SPLINE
  5
125
100
AcDbEntity
  8
panel
 62
7
100
AcDbSpline
 70
8
 71
3
 72
8
 73
4
 74
0
 40
0
 40
0
 40
0
 40
0
 40
1
 40
1
 40
1
 40
1
 10
24.451813
 20
20.626225
 30
0.0
 10
23.973420
 20
20.349559
 30
0.0
 10
23.678718
 20
19.838259
 30
0.0
 10
23.678718
 20
19.284927
 30
0.0
  0
SPLINE
  5
126
100
AcDbEntity
  8
panel
 62
7
100
AcDbSpline
 70
8
 71
3
 72
8
 73
4
 74
0
 40
0
 40
0
 40
0
 40
0
 40
1
 40
1
 40
1
 40
1
 10
23.678718
 20
19.284927
 30
0.0
 10
23.678718
 20
18.731595
 30
0.0
 10
23.973420
 20
18.220295
 30
0.0
 10
24.451813
 20
17.943629
 30
0.0
  0
SPLINE
  5
127
100
AcDbEntity
  8
panel
 62
7
100
AcDbSpline
 70
8
 71
3
 72
8
 73
4
 74
0
 40
0
 40
0
 40
0
 40
0
 40
1
 40
1
 40
1
 40
1
 10
24.451813
 20
17.943629
 30
0.0
 10
24.930206
 20
17.666963
 30
0.0
 10
25.519611
 20
17.666963
 30
0.0
 10
25.998004
 20
17.943629
 30
0.0
  0
SPLINE
  5
128
100
AcDbEntity
  8
panel
 62
7
100
AcDbSpline
 70
8
 71
3
 72
8
 73
4
 74
0
 40
0
 40
0
 40
0
 40
0
 40
1
 40
1
 40
1
 40
1
 10
25.998004
 20
17.943629
 30
0.0
 10
26.476397
 20
18.220295
 30
0.0
 10
26.771099
 20
18.731595
 30
0.0
 10
26.771099
 20
19.284927
 30
0.0
  0
LINE
  5
129
100
AcDbEntity
  8
panel
 62
7
100
AcDbLine
 10
26.771099
 20
19.284927
 30
0.0
 11
26.771099
 21
19.284927
 31
0.0
  0
SPLINE
  5
12a
100
AcDbEntity
  8
panel
 62
7
100
AcDbSpline
 70
8
 71
3
 72
8
 73
4
 74
0
 40
0
 40
0
 40
0
 40
0
 40
1
 40
1
 40
1
 40
1
 10
28.367165
 20
31.275614
 30
0.0
 10
28.366160
 20
33.013249
 30
0.0
 10
26.959618
 20
34.421345
 30
0.0
 10
25.224908
 20
34.421345
 30
0.0
  0
SPLINE
  5
12b
100
AcDbEntity
  8
panel
 62
7
100
AcDbSpline
 70
8
 71
3
 72
8
 73
4
 74
0
 40
0
 40
0
 40
0
 40
0
 40
1
 40
1
 40
1
 40
1
 10
25.224908
 20
34.421345
 30
0.0
 10
23.490199
 20
34.421345
 30
0.0
 10
22.083657
 20
33.013249
 30
0.0
 10
22.082651
 20
31.275614
 30
0.0
  0
SPLINE
  5
12c
100
AcDbEntity
  8
panel
 62
7
100
AcDbSpline
 70
8
 71
3
 72
8
 73
4
 74
0
 40
0
 40
0
 40
0
 40
0
 40
1
 40
1
 40
1
 40
1
 10
22.082651
 20
31.275614
 30
0.0
 10
22.083657
 20
29.537980
 30
0.0
 10
23.490199
 20
28.129883
 30
0.0
 10
25.224908
 20
28.129883
 30
0.0
  0
SPLINE
  5
12d
100
AcDbEntity
  8
panel
 62
7
100
AcDbSpline
 70
8
 71
3
 72
8
 73
4
 74
0
 40
0
 40
0
 40
0
 40
0
 40
1
 40
1
 40
1
 40
1
 10
25.224908
 20
28.129883
 30
0.0
 10
26.959618
 20
28.129883
 30
0.0
 10
28.366160
 20
29.537980
 30
0.0
 10
28.367165
 20
31.275614
 30
0.0
  0
LINE
  5
12e
100
AcDbEntity
  8
panel
 62
7
100
AcDbLine
 10
28.367165
 20
31.275614
 30
0.0
 11
28.367165
 21
31.275614
 31
0.0
  0
SPLINE
  5
12f
100
AcDbEntity
  8
panel
 62
7
100
AcDbSpline
 70
8
 71
3
 72
8
 73
4
 74
0
 40
0
 40
0
 40
0
 40
0
 40
1
 40
1
 40
1
 40
1
 10
34.604797
 20
4.596334
 30
0.0
 10
33.751471
 20
4.595469
 30
0.0
 10
33.060171
 20
3.902303
 30
0.0
 10
33.060171
 20
3.047538
 30
0.0
  0
SPLINE
  5
130
100
AcDbEntity
  8
panel
 62
7
100
AcDbSpline
 70
8
 71
3
 72
8
 73
4
 74
0
 40
0
 40
0
 40
0
 40
0
 40
1
 40
1
 40
1
 40
1
 10
33.060171
 20
3.047538
 30
0.0
 10
33.060171
 20
2.192773
 30
0.0
 10
33.751471
 20
1.499606
 30
0.0
 10
34.604797
 20
1.498741
 30
0.0
  0
LINE
  5
131
100
AcDbEntity
  8
panel
 62
7
100
AcDbLine
 10
34.604881
 20
1.498641
 30
0.0
 11
37.597354
 21
1.498641
 31
0.0
  0
SPLINE
  5
132
100
AcDbEntity
  8
panel
 62
7
100
AcDbSpline
 70
8
 71
3
 72
8
 73
4
 74
0
 40
0
 40
0
 40
0
 40
0
 40
1
 40
1
 40
1
 40
1
 10
37.597422
 20
1.498741
 30
0.0
 10
38.450748
 20
1.499606
 30
0.0
 10
39.142048
 20
2.192773
 30
0.0
 10
39.142048
 20
3.047538
 30
0.0
  0
SPLINE
  5
133
100
AcDbEntity
  8
panel
 62
7
100
AcDbSpline
 70
8
 71
3
 72
8
 73
4
 74
0
 40
0
 40
0
 40
0
 40
0
 40
1
 40
1
 40
1
 40
1
 10
39.142048
 20
3.047538
 30
0.0
 10
39.142048
 20
3.902303
 30
0.0
 10
38.450748
 20
4.595469
 30
0.0
 10
37.597422
 20
4.596334
 30
0.0
  0
LINE
  5
134
100
AcDbEntity
  8
panel
 62
7
100
AcDbLine
 10
34.604881
 20
4.596358
 30
0.0
 11
37.597354
 21
4.596358
 31
0.0
  0
SPLINE
  5
135
100
AcDbEntity
  8
panel
 62
7
100
AcDbSpline
 70
8
 71
3
 72
8
 73
4
 74
0
 40
0
 40
0
 40
0
 40
0
 40
1
 40
1
 40
1
 40
1
 10
38.175998
 20
19.284927
 30
0.0
 10
38.175998
 20
21.023275
 30
0.0
 10
36.769161
 20
22.432483
 30
0.0
 10
35.033739
 20
22.432483
 30
0.0
  0
SPLINE
  5
136
100
AcDbEntity
  8
panel
 62
7
100
AcDbSpline
 70
8
 71
3
 72
8
 73
4
 74
0
 40
0
 40
0
 40
0
 40
0
 40
1
 40
1
 40
1
 40
1
 10
35.033739
 20
22.432483
 30
0.0
 10
33.298318
 20
22.432483
 30
0.0
 10
31.891481
 20
21.023275
 30
0.0
 10
31.891481
 20
19.284927
 30
0.0
  0
SPLINE
  5
137
100
AcDbEntity
  8
panel
 62
7
100
AcDbSpline
 70
8
 71
3
 72
8
 73
4
 74
0
 40
0
 40
0
 40
0
 40
0
 40
1
 40
1
 40
1
 40
1
 10
31.891481
 20
19.284927
 30
0.0
 10
31.891481
 20
18.160414
 30
0.0
 10
32.490392
 20
17.121320
 30
0.0
 10
33.462610
 20
16.559064
 30
0.0
  0
SPLINE
  5
138
100
AcDbEntity
  8
panel
 62
7
100
AcDbSpline
 70
8
 71
3
 72
8
 73
4
 74
0
 40
0
 40
0
 40
0
 40
0
 40
1
 40
1
 40
1
 40
1
 10
33.462610
 20
16.559064
 30
0.0
 10
34.434828
 20
15.996807
 30
0.0
 10
35.632651
 20
15.996807
 30
0.0
 10
36.604869
 20
16.559064
 30
0.0
  0
SPLINE
  5
139
100
AcDbEntity
  8
panel
 62
7
100
AcDbSpline
 70
8
 71
3
 72
8
 73
4
 74
0
 40
0
 40
0
 40
0
 40
0
 40
1
 40
1
 40
1
 40
1
 10
36.604869
 20
16.559064
 30
0.0
 10
37.577087
 20
17.121320
 30
0.0
 10
38.175998
 20
18.160414
 30
0.0
 10
38.175998
 20
19.284927
 30
0.0
  0
LINE
  5
13a
100
AcDbEntity
  8
panel
 62
7
100
AcDbLine
 10
38.175998
 20
19.284927
 30
0.0
 11
38.175998
 21
19.284927
 31
0.0
  0
SPLINE
  5
13b
100
AcDbEntity
  8
panel
 62
7
100
AcDbSpline
 70
8
 71
3
 72
8
 73
4
 74
0
 40
0
 40
0
 40
0
 40
0
 40
1
 40
1
 40
1
 40
1
 10
38.175998
 20
31.275614
 30
0.0
 10
38.175998
 20
33.013962
 30
0.0
 10
36.769161
 20
34.423170
 30
0.0
 10
35.033739
 20
34.423170
 30
0.0
  0
SPLINE
  5
13c
100
AcDbEntity
  8
panel
 62
7
100
AcDbSpline
 70
8
 71
3
 72
8
 73
4
 74
0
 40
0
 40
0
 40
0
 40
0
 40
1
 40
1
 40
1
 40
1
 10
35.033739
 20
34.423170
 30
0.0
 10
33.298318
 20
34.423170
 30
0.0
 10
31.891481
 20
33.013962
 30
0.0
 10
31.891481
 20
31.275614
 30
0.0
  0
SPLINE
  5
13d
100
AcDbEntity
  8
panel
 62
7
100
AcDbSpline
 70
8
 71
3
 72
8
 73
4
 74
0
 40
0
 40
0
 40
0
 40
0
 40
1
 40
1
 40
1
 40
1
 10
31.891481
 20
31.275614
 30
0.0
 10
31.891481
 20
30.151101
 30
0.0
 10
32.490392
 20
29.112007
 30
0.0
 10
33.462610
 20
28.549751
 30
0.0
  0
SPLINE
  5
13e
100
AcDbEntity
  8
panel
 62
7
100
AcDbSpline
 70
8
 71
3
 72
8
 73
4
 74
0
 40
0
 40
0
 40
0
 40
0
 40
1
 40
1
 40
1
 40
1
 10
33.462610
 20
28.549751
 30
0.0
 10
34.434828
 20
27.987494
 30
0.0
 10
35.632651
 20
27.987494
 30
0.0
 10
36.604869
 20
28.549751
 30
0.0
  0
SPLINE
  5
13f
100
AcDbEntity
  8
panel
 62
7
100
AcDbSpline
 70
8
 71
3
 72
8
 73
4
 74
0
 40
0
 40
0
 40
0
 40
0
 40
1
 40
1
 40
1
 40
1
 10
36.604869
 20
28.549751
 30
0.0
 10
37.577087
 20
29.112007
 30
0.0
 10
38.175998
 20
30.151101
 30
0.0
 10
38.175998
 20
31.275614
 30
0.0
  0
LINE
  5
140
100
AcDbEntity
  8
panel
 62
7
100
AcDbLine
 10
38.175998
 20
31.275614
 30
0.0
 11
38.175998
 21
31.275614
 31
0.0
  0
SPLINE
  5
141
100
AcDbEntity
  8
panel
 62
7
100
AcDbSpline
 70
8
 71
3
 72
8
 73
4
 74
0
 40
0
 40
0
 40
0
 40
0
 40
1
 40
1
 40
1
 40
1
 10
32.889024
 20
49.261644
 30
0.0
 10
32.889024
 20
50.546802
 30
0.0
 10
32.204554
 20
51.734337
 30
0.0
 10
31.093448
 20
52.376916
 30
0.0
  0
SPLINE
  5
142
100
AcDbEntity
  8
panel
 62
7
100
AcDbSpline
 70
8
 71
3
 72
8
 73
4
 74
0
 40
0
 40
0
 40
0
 40
0
 40
1
 40
1
 40
1
 40
1
 10
31.093448
 20
52.376916
 30
0.0
 10
29.982342
 20
53.019495
 30
0.0
 10
28.613403
 20
53.019495
 30
0.0
 10
27.502297
 20
52.376916
 30
0.0
  0
SPLINE
  5
143
100
AcDbEntity
  8
panel
 62
7
100
AcDbSpline
 70
8
 71
3
 72
8
 73
4
 74
0
 40
0
 40
0
 40
0
 40
0
 40
1
 40
1
 40
1
 40
1
 10
27.502297
 20
52.376916
 30
0.0
 10
26.391190
 20
51.734337
 30
0.0
 10
25.706721
 20
50.546802
 30
0.0
 10
25.706721
 20
49.261644
 30
0.0
  0
SPLINE
  5
144
100
AcDbEntity
  8
panel
 62
7
100
AcDbSpline
 70
8
 71
3
 72
8
 73
4
 74
0
 40
0
 40
0
 40
0
 40
0
 40
1
 40
1
 40
1
 40
1
 10
25.706721
 20
49.261644
 30
0.0
 10
25.706721
 20
47.976486
 30
0.0
 10
26.391190
 20
46.788951
 30
0.0
 10
27.502297
 20
46.146372
 30
0.0
  0
SPLINE
  5
145
100
AcDbEntity
  8
panel
 62
7
100
AcDbSpline
 70
8
 71
3
 72
8
 73
4
 74
0
 40
0
 40
0
 40
0
 40
0
 40
1
 40
1
 40
1
 40
1
 10
27.502297
 20
46.146372
 30
0.0
 10
28.613403
 20
45.503793
 30
0.0
 10
29.982342
 20
45.503793
 30
0.0
 10
31.093448
 20
46.146372
 30
0.0
  0
SPLINE
  5
146
100
AcDbEntity
  8
panel
 62
7
100
AcDbSpline
 70
8
 71
3
 72
8
 73
4
 74
0
 40
0
 40
0
 40
0
 40
0
 40
1
 40
1
 40
1
 40
1
 10
31.093448
 20
46.146372
 30
0.0
 10
32.204554
 20
46.788951
 30
0.0
 10
32.889024
 20
47.976486
 30
0.0
 10
32.889024
 20
49.261644
 30
0.0
  0
LINE
  5
147
100
AcDbEntity
  8
panel
 62
7
100
AcDbLine
 10
32.889024
 20
49.261644
 30
0.0
 11
32.889024
 21
49.261644
 31
0.0
  0
SPLINE
  5
148
100
AcDbEntity
  8
panel
 62
7
100
AcDbSpline
 70
8
 71
3
 72
8
 73
4
 74
0
 40
0
 40
0
 40
0
 40
0
 40
1
 40
1
 40
1
 40
1
 10
13.586585
 20
79.238363
 30
0.0
 10
13.586585
 20
80.398575
 30
0.0
 10
12.968661
 20
81.470655
 30
0.0
 10
11.965579
 20
82.050761
 30
0.0
  0
SPLINE
  5
149
100
AcDbEntity
  8
panel
 62
7
100
AcDbSpline
 70
8
 71
3
 72
8
 73
4
 74
0
 40
0
 40
0
 40
0
 40
0
 40
1
 40
1
 40
1
 40
1
 10
11.965579
 20
82.050761
 30
0.0
 10
10.962497
 20
82.630867
 30
0.0
 10
9.726649
 20
82.630867
 30
0.0
 10
8.723567
 20
82.050761
 30
0.0
  0
SPLINE
  5
14a
100
AcDbEntity
  8
panel
 62
7
100
AcDbSpline
 70
8
 71
3
 72
8
 73
4
 74
0
 40
0
 40
0
 40
0
 40
0
 40
1
 40
1
 40
1
 40
1
 10
8.723567
 20
82.050761
 30
0.0
 10
7.720485
 20
81.470655
 30
0.0
 10
7.102561
 20
80.398575
 30
0.0
 10
7.102561
 20
79.238363
 30
0.0
  0
SPLINE
  5
14b
100
AcDbEntity
  8
panel
 62
7
100
AcDbSpline
 70
8
 71
3
 72
8
 73
4
 74
0
 40
0
 40
0
 40
0
 40
0
 40
1
 40
1
 40
1
 40
1
 10
7.102561
 20
79.238363
 30
0.0
 10
7.102561
 20
78.078150
 30
0.0
 10
7.720485
 20
77.006070
 30
0.0
 10
8.723567
 20
76.425964
 30
0.0
  0
SPLINE
  5
14c
100
AcDbEntity
  8
panel
 62
7
100
AcDbSpline
 70
8
 71
3
 72
8
 73
4
 74
0
 40
0
 40
0
 40
0
 40
0
 40
1
 40
1
 40
1
 40
1
 10
8.723567
 20
76.425964
 30
0.0
 10
9.726649
 20
75.845858
 30
0.0
 10
10.962497
 20
75.845858
 30
0.0
 10
11.965579
 20
76.425964
 30
0.0
  0
SPLINE
  5
14d
100
AcDbEntity
  8
panel
 62
7
100
AcDbSpline
 70
8
 71
3
 72
8
 73
4
 74
0
 40
0
 40
0
 40
0
 40
0
 40
1
 40
1
 40
1
 40
1
 10
11.965579
 20
76.425964
 30
0.0
 10
12.968661
 20
77.006070
 30
0.0
 10
13.586585
 20
78.078150
 30
0.0
 10
13.586585
 20
79.238363
 30
0.0
  0
LINE
  5
14e
100
AcDbEntity
  8
panel
 62
7
100
AcDbLine
 10
13.586585
 20
79.238363
 30
0.0
 11
13.586585
 21
79.238363
 31
0.0
  0
SPLINE
  5
14f
100
AcDbEntity
  8
panel
 62
7
100
AcDbSpline
 70
8
 71
3
 72
8
 73
4
 74
0
 40
0
 40
0
 40
0
 40
0
 40
1
 40
1
 40
1
 40
1
 10
13.586585
 20
99.222841
 30
0.0
 10
13.586585
 20
100.383053
 30
0.0
 10
12.968661
 20
101.455133
 30
0.0
 10
11.965579
 20
102.035239
 30
0.0
  0
SPLINE
  5
150
100
AcDbEntity
  8
panel
 62
7
100
AcDbSpline
 70
8
 71
3
 72
8
 73
4
 74
0
 40
0
 40
0
 40
0
 40
0
 40
1
 40
1
 40
1
 40
1
 10
11.965579
 20
102.035239
 30
0.0
 10
10.962497
 20
102.615345
 30
0.0
 10
9.726649
 20
102.615345
 30
0.0
 10
8.723567
 20
102.035239
 30
0.0
  0
SPLINE
  5
151
100
AcDbEntity
  8
panel
 62
7
100
AcDbSpline
 70
8
 71
3
 72
8
 73
4
 74
0
 40
0
 40
0
 40
0
 40
0
 40
1
 40
1
 40
1
 40
1
 10
8.723567
 20
102.035239
 30
0.0
 10
7.720485
 20
101.455133
 30
0.0
 10
7.102561
 20
100.383053
 30
0.0
 10
7.102561
 20
99.222841
 30
0.0
  0
SPLINE
  5
152
100
AcDbEntity
  8
panel
 62
7
100
AcDbSpline
 70
8
 71
3
 72
8
 73
4
 74
0
 40
0
 40
0
 40
0
 40
0
 40
1
 40
1
 40
1
 40
1
 10
7.102561
 20
99.222841
 30
0.0
 10
7.102561
 20
98.062629
 30
0.0
 10
7.720485
 20
96.990549
 30
0.0
 10
8.723567
 20
96.410443
 30
0.0
  0
SPLINE
  5
153
100
AcDbEntity
  8
panel
 62
7
100
AcDbSpline
 70
8
 71
3
 72
8
 73
4
 74
0
 40
0
 40
0
 40
0
 40
0
 40
1
 40
1
 40
1
 40
1
 10
8.723567
 20
96.410443
 30
0.0
 10
9.726649
 20
95.830337
 30
0.0
 10
10.962497
 20
95.830337
 30
0.0
 10
11.965579
 20
96.410443
 30
0.0
  0
SPLINE
  5
154
100
AcDbEntity
  8
panel
 62
7
100
AcDbSpline
 70
8
 71
3
 72
8
 73
4
 74
0
 40
0
 40
0
 40
0
 40
0
 40
1
 40
1
 40
1
 40
1
 10
11.965579
 20
96.410443
 30
0.0
 10
12.968661
 20
96.990549
 30
0.0
 10
13.586585
 20
98.062629
 30
0.0
 10
13.586585
 20
99.222841
 30
0.0
  0
LINE
  5
155
100
AcDbEntity
  8
panel
 62
7
100
AcDbLine
 10
13.586585
 20
99.222841
 30
0.0
 11
13.586585
 21
99.222841
 31
0.0
  0
SPLINE
  5
156
100
AcDbEntity
  8
panel
 62
7
100
AcDbSpline
 70
8
 71
3
 72
8
 73
4
 74
0
 40
0
 40
0
 40
0
 40
0
 40
1
 40
1
 40
1
 40
1
 10
3.042564
 20
127.001268
 30
0.0
 10
2.490164
 20
127.001268
 30
0.0
 10
1.979724
 20
126.706068
 30
0.0
 10
1.703524
 20
126.226869
 30
0.0
  0
SPLINE
  5
157
100
AcDbEntity
  8
panel
 62
7
100
AcDbSpline
 70
8
 71
3
 72
8
 73
4
 74
0
 40
0
 40
0
 40
0
 40
0
 40
1
 40
1
 40
1
 40
1
 10
1.703524
 20
126.226869
 30
0.0
 10
1.427324
 20
125.747669
 30
0.0
 10
1.427324
 20
125.157271
 30
0.0
 10
1.703524
 20
124.678071
 30
0.0
  0
SPLINE
  5
158
100
AcDbEntity
  8
panel
 62
7
100
AcDbSpline
 70
8
 71
3
 72
8
 73
4
 74
0
 40
0
 40
0
 40
0
 40
0
 40
1
 40
1
 40
1
 40
1
 10
1.703524
 20
124.678071
 30
0.0
 10
1.979724
 20
124.198871
 30
0.0
 10
2.490164
 20
123.903672
 30
0.0
 10
3.042564
 20
123.903672
 30
0.0
  0
LINE
  5
159
100
AcDbEntity
  8
panel
 62
7
100
AcDbLine
 10
3.042454
 20
123.903804
 30
0.0
 11
6.035190
 21
123.903804
 31
0.0
  0
SPLINE
  5
15a
100
AcDbEntity
  8
panel
 62
7
100
AcDbSpline
 70
8
 71
3
 72
8
 73
4
 74
0
 40
0
 40
0
 40
0
 40
0
 40
1
 40
1
 40
1
 40
1
 10
6.035192
 20
123.903672
 30
0.0
 10
6.587593
 20
123.903672
 30
0.0
 10
7.098033
 20
124.198871
 30
0.0
 10
7.374233
 20
124.678071
 30
0.0
  0
SPLINE
  5
15b
100
AcDbEntity
  8
panel
 62
7
100
AcDbSpline
 70
8
 71
3
 72
8
 73
4
 74
0
 40
0
 40
0
 40
0
 40
0
 40
1
 40
1
 40
1
 40
1
 10
7.374233
 20
124.678071
 30
0.0
 10
7.650433
 20
125.157271
 30
0.0
 10
7.650433
 20
125.747669
 30
0.0
 10
7.374233
 20
126.226869
 30
0.0
  0
SPLINE
  5
15c
100
AcDbEntity
  8
panel
 62
7
100
AcDbSpline
 70
8
 71
3
 72
8
 73
4
 74
0
 40
0
 40
0
 40
0
 40
0
 40
1
 40
1
 40
1
 40
1
 10
7.374233
 20
126.226869
 30
0.0
 10
7.098033
 20
126.706068
 30
0.0
 10
6.587593
 20
127.001268
 30
0.0
 10
6.035192
 20
127.001268
 30
0.0
  0
LINE
  5
15d
100
AcDbEntity
  8
panel
 62
7
100
AcDbLine
 10
3.042454
 20
127.001257
 30
0.0
 11
6.035190
 21
127.001257
 31
0.0
  0
SPLINE
  5
15e
100
AcDbEntity
  8
panel
 62
7
100
AcDbSpline
 70
8
 71
3
 72
8
 73
4
 74
0
 40
0
 40
0
 40
0
 40
0
 40
1
 40
1
 40
1
 40
1
 10
32.889024
 20
69.246125
 30
0.0
 10
32.889024
 20
70.531283
 30
0.0
 10
32.204554
 20
71.718818
 30
0.0
 10
31.093448
 20
72.361397
 30
0.0
  0
SPLINE
  5
15f
100
AcDbEntity
  8
panel
 62
7
100
AcDbSpline
 70
8
 71
3
 72
8
 73
4
 74
0
 40
0
 40
0
 40
0
 40
0
 40
1
 40
1
 40
1
 40
1
 10
31.093448
 20
72.361397
 30
0.0
 10
29.982342
 20
73.003976
 30
0.0
 10
28.613403
 20
73.003976
 30
0.0
 10
27.502297
 20
72.361397
 30
0.0
  0
SPLINE
  5
160
100
AcDbEntity
  8
panel
 62
7
100
AcDbSpline
 70
8
 71
3
 72
8
 73
4
 74
0
 40
0
 40
0
 40
0
 40
0
 40
1
 40
1
 40
1
 40
1
 10
27.502297
 20
72.361397
 30
0.0
 10
26.391190
 20
71.718818
 30
0.0
 10
25.706721
 20
70.531283
 30
0.0
 10
25.706721
 20
69.246125
 30
0.0
  0
SPLINE
  5
161
100
AcDbEntity
  8
panel
 62
7
100
AcDbSpline
 70
8
 71
3
 72
8
 73
4
 74
0
 40
0
 40
0
 40
0
 40
0
 40
1
 40
1
 40
1
 40
1
 10
25.706721
 20
69.246125
 30
0.0
 10
25.706721
 20
67.960967
 30
0.0
 10
26.391190
 20
66.773432
 30
0.0
 10
27.502297
 20
66.130853
 30
0.0
  0
SPLINE
  5
162
100
AcDbEntity
  8
panel
 62
7
100
AcDbSpline
 70
8
 71
3
 72
8
 73
4
 74
0
 40
0
 40
0
 40
0
 40
0
 40
1
 40
1
 40
1
 40
1
 10
27.502297
 20
66.130853
 30
0.0
 10
28.613403
 20
65.488274
 30
0.0
 10
29.982342
 20
65.488274
 30
0.0
 10
31.093448
 20
66.130853
 30
0.0
  0
SPLINE
  5
163
100
AcDbEntity
  8
panel
 62
7
100
AcDbSpline
 70
8
 71
3
 72
8
 73
4
 74
0
 40
0
 40
0
 40
0
 40
0
 40
1
 40
1
 40
1
 40
1
 10
31.093448
 20
66.130853
 30
0.0
 10
32.204554
 20
66.773432
 30
0.0
 10
32.889024
 20
67.960967
 30
0.0
 10
32.889024
 20
69.246125
 30
0.0
  0
LINE
  5
164
100
AcDbEntity
  8
panel
 62
7
100
AcDbLine
 10
32.889024
 20
69.246125
 30
0.0
 11
32.889024
 21
69.246125
 31
0.0
  0
SPLINE
  5
165
100
AcDbEntity
  8
panel
 62
7
100
AcDbSpline
 70
8
 71
3
 72
8
 73
4
 74
0
 40
0
 40
0
 40
0
 40
0
 40
1
 40
1
 40
1
 40
1
 10
32.889024
 20
89.230603
 30
0.0
 10
32.889024
 20
90.515761
 30
0.0
 10
32.204554
 20
91.703296
 30
0.0
 10
31.093448
 20
92.345875
 30
0.0
  0
SPLINE
  5
166
100
AcDbEntity
  8
panel
 62
7
100
AcDbSpline
 70
8
 71
3
 72
8
 73
4
 74
0
 40
0
 40
0
 40
0
 40
0
 40
1
 40
1
 40
1
 40
1
 10
31.093448
 20
92.345875
 30
0.0
 10
29.982342
 20
92.988454
 30
0.0
 10
28.613403
 20
92.988454
 30
0.0
 10
27.502297
 20
92.345875
 30
0.0
  0
SPLINE
  5
167
100
AcDbEntity
  8
panel
 62
7
100
AcDbSpline
 70
8
 71
3
 72
8
 73
4
 74
0
 40
0
 40
0
 40
0
 40
0
 40
1
 40
1
 40
1
 40
1
 10
27.502297
 20
92.345875
 30
0.0
 10
26.391190
 20
91.703296
 30
0.0
 10
25.706721
 20
90.515761
 30
0.0
 10
25.706721
 20
89.230603
 30
0.0
  0
SPLINE
  5
168
100
AcDbEntity
  8
panel
 62
7
100
AcDbSpline
 70
8
 71
3
 72
8
 73
4
 74
0
 40
0
 40
0
 40
0
 40
0
 40
1
 40
1
 40
1
 40
1
 10
25.706721
 20
89.230603
 30
0.0
 10
25.706721
 20
87.945445
 30
0.0
 10
26.391190
 20
86.757910
 30
0.0
 10
27.502297
 20
86.115331
 30
0.0
  0
SPLINE
  5
169
100
AcDbEntity
  8
panel
 62
7
100
AcDbSpline
 70
8
 71
3
 72
8
 73
4
 74
0
 40
0
 40
0
 40
0
 40
0
 40
1
 40
1
 40
1
 40
1
 10
27.502297
 20
86.115331
 30
0.0
 10
28.613403
 20
85.472752
 30
0.0
 10
29.982342
 20
85.472752
 30
0.0
 10
31.093448
 20
86.115331
 30
0.0
  0
SPLINE
  5
16a
100
AcDbEntity
  8
panel
 62
7
100
AcDbSpline
 70
8
 71
3
 72
8
 73
4
 74
0
 40
0
 40
0
 40
0
 40
0
 40
1
 40
1
 40
1
 40
1
 10
31.093448
 20
86.115331
 30
0.0
 10
32.204554
 20
86.757910
 30
0.0
 10
32.889024
 20
87.945445
 30
0.0
 10
32.889024
 20
89.230603
 30
0.0
  0
LINE
  5
16b
100
AcDbEntity
  8
panel
 62
7
100
AcDbLine
 10
32.889024
 20
89.230603
 30
0.0
 11
32.889024
 21
89.230603
 31
0.0
  0
SPLINE
  5
16c
100
AcDbEntity
  8
panel
 62
7
100
AcDbSpline
 70
8
 71
3
 72
8
 73
4
 74
0
 40
0
 40
0
 40
0
 40
0
 40
1
 40
1
 40
1
 40
1
 10
32.889024
 20
109.215082
 30
0.0
 10
32.889024
 20
110.500240
 30
0.0
 10
32.204554
 20
111.687775
 30
0.0
 10
31.093448
 20
112.330354
 30
0.0
  0
SPLINE
  5
16d
100
AcDbEntity
  8
panel
 62
7
100
AcDbSpline
 70
8
 71
3
 72
8
 73
4
 74
0
 40
0
 40
0
 40
0
 40
0
 40
1
 40
1
 40
1
 40
1
 10
31.093448
 20
112.330354
 30
0.0
 10
29.982342
 20
112.972933
 30
0.0
 10
28.613403
 20
112.972933
 30
0.0
 10
27.502297
 20
112.330354
 30
0.0
  0
SPLINE
  5
16e
100
AcDbEntity
  8
panel
 62
7
100
AcDbSpline
 70
8
 71
3
 72
8
 73
4
 74
0
 40
0
 40
0
 40
0
 40
0
 40
1
 40
1
 40
1
 40
1
 10
27.502297
 20
112.330354
 30
0.0
 10
26.391190
 20
111.687775
 30
0.0
 10
25.706721
 20
110.500240
 30
0.0
 10
25.706721
 20
109.215082
 30
0.0
  0
SPLINE
  5
16f
100
AcDbEntity
  8
panel
 62
7
100
AcDbSpline
 70
8
 71
3
 72
8
 73
4
 74
0
 40
0
 40
0
 40
0
 40
0
 40
1
 40
1
 40
1
 40
1
 10
25.706721
 20
109.215082
 30
0.0
 10
25.706721
 20
107.929924
 30
0.0
 10
26.391190
 20
106.742388
 30
0.0
 10
27.502297
 20
106.099809
 30
0.0
  0
SPLINE
  5
170
100
AcDbEntity
  8
panel
 62
7
100
AcDbSpline
 70
8
 71
3
 72
8
 73
4
 74
0
 40
0
 40
0
 40
0
 40
0
 40
1
 40
1
 40
1
 40
1
 10
27.502297
 20
106.099809
 30
0.0
 10
28.613403
 20
105.457230
 30
0.0
 10
29.982342
 20
105.457230
 30
0.0
 10
31.093448
 20
106.099809
 30
0.0
  0
SPLINE
  5
171
100
AcDbEntity
  8
panel
 62
7
100
AcDbSpline
 70
8
 71
3
 72
8
 73
4
 74
0
 40
0
 40
0
 40
0
 40
0
 40
1
 40
1
 40
1
 40
1
 10
31.093448
 20
106.099809
 30
0.0
 10
32.204554
 20
106.742388
 30
0.0
 10
32.889024
 20
107.929924
 30
0.0
 10
32.889024
 20
109.215082
 30
0.0
  0
LINE
  5
172
100
AcDbEntity
  8
panel
 62
7
100
AcDbLine
 10
32.889024
 20
109.215082
 30
0.0
 11
32.889024
 21
109.215082
 31
0.0
  0
SPLINE
  5
173
100
AcDbEntity
  8
panel
 62
7
100
AcDbSpline
 70
8
 71
3
 72
8
 73
4
 74
0
 40
0
 40
0
 40
0
 40
0
 40
1
 40
1
 40
1
 40
1
 10
34.604797
 20
127.001268
 30
0.0
 10
34.052396
 20
127.001268
 30
0.0
 10
33.541957
 20
126.706068
 30
0.0
 10
33.265756
 20
126.226869
 30
0.0
  0
SPLINE
  5
174
100
AcDbEntity
  8
panel
 62
7
100
AcDbSpline
 70
8
 71
3
 72
8
 73
4
 74
0
 40
0
 40
0
 40
0
 40
0
 40
1
 40
1
 40
1
 40
1
 10
33.265756
 20
126.226869
 30
0.0
 10
32.989556
 20
125.747669
 30
0.0
 10
32.989556
 20
125.157271
 30
0.0
 10
33.265756
 20
124.678071
 30
0.0
  0
SPLINE
  5
175
100
AcDbEntity
  8
panel
 62
7
100
AcDbSpline
 70
8
 71
3
 72
8
 73
4
 74
0
 40
0
 40
0
 40
0
 40
0
 40
1
 40
1
 40
1
 40
1
 10
33.265756
 20
124.678071
 30
0.0
 10
33.541957
 20
124.198871
 30
0.0
 10
34.052396
 20
123.903672
 30
0.0
 10
34.604797
 20
123.903672
 30
0.0
  0
LINE
  5
176
100
AcDbEntity
  8
panel
 62
7
100
AcDbLine
 10
34.604881
 20
123.903804
 30
0.0
 11
37.597354
 21
123.903804
 31
0.0
  0
SPLINE
  5
177
100
AcDbEntity
  8
panel
 62
7
100
AcDbSpline
 70
8
 71
3
 72
8
 73
4
 74
0
 40
0
 40
0
 40
0
 40
0
 40
1
 40
1
 40
1
 40
1
 10
37.597422
 20
123.903672
 30
0.0
 10
38.149823
 20
123.903672
 30
0.0
 10
38.660262
 20
124.198871
 30
0.0
 10
38.936463
 20
124.678071
 30
0.0
  0
SPLINE
  5
178
100
AcDbEntity
  8
panel
 62
7
100
AcDbSpline
 70
8
 71
3
 72
8
 73
4
 74
0
 40
0
 40
0
 40
0
 40
0
 40
1
 40
1
 40
1
 40
1
 10
38.936463
 20
124.678071
 30
0.0
 10
39.212663
 20
125.157271
 30
0.0
 10
39.212663
 20
125.747669
 30
0.0
 10
38.936463
 20
126.226869
 30
0.0
  0
SPLINE
  5
179
100
AcDbEntity
  8
panel
 62
7
100
AcDbSpline
 70
8
 71
3
 72
8
 73
4
 74
0
 40
0
 40
0
 40
0
 40
0
 40
1
 40
1
 40
1
 40
1
 10
38.936463
 20
126.226869
 30
0.0
 10
38.660262
 20
126.706068
 30
0.0
 10
38.149823
 20
127.001268
 30
0.0
 10
37.597422
 20
127.001268
 30
0.0
  0
LINE
  5
17a
100
AcDbEntity
  8
panel
 62
7
100
AcDbLine
 10
34.604881
 20
127.001257
 30
0.0
 11
37.597354
 21
127.001257
 31
0.0
  0
LINE
  5
17b
100
AcDbEntity
  8
text
 62
7
100
AcDbLine
 10
11.698091
 20
125.362516
 30
0.0
 11
11.698091
 21
123.494200
 31
0.0
  0
LINE
  5
17c
100
AcDbEntity
  8
text
 62
7
100
AcDbLine
 10
11.698091
 20
125.362516
 30
0.0
 11
12.499604
 21
125.362516
 31
0.0
  0
LINE
  5
17d
100
AcDbEntity
  8
text
 62
7
100
AcDbLine
 10
12.499604
 20
125.362516
 30
0.0
 11
12.764894
 21
125.272205
 31
0.0
  0
LINE
  5
17e
100
AcDbEntity
  8
text
 62
7
100
AcDbLine
 10
12.764894
 20
125.272205
 30
0.0
 11
12.855205
 21
125.181894
 31
0.0
  0
LINE
  5
17f
100
AcDbEntity
  8
text
 62
7
100
AcDbLine
 10
12.855205
 20
125.181894
 30
0.0
 11
12.945516
 21
125.006915
 31
0.0
  0
LINE
  5
180
100
AcDbEntity
  8
text
 62
7
100
AcDbLine
 10
12.945516
 20
125.006915
 30
0.0
 11
12.945516
 21
124.826293
 31
0.0
  0
LINE
  5
181
100
AcDbEntity
  8
text
 62
7
100
AcDbLine
 10
12.945516
 20
124.826293
 30
0.0
 11
12.855205
 21
124.651314
 31
0.0
  0
LINE
  5
182
100
AcDbEntity
  8
text
 62
7
100
AcDbLine
 10
12.855205
 20
124.651314
 30
0.0
 11
12.764894
 21
124.561003
 31
0.0
  0
LINE
  5
183
100
AcDbEntity
  8
text
 62
7
100
AcDbLine
 10
12.764894
 20
124.561003
 30
0.0
 11
12.499604
 21
124.470692
 31
0.0
  0
LINE
  5
184
100
AcDbEntity
  8
text
 62
7
100
AcDbLine
 10
12.499604
 20
124.470692
 30
0.0
 11
11.698091
 21
124.470692
 31
0.0
  0
LINE
  5
185
100
AcDbEntity
  8
text
 62
7
100
AcDbLine
 10
12.321803
 20
124.470692
 30
0.0
 11
12.945516
 21
123.494200
 31
0.0
  0
LINE
  5
186
100
AcDbEntity
  8
text
 62
7
100
AcDbLine
 10
13.922012
 20
124.738803
 30
0.0
 11
13.747033
 21
124.651314
 31
0.0
  0
LINE
  5
187
100
AcDbEntity
  8
text
 62
7
100
AcDbLine
 10
13.747033
 20
124.651314
 30
0.0
 11
13.566411
 21
124.470692
 31
0.0
  0
LINE
  5
188
100
AcDbEntity
  8
text
 62
7
100
AcDbLine
 10
13.566411
 20
124.470692
 30
0.0
 11
13.478921
 21
124.205402
 31
0.0
  0
LINE
  5
189
100
AcDbEntity
  8
text
 62
7
100
AcDbLine
 10
13.478921
 20
124.205402
 30
0.0
 11
13.478921
 21
124.027601
 31
0.0
  0
LINE
  5
18a
100
AcDbEntity
  8
text
 62
7
100
AcDbLine
 10
13.478921
 20
124.027601
 30
0.0
 11
13.566411
 21
123.760901
 31
0.0
  0
LINE
  5
18b
100
AcDbEntity
  8
text
 62
7
100
AcDbLine
 10
13.566411
 20
123.760901
 30
0.0
 11
13.747033
 21
123.583100
 31
0.0
  0
LINE
  5
18c
100
AcDbEntity
  8
text
 62
7
100
AcDbLine
 10
13.747033
 20
123.583100
 30
0.0
 11
13.922012
 21
123.494200
 31
0.0
  0
LINE
  5
18d
100
AcDbEntity
  8
text
 62
7
100
AcDbLine
 10
13.922012
 20
123.494200
 30
0.0
 11
14.190123
 21
123.494200
 31
0.0
  0
LINE
  5
18e
100
AcDbEntity
  8
text
 62
7
100
AcDbLine
 10
14.190123
 20
123.494200
 30
0.0
 11
14.367924
 21
123.583100
 31
0.0
  0
LINE
  5
18f
100
AcDbEntity
  8
text
 62
7
100
AcDbLine
 10
14.367924
 20
123.583100
 30
0.0
 11
14.545724
 21
123.760901
 31
0.0
  0
LINE
  5
190
100
AcDbEntity
  8
text
 62
7
100
AcDbLine
 10
14.545724
 20
123.760901
 30
0.0
 11
14.633214
 21
124.027601
 31
0.0
  0
LINE
  5
191
100
AcDbEntity
  8
text
 62
7
100
AcDbLine
 10
14.633214
 20
124.027601
 30
0.0
 11
14.633214
 21
124.205402
 31
0.0
  0
LINE
  5
192
100
AcDbEntity
  8
text
 62
7
100
AcDbLine
 10
14.633214
 20
124.205402
 30
0.0
 11
14.545724
 21
124.470692
 31
0.0
  0
LINE
  5
193
100
AcDbEntity
  8
text
 62
7
100
AcDbLine
 10
14.545724
 20
124.470692
 30
0.0
 11
14.367924
 21
124.651314
 31
0.0
  0
LINE
  5
194
100
AcDbEntity
  8
text
 62
7
100
AcDbLine
 10
14.367924
 20
124.651314
 30
0.0
 11
14.190123
 21
124.738803
 31
0.0
  0
LINE
  5
195
100
AcDbEntity
  8
text
 62
7
100
AcDbLine
 10
14.190123
 20
124.738803
 30
0.0
 11
13.922012
 21
124.738803
 31
0.0
  0
LINE
  5
196
100
AcDbEntity
  8
text
 62
7
100
AcDbLine
 10
15.254101
 20
125.362516
 30
0.0
 11
15.254101
 21
123.494200
 31
0.0
  0
LINE
  5
197
100
AcDbEntity
  8
text
 62
7
100
AcDbLine
 10
15.254101
 20
124.470692
 30
0.0
 11
15.434723
 21
124.651314
 31
0.0
  0
LINE
  5
198
100
AcDbEntity
  8
text
 62
7
100
AcDbLine
 10
15.434723
 20
124.651314
 30
0.0
 11
15.609702
 21
124.738803
 31
0.0
  0
LINE
  5
199
100
AcDbEntity
  8
text
 62
7
100
AcDbLine
 10
15.609702
 20
124.738803
 30
0.0
 11
15.877813
 21
124.738803
 31
0.0
  0
LINE
  5
19a
100
AcDbEntity
  8
text
 62
7
100
AcDbLine
 10
15.877813
 20
124.738803
 30
0.0
 11
16.055614
 21
124.651314
 31
0.0
  0
LINE
  5
19b
100
AcDbEntity
  8
text
 62
7
100
AcDbLine
 10
16.055614
 20
124.651314
 30
0.0
 11
16.233414
 21
124.470692
 31
0.0
  0
LINE
  5
19c
100
AcDbEntity
  8
text
 62
7
100
AcDbLine
 10
16.233414
 20
124.470692
 30
0.0
 11
16.320904
 21
124.205402
 31
0.0
  0
LINE
  5
19d
100
AcDbEntity
  8
text
 62
7
100
AcDbLine
 10
16.320904
 20
124.205402
 30
0.0
 11
16.320904
 21
124.027601
 31
0.0
  0
LINE
  5
19e
100
AcDbEntity
  8
text
 62
7
100
AcDbLine
 10
16.320904
 20
124.027601
 30
0.0
 11
16.233414
 21
123.760901
 31
0.0
  0
LINE
  5
19f
100
AcDbEntity
  8
text
 62
7
100
AcDbLine
 10
16.233414
 20
123.760901
 30
0.0
 11
16.055614
 21
123.583100
 31
0.0
  0
LINE
  5
1a0
100
AcDbEntity
  8
text
 62
7
100
AcDbLine
 10
16.055614
 20
123.583100
 30
0.0
 11
15.877813
 21
123.494200
 31
0.0
  0
LINE
  5
1a1
100
AcDbEntity
  8
text
 62
7
100
AcDbLine
 10
15.877813
 20
123.494200
 30
0.0
 11
15.609702
 21
123.494200
 31
0.0
  0
LINE
  5
1a2
100
AcDbEntity
  8
text
 62
7
100
AcDbLine
 10
15.609702
 20
123.494200
 30
0.0
 11
15.434723
 21
123.583100
 31
0.0
  0
LINE
  5
1a3
100
AcDbEntity
  8
text
 62
7
100
AcDbLine
 10
15.434723
 20
123.583100
 30
0.0
 11
15.254101
 21
123.760901
 31
0.0
  0
LINE
  5
1a4
100
AcDbEntity
  8
text
 62
7
100
AcDbLine
 10
17.297392
 20
124.738803
 30
0.0
 11
17.122413
 21
124.651314
 31
0.0
  0
LINE
  5
1a5
100
AcDbEntity
  8
text
 62
7
100
AcDbLine
 10
17.122413
 20
124.651314
 30
0.0
 11
16.941791
 21
124.470692
 31
0.0
  0
LINE
  5
1a6
100
AcDbEntity
  8
text
 62
7
100
AcDbLine
 10
16.941791
 20
124.470692
 30
0.0
 11
16.854301
 21
124.205402
 31
0.0
  0
LINE
  5
1a7
100
AcDbEntity
  8
text
 62
7
100
AcDbLine
 10
16.854301
 20
124.205402
 30
0.0
 11
16.854301
 21
124.027601
 31
0.0
  0
LINE
  5
1a8
100
AcDbEntity
  8
text
 62
7
100
AcDbLine
 10
16.854301
 20
124.027601
 30
0.0
 11
16.941791
 21
123.760901
 31
0.0
  0
LINE
  5
1a9
100
AcDbEntity
  8
text
 62
7
100
AcDbLine
 10
16.941791
 20
123.760901
 30
0.0
 11
17.122413
 21
123.583100
 31
0.0
  0
LINE
  5
1aa
100
AcDbEntity
  8
text
 62
7
100
AcDbLine
 10
17.122413
 20
123.583100
 30
0.0
 11
17.297392
 21
123.494200
 31
0.0
  0
LINE
  5
1ab
100
AcDbEntity
  8
text
 62
7
100
AcDbLine
 10
17.297392
 20
123.494200
 30
0.0
 11
17.565503
 21
123.494200
 31
0.0
  0
LINE
  5
1ac
100
AcDbEntity
  8
text
 62
7
100
AcDbLine
 10
17.565503
 20
123.494200
 30
0.0
 11
17.743304
 21
123.583100
 31
0.0
  0
LINE
  5
1ad
100
AcDbEntity
  8
text
 62
7
100
AcDbLine
 10
17.743304
 20
123.583100
 30
0.0
 11
17.921104
 21
123.760901
 31
0.0
  0
LINE
  5
1ae
100
AcDbEntity
  8
text
 62
7
100
AcDbLine
 10
17.921104
 20
123.760901
 30
0.0
 11
18.008594
 21
124.027601
 31
0.0
  0
LINE
  5
1af
100
AcDbEntity
  8
text
 62
7
100
AcDbLine
 10
18.008594
 20
124.027601
 30
0.0
 11
18.008594
 21
124.205402
 31
0.0
  0
LINE
  5
1b0
100
AcDbEntity
  8
text
 62
7
100
AcDbLine
 10
18.008594
 20
124.205402
 30
0.0
 11
17.921104
 21
124.470692
 31
0.0
  0
LINE
  5
1b1
100
AcDbEntity
  8
text
 62
7
100
AcDbLine
 10
17.921104
 20
124.470692
 30
0.0
 11
17.743304
 21
124.651314
 31
0.0
  0
LINE
  5
1b2
100
AcDbEntity
  8
text
 62
7
100
AcDbLine
 10
17.743304
 20
124.651314
 30
0.0
 11
17.565503
 21
124.738803
 31
0.0
  0
LINE
  5
1b3
100
AcDbEntity
  8
text
 62
7
100
AcDbLine
 10
17.565503
 20
124.738803
 30
0.0
 11
17.297392
 21
124.738803
 31
0.0
  0
LINE
  5
1b4
100
AcDbEntity
  8
text
 62
7
100
AcDbLine
 10
18.719802
 20
125.362516
 30
0.0
 11
18.719802
 21
123.849801
 31
0.0
  0
LINE
  5
1b5
100
AcDbEntity
  8
text
 62
7
100
AcDbLine
 10
18.719802
 20
123.849801
 30
0.0
 11
18.810113
 21
123.583100
 31
0.0
  0
LINE
  5
1b6
100
AcDbEntity
  8
text
 62
7
100
AcDbLine
 10
18.810113
 20
123.583100
 30
0.0
 11
18.985092
 21
123.494200
 31
0.0
  0
LINE
  5
1b7
100
AcDbEntity
  8
text
 62
7
100
AcDbLine
 10
18.985092
 20
123.494200
 30
0.0
 11
19.165714
 21
123.494200
 31
0.0
  0
LINE
  5
1b8
100
AcDbEntity
  8
text
 62
7
100
AcDbLine
 10
18.454512
 20
124.738803
 30
0.0
 11
19.075403
 21
124.738803
 31
0.0
  0
LINE
  5
1b9
100
AcDbEntity
  8
text
 62
7
100
AcDbLine
 10
19.696291
 20
125.362516
 30
0.0
 11
19.696291
 21
123.494200
 31
0.0
  0
LINE
  5
1ba
100
AcDbEntity
  8
text
 62
7
100
AcDbLine
 10
19.696291
 20
125.362516
 30
0.0
 11
20.320003
 21
125.362516
 31
0.0
  0
LINE
  5
1bb
100
AcDbEntity
  8
text
 62
7
100
AcDbLine
 10
20.320003
 20
125.362516
 30
0.0
 11
20.588115
 21
125.272205
 31
0.0
  0
LINE
  5
1bc
100
AcDbEntity
  8
text
 62
7
100
AcDbLine
 10
20.588115
 20
125.272205
 30
0.0
 11
20.763094
 21
125.094404
 31
0.0
  0
LINE
  5
1bd
100
AcDbEntity
  8
text
 62
7
100
AcDbLine
 10
20.763094
 20
125.094404
 30
0.0
 11
20.853405
 21
124.916604
 31
0.0
  0
LINE
  5
1be
100
AcDbEntity
  8
text
 62
7
100
AcDbLine
 10
20.853405
 20
124.916604
 30
0.0
 11
20.943716
 21
124.651314
 31
0.0
  0
LINE
  5
1bf
100
AcDbEntity
  8
text
 62
7
100
AcDbLine
 10
20.943716
 20
124.651314
 30
0.0
 11
20.943716
 21
124.205402
 31
0.0
  0
LINE
  5
1c0
100
AcDbEntity
  8
text
 62
7
100
AcDbLine
 10
20.943716
 20
124.205402
 30
0.0
 11
20.853405
 21
123.940112
 31
0.0
  0
LINE
  5
1c1
100
AcDbEntity
  8
text
 62
7
100
AcDbLine
 10
20.853405
 20
123.940112
 30
0.0
 11
20.763094
 21
123.760901
 31
0.0
  0
LINE
  5
1c2
100
AcDbEntity
  8
text
 62
7
100
AcDbLine
 10
20.763094
 20
123.760901
 30
0.0
 11
20.588115
 21
123.583100
 31
0.0
  0
LINE
  5
1c3
100
AcDbEntity
  8
text
 62
7
100
AcDbLine
 10
20.588115
 20
123.583100
 30
0.0
 11
20.320003
 21
123.494200
 31
0.0
  0
LINE
  5
1c4
100
AcDbEntity
  8
text
 62
7
100
AcDbLine
 10
20.320003
 20
123.494200
 30
0.0
 11
19.696291
 21
123.494200
 31
0.0
  0
LINE
  5
1c5
100
AcDbEntity
  8
text
 62
7
100
AcDbLine
 10
21.477121
 20
125.362516
 30
0.0
 11
21.564611
 21
125.272205
 31
0.0
  0
LINE
  5
1c6
100
AcDbEntity
  8
text
 62
7
100
AcDbLine
 10
21.564611
 20
125.272205
 30
0.0
 11
21.654922
 21
125.362516
 31
0.0
  0
LINE
  5
1c7
100
AcDbEntity
  8
text
 62
7
100
AcDbLine
 10
21.654922
 20
125.362516
 30
0.0
 11
21.564611
 21
125.450005
 31
0.0
  0
LINE
  5
1c8
100
AcDbEntity
  8
text
 62
7
100
AcDbLine
 10
21.564611
 20
125.450005
 30
0.0
 11
21.477121
 21
125.362516
 31
0.0
  0
LINE
  5
1c9
100
AcDbEntity
  8
text
 62
7
100
AcDbLine
 10
21.564611
 20
124.738803
 30
0.0
 11
21.564611
 21
123.494200
 31
0.0
  0
LINE
  5
1ca
100
AcDbEntity
  8
text
 62
7
100
AcDbLine
 10
23.255104
 20
124.738803
 30
0.0
 11
23.255104
 21
123.494200
 31
0.0
  0
LINE
  5
1cb
100
AcDbEntity
  8
text
 62
7
100
AcDbLine
 10
23.255104
 20
124.470692
 30
0.0
 11
23.077304
 21
124.651314
 31
0.0
  0
LINE
  5
1cc
100
AcDbEntity
  8
text
 62
7
100
AcDbLine
 10
23.077304
 20
124.651314
 30
0.0
 11
22.899503
 21
124.738803
 31
0.0
  0
LINE
  5
1cd
100
AcDbEntity
  8
text
 62
7
100
AcDbLine
 10
22.899503
 20
124.738803
 30
0.0
 11
22.631392
 21
124.738803
 31
0.0
  0
LINE
  5
1ce
100
AcDbEntity
  8
text
 62
7
100
AcDbLine
 10
22.631392
 20
124.738803
 30
0.0
 11
22.456413
 21
124.651314
 31
0.0
  0
LINE
  5
1cf
100
AcDbEntity
  8
text
 62
7
100
AcDbLine
 10
22.456413
 20
124.651314
 30
0.0
 11
22.275791
 21
124.470692
 31
0.0
  0
LINE
  5
1d0
100
AcDbEntity
  8
text
 62
7
100
AcDbLine
 10
22.275791
 20
124.470692
 30
0.0
 11
22.188301
 21
124.205402
 31
0.0
  0
LINE
  5
1d1
100
AcDbEntity
  8
text
 62
7
100
AcDbLine
 10
22.188301
 20
124.205402
 30
0.0
 11
22.188301
 21
124.027601
 31
0.0
  0
LINE
  5
1d2
100
AcDbEntity
  8
text
 62
7
100
AcDbLine
 10
22.188301
 20
124.027601
 30
0.0
 11
22.275791
 21
123.760901
 31
0.0
  0
LINE
  5
1d3
100
AcDbEntity
  8
text
 62
7
100
AcDbLine
 10
22.275791
 20
123.760901
 30
0.0
 11
22.456413
 21
123.583100
 31
0.0
  0
LINE
  5
1d4
100
AcDbEntity
  8
text
 62
7
100
AcDbLine
 10
22.456413
 20
123.583100
 30
0.0
 11
22.631392
 21
123.494200
 31
0.0
  0
LINE
  5
1d5
100
AcDbEntity
  8
text
 62
7
100
AcDbLine
 10
22.631392
 20
123.494200
 30
0.0
 11
22.899503
 21
123.494200
 31
0.0
  0
LINE
  5
1d6
100
AcDbEntity
  8
text
 62
7
100
AcDbLine
 10
22.899503
 20
123.494200
 30
0.0
 11
23.077304
 21
123.583100
 31
0.0
  0
LINE
  5
1d7
100
AcDbEntity
  8
text
 62
7
100
AcDbLine
 10
23.077304
 20
123.583100
 30
0.0
 11
23.255104
 21
123.760901
 31
0.0
  0
LINE
  5
1d8
100
AcDbEntity
  8
text
 62
7
100
AcDbLine
 10
23.963491
 20
125.362516
 30
0.0
 11
23.963491
 21
123.494200
 31
0.0
  0
LINE
  5
1d9
100
AcDbEntity
  8
text
 62
7
100
AcDbLine
 10
25.030292
 20
124.738803
 30
0.0
 11
24.855313
 21
124.651314
 31
0.0
  0
LINE
  5
1da
100
AcDbEntity
  8
text
 62
7
100
AcDbLine
 10
24.855313
 20
124.651314
 30
0.0
 11
24.674691
 21
124.470692
 31
0.0
  0
LINE
  5
1db
100
AcDbEntity
  8
text
 62
7
100
AcDbLine
 10
24.674691
 20
124.470692
 30
0.0
 11
24.587201
 21
124.205402
 31
0.0
  0
LINE
  5
1dc
100
AcDbEntity
  8
text
 62
7
100
AcDbLine
 10
24.587201
 20
124.205402
 30
0.0
 11
24.587201
 21
124.027601
 31
0.0
  0
LINE
  5
1dd
100
AcDbEntity
  8
text
 62
7
100
AcDbLine
 10
24.587201
 20
124.027601
 30
0.0
 11
24.674691
 21
123.760901
 31
0.0
  0
LINE
  5
1de
100
AcDbEntity
  8
text
 62
7
100
AcDbLine
 10
24.674691
 20
123.760901
 30
0.0
 11
24.855313
 21
123.583100
 31
0.0
  0
LINE
  5
1df
100
AcDbEntity
  8
text
 62
7
100
AcDbLine
 10
24.855313
 20
123.583100
 30
0.0
 11
25.030292
 21
123.494200
 31
0.0
  0
LINE
  5
1e0
100
AcDbEntity
  8
text
 62
7
100
AcDbLine
 10
25.030292
 20
123.494200
 30
0.0
 11
25.298403
 21
123.494200
 31
0.0
  0
LINE
  5
1e1
100
AcDbEntity
  8
text
 62
7
100
AcDbLine
 10
25.298403
 20
123.494200
 30
0.0
 11
25.476204
 21
123.583100
 31
0.0
  0
LINE
  5
1e2
100
AcDbEntity
  8
text
 62
7
100
AcDbLine
 10
25.476204
 20
123.583100
 30
0.0
 11
25.654004
 21
123.760901
 31
0.0
  0
LINE
  5
1e3
100
AcDbEntity
  8
text
 62
7
100
AcDbLine
 10
25.654004
 20
123.760901
 30
0.0
 11
25.741494
 21
124.027601
 31
0.0
  0
LINE
  5
1e4
100
AcDbEntity
  8
text
 62
7
100
AcDbLine
 10
25.741494
 20
124.027601
 30
0.0
 11
25.741494
 21
124.205402
 31
0.0
  0
LINE
  5
1e5
100
AcDbEntity
  8
text
 62
7
100
AcDbLine
 10
25.741494
 20
124.205402
 30
0.0
 11
25.654004
 21
124.470692
 31
0.0
  0
LINE
  5
1e6
100
AcDbEntity
  8
text
 62
7
100
AcDbLine
 10
25.654004
 20
124.470692
 30
0.0
 11
25.476204
 21
124.651314
 31
0.0
  0
LINE
  5
1e7
100
AcDbEntity
  8
text
 62
7
100
AcDbLine
 10
25.476204
 20
124.651314
 30
0.0
 11
25.298403
 21
124.738803
 31
0.0
  0
LINE
  5
1e8
100
AcDbEntity
  8
text
 62
7
100
AcDbLine
 10
25.298403
 20
124.738803
 30
0.0
 11
25.030292
 21
124.738803
 31
0.0
  0
LINE
  5
1e9
100
AcDbEntity
  8
text
 62
7
100
AcDbLine
 10
27.341704
 20
124.738803
 30
0.0
 11
27.341704
 21
123.316400
 31
0.0
  0
LINE
  5
1ea
100
AcDbEntity
  8
text
 62
7
100
AcDbLine
 10
27.341704
 20
123.316400
 30
0.0
 11
27.254215
 21
123.048288
 31
0.0
  0
LINE
  5
1eb
100
AcDbEntity
  8
text
 62
7
100
AcDbLine
 10
27.254215
 20
123.048288
 30
0.0
 11
27.163904
 21
122.960799
 31
0.0
  0
LINE
  5
1ec
100
AcDbEntity
  8
text
 62
7
100
AcDbLine
 10
27.163904
 20
122.960799
 30
0.0
 11
26.986103
 21
122.873309
 31
0.0
  0
LINE
  5
1ed
100
AcDbEntity
  8
text
 62
7
100
AcDbLine
 10
26.986103
 20
122.873309
 30
0.0
 11
26.717992
 21
122.873309
 31
0.0
  0
LINE
  5
1ee
100
AcDbEntity
  8
text
 62
7
100
AcDbLine
 10
26.717992
 20
122.873309
 30
0.0
 11
26.543013
 21
122.960799
 31
0.0
  0
LINE
  5
1ef
100
AcDbEntity
  8
text
 62
7
100
AcDbLine
 10
27.341704
 20
124.470692
 30
0.0
 11
27.163904
 21
124.651314
 31
0.0
  0
LINE
  5
1f0
100
AcDbEntity
  8
text
 62
7
100
AcDbLine
 10
27.163904
 20
124.651314
 30
0.0
 11
26.986103
 21
124.738803
 31
0.0
  0
LINE
  5
1f1
100
AcDbEntity
  8
text
 62
7
100
AcDbLine
 10
26.986103
 20
124.738803
 30
0.0
 11
26.717992
 21
124.738803
 31
0.0
  0
LINE
  5
1f2
100
AcDbEntity
  8
text
 62
7
100
AcDbLine
 10
26.717992
 20
124.738803
 30
0.0
 11
26.543013
 21
124.651314
 31
0.0
  0
LINE
  5
1f3
100
AcDbEntity
  8
text
 62
7
100
AcDbLine
 10
26.543013
 20
124.651314
 30
0.0
 11
26.362391
 21
124.470692
 31
0.0
  0
LINE
  5
1f4
100
AcDbEntity
  8
text
 62
7
100
AcDbLine
 10
26.362391
 20
124.470692
 30
0.0
 11
26.274901
 21
124.205402
 31
0.0
  0
LINE
  5
1f5
100
AcDbEntity
  8
text
 62
7
100
AcDbLine
 10
26.274901
 20
124.205402
 30
0.0
 11
26.274901
 21
124.027601
 31
0.0
  0
LINE
  5
1f6
100
AcDbEntity
  8
text
 62
7
100
AcDbLine
 10
26.274901
 20
124.027601
 30
0.0
 11
26.362391
 21
123.760901
 31
0.0
  0
LINE
  5
1f7
100
AcDbEntity
  8
text
 62
7
100
AcDbLine
 10
26.362391
 20
123.760901
 30
0.0
 11
26.543013
 21
123.583100
 31
0.0
  0
LINE
  5
1f8
100
AcDbEntity
  8
text
 62
7
100
AcDbLine
 10
26.543013
 20
123.583100
 30
0.0
 11
26.717992
 21
123.494200
 31
0.0
  0
LINE
  5
1f9
100
AcDbEntity
  8
text
 62
7
100
AcDbLine
 10
26.717992
 20
123.494200
 30
0.0
 11
26.986103
 21
123.494200
 31
0.0
  0
LINE
  5
1fa
100
AcDbEntity
  8
text
 62
7
100
AcDbLine
 10
26.986103
 20
123.494200
 30
0.0
 11
27.163904
 21
123.583100
 31
0.0
  0
LINE
  5
1fb
100
AcDbEntity
  8
text
 62
7
100
AcDbLine
 10
27.163904
 20
123.583100
 30
0.0
 11
27.341704
 21
123.760901
 31
0.0
  0
LINE
  5
1fc
100
AcDbEntity
  8
text
 62
7
100
AcDbLine
 10
28.941915
 20
124.470692
 30
0.0
 11
28.851604
 21
124.651314
 31
0.0
  0
LINE
  5
1fd
100
AcDbEntity
  8
text
 62
7
100
AcDbLine
 10
28.851604
 20
124.651314
 30
0.0
 11
28.586314
 21
124.738803
 31
0.0
  0
LINE
  5
1fe
100
AcDbEntity
  8
text
 62
7
100
AcDbLine
 10
28.586314
 20
124.738803
 30
0.0
 11
28.318202
 21
124.738803
 31
0.0
  0
LINE
  5
1ff
100
AcDbEntity
  8
text
 62
7
100
AcDbLine
 10
28.318202
 20
124.738803
 30
0.0
 11
28.050091
 21
124.651314
 31
0.0
  0
LINE
  5
200
100
AcDbEntity
  8
text
 62
7
100
AcDbLine
 10
28.050091
 20
124.651314
 30
0.0
 11
27.962601
 21
124.470692
 31
0.0
  0
LINE
  5
201
100
AcDbEntity
  8
text
 62
7
100
AcDbLine
 10
27.962601
 20
124.470692
 30
0.0
 11
28.050091
 21
124.295713
 31
0.0
  0
LINE
  5
202
100
AcDbEntity
  8
text
 62
7
100
AcDbLine
 10
28.050091
 20
124.295713
 30
0.0
 11
28.230713
 21
124.205402
 31
0.0
  0
LINE
  5
203
100
AcDbEntity
  8
text
 62
7
100
AcDbLine
 10
28.230713
 20
124.205402
 30
0.0
 11
28.673803
 21
124.115091
 31
0.0
  0
LINE
  5
204
100
AcDbEntity
  8
text
 62
7
100
AcDbLine
 10
28.673803
 20
124.115091
 30
0.0
 11
28.851604
 21
124.027601
 31
0.0
  0
LINE
  5
205
100
AcDbEntity
  8
text
 62
7
100
AcDbLine
 10
28.851604
 20
124.027601
 30
0.0
 11
28.941915
 21
123.849801
 31
0.0
  0
LINE
  5
206
100
AcDbEntity
  8
text
 62
7
100
AcDbLine
 10
28.941915
 20
123.849801
 30
0.0
 11
28.941915
 21
123.760901
 31
0.0
  0
LINE
  5
207
100
AcDbEntity
  8
text
 62
7
100
AcDbLine
 10
28.941915
 20
123.760901
 30
0.0
 11
28.851604
 21
123.583100
 31
0.0
  0
LINE
  5
208
100
AcDbEntity
  8
text
 62
7
100
AcDbLine
 10
28.851604
 20
123.583100
 30
0.0
 11
28.586314
 21
123.494200
 31
0.0
  0
LINE
  5
209
100
AcDbEntity
  8
text
 62
7
100
AcDbLine
 10
28.586314
 20
123.494200
 30
0.0
 11
28.318202
 21
123.494200
 31
0.0
  0
LINE
  5
20a
100
AcDbEntity
  8
text
 62
7
100
AcDbLine
 10
28.318202
 20
123.494200
 30
0.0
 11
28.050091
 21
123.583100
 31
0.0
  0
LINE
  5
20b
100
AcDbEntity
  8
text
 62
7
100
AcDbLine
 10
28.050091
 20
123.583100
 30
0.0
 11
27.962601
 21
123.760901
 31
0.0
  0
LINE
  5
20c
100
AcDbEntity
  8
text
 62
7
100
AcDbLine
 10
5.161791
 20
121.544116
 30
0.0
 11
5.161791
 21
119.675800
 31
0.0
  0
LINE
  5
20d
100
AcDbEntity
  8
text
 62
7
100
AcDbLine
 10
5.161791
 20
121.544116
 30
0.0
 11
6.318905
 21
121.544116
 31
0.0
  0
LINE
  5
20e
100
AcDbEntity
  8
text
 62
7
100
AcDbLine
 10
5.161791
 20
120.652292
 30
0.0
 11
5.872993
 21
120.652292
 31
0.0
  0
LINE
  5
20f
100
AcDbEntity
  8
text
 62
7
100
AcDbLine
 10
5.161791
 20
119.675800
 30
0.0
 11
6.318905
 21
119.675800
 31
0.0
  0
LINE
  5
210
100
AcDbEntity
  8
text
 62
7
100
AcDbLine
 10
6.849481
 20
121.544116
 30
0.0
 11
6.849481
 21
119.675800
 31
0.0
  0
LINE
  5
211
100
AcDbEntity
  8
text
 62
7
100
AcDbLine
 10
6.849481
 20
121.544116
 30
0.0
 11
8.096906
 21
119.675800
 31
0.0
  0
LINE
  5
212
100
AcDbEntity
  8
text
 62
7
100
AcDbLine
 10
8.096906
 20
121.544116
 30
0.0
 11
8.096906
 21
119.675800
 31
0.0
  0
LINE
  5
213
100
AcDbEntity
  8
text
 62
7
100
AcDbLine
 10
8.540001
 20
121.544116
 30
0.0
 11
9.251203
 21
119.675800
 31
0.0
  0
LINE
  5
214
100
AcDbEntity
  8
text
 62
7
100
AcDbLine
 10
9.962405
 20
121.544116
 30
0.0
 11
9.251203
 21
119.675800
 31
0.0
  0
LINE
  5
215
100
AcDbEntity
  8
text
 62
7
100
AcDbLine
 10
10.405491
 20
121.544116
 30
0.0
 11
10.405491
 21
119.675800
 31
0.0
  0
LINE
  5
216
100
AcDbEntity
  8
text
 62
7
100
AcDbLine
 10
10.405491
 20
121.544116
 30
0.0
 11
11.562605
 21
121.544116
 31
0.0
  0
LINE
  5
217
100
AcDbEntity
  8
text
 62
7
100
AcDbLine
 10
10.405491
 20
120.652292
 30
0.0
 11
11.116693
 21
120.652292
 31
0.0
  0
LINE
  5
218
100
AcDbEntity
  8
text
 62
7
100
AcDbLine
 10
10.405491
 20
119.675800
 30
0.0
 11
11.562605
 21
119.675800
 31
0.0
  0
LINE
  5
219
100
AcDbEntity
  8
text
 62
7
100
AcDbLine
 10
12.093191
 20
121.544116
 30
0.0
 11
12.093191
 21
119.675800
 31
0.0
  0
LINE
  5
21a
100
AcDbEntity
  8
text
 62
7
100
AcDbLine
 10
12.093191
 20
119.675800
 30
0.0
 11
13.159994
 21
119.675800
 31
0.0
  0
LINE
  5
21b
100
AcDbEntity
  8
text
 62
7
100
AcDbLine
 10
14.051813
 20
121.544116
 30
0.0
 11
13.874012
 21
121.453805
 31
0.0
  0
LINE
  5
21c
100
AcDbEntity
  8
text
 62
7
100
AcDbLine
 10
13.874012
 20
121.453805
 30
0.0
 11
13.696212
 21
121.276004
 31
0.0
  0
LINE
  5
21d
100
AcDbEntity
  8
text
 62
7
100
AcDbLine
 10
13.696212
 20
121.276004
 30
0.0
 11
13.605901
 21
121.098204
 31
0.0
  0
LINE
  5
21e
100
AcDbEntity
  8
text
 62
7
100
AcDbLine
 10
13.605901
 20
121.098204
 30
0.0
 11
13.518411
 21
120.832914
 31
0.0
  0
LINE
  5
21f
100
AcDbEntity
  8
text
 62
7
100
AcDbLine
 10
13.518411
 20
120.832914
 30
0.0
 11
13.518411
 21
120.387002
 31
0.0
  0
LINE
  5
220
100
AcDbEntity
  8
text
 62
7
100
AcDbLine
 10
13.518411
 20
120.387002
 30
0.0
 11
13.605901
 21
120.121712
 31
0.0
  0
LINE
  5
221
100
AcDbEntity
  8
text
 62
7
100
AcDbLine
 10
13.605901
 20
120.121712
 30
0.0
 11
13.696212
 21
119.942501
 31
0.0
  0
LINE
  5
222
100
AcDbEntity
  8
text
 62
7
100
AcDbLine
 10
13.696212
 20
119.942501
 30
0.0
 11
13.874012
 21
119.764700
 31
0.0
  0
LINE
  5
223
100
AcDbEntity
  8
text
 62
7
100
AcDbLine
 10
13.874012
 20
119.764700
 30
0.0
 11
14.051813
 21
119.675800
 31
0.0
  0
LINE
  5
224
100
AcDbEntity
  8
text
 62
7
100
AcDbLine
 10
14.051813
 20
119.675800
 30
0.0
 11
14.407414
 21
119.675800
 31
0.0
  0
LINE
  5
225
100
AcDbEntity
  8
text
 62
7
100
AcDbLine
 10
14.407414
 20
119.675800
 30
0.0
 11
14.585214
 21
119.764700
 31
0.0
  0
LINE
  5
226
100
AcDbEntity
  8
text
 62
7
100
AcDbLine
 10
14.585214
 20
119.764700
 30
0.0
 11
14.763015
 21
119.942501
 31
0.0
  0
LINE
  5
227
100
AcDbEntity
  8
text
 62
7
100
AcDbLine
 10
14.763015
 20
119.942501
 30
0.0
 11
14.853326
 21
120.121712
 31
0.0
  0
LINE
  5
228
100
AcDbEntity
  8
text
 62
7
100
AcDbLine
 10
14.853326
 20
120.121712
 30
0.0
 11
14.940815
 21
120.387002
 31
0.0
  0
LINE
  5
229
100
AcDbEntity
  8
text
 62
7
100
AcDbLine
 10
14.940815
 20
120.387002
 30
0.0
 11
14.940815
 21
120.832914
 31
0.0
  0
LINE
  5
22a
100
AcDbEntity
  8
text
 62
7
100
AcDbLine
 10
14.940815
 20
120.832914
 30
0.0
 11
14.853326
 21
121.098204
 31
0.0
  0
LINE
  5
22b
100
AcDbEntity
  8
text
 62
7
100
AcDbLine
 10
14.853326
 20
121.098204
 30
0.0
 11
14.763015
 21
121.276004
 31
0.0
  0
LINE
  5
22c
100
AcDbEntity
  8
text
 62
7
100
AcDbLine
 10
14.763015
 20
121.276004
 30
0.0
 11
14.585214
 21
121.453805
 31
0.0
  0
LINE
  5
22d
100
AcDbEntity
  8
text
 62
7
100
AcDbLine
 10
14.585214
 20
121.453805
 30
0.0
 11
14.407414
 21
121.544116
 31
0.0
  0
LINE
  5
22e
100
AcDbEntity
  8
text
 62
7
100
AcDbLine
 10
14.407414
 20
121.544116
 30
0.0
 11
14.051813
 21
121.544116
 31
0.0
  0
LINE
  5
22f
100
AcDbEntity
  8
text
 62
7
100
AcDbLine
 10
15.561691
 20
121.544116
 30
0.0
 11
15.561691
 21
119.675800
 31
0.0
  0
LINE
  5
230
100
AcDbEntity
  8
text
 62
7
100
AcDbLine
 10
15.561691
 20
121.544116
 30
0.0
 11
16.363204
 21
121.544116
 31
0.0
  0
LINE
  5
231
100
AcDbEntity
  8
text
 62
7
100
AcDbLine
 10
16.363204
 20
121.544116
 30
0.0
 11
16.628494
 21
121.453805
 31
0.0
  0
LINE
  5
232
100
AcDbEntity
  8
text
 62
7
100
AcDbLine
 10
16.628494
 20
121.453805
 30
0.0
 11
16.718805
 21
121.363494
 31
0.0
  0
LINE
  5
233
100
AcDbEntity
  8
text
 62
7
100
AcDbLine
 10
16.718805
 20
121.363494
 30
0.0
 11
16.809116
 21
121.188515
 31
0.0
  0
LINE
  5
234
100
AcDbEntity
  8
text
 62
7
100
AcDbLine
 10
16.809116
 20
121.188515
 30
0.0
 11
16.809116
 21
120.920403
 31
0.0
  0
LINE
  5
235
100
AcDbEntity
  8
text
 62
7
100
AcDbLine
 10
16.809116
 20
120.920403
 30
0.0
 11
16.718805
 21
120.742603
 31
0.0
  0
LINE
  5
236
100
AcDbEntity
  8
text
 62
7
100
AcDbLine
 10
16.718805
 20
120.742603
 30
0.0
 11
16.628494
 21
120.652292
 31
0.0
  0
LINE
  5
237
100
AcDbEntity
  8
text
 62
7
100
AcDbLine
 10
16.628494
 20
120.652292
 30
0.0
 11
16.363204
 21
120.564802
 31
0.0
  0
LINE
  5
238
100
AcDbEntity
  8
text
 62
7
100
AcDbLine
 10
16.363204
 20
120.564802
 30
0.0
 11
15.561691
 21
120.564802
 31
0.0
  0
LINE
  5
239
100
AcDbEntity
  8
text
 62
7
100
AcDbLine
 10
17.429991
 20
121.544116
 30
0.0
 11
17.429991
 21
119.675800
 31
0.0
  0
LINE
  5
23a
100
AcDbEntity
  8
text
 62
7
100
AcDbLine
 10
17.429991
 20
121.544116
 30
0.0
 11
18.587105
 21
121.544116
 31
0.0
  0
LINE
  5
23b
100
AcDbEntity
  8
text
 62
7
100
AcDbLine
 10
17.429991
 20
120.652292
 30
0.0
 11
18.141193
 21
120.652292
 31
0.0
  0
LINE
  5
23c
100
AcDbEntity
  8
text
 62
7
100
AcDbLine
 10
17.429991
 20
119.675800
 30
0.0
 11
18.587105
 21
119.675800
 31
0.0
  0
LINE
  5
23d
100
AcDbEntity
  8
text
 62
7
100
AcDbLine
 10
21.431916
 20
121.098204
 30
0.0
 11
21.341605
 21
121.276004
 31
0.0
  0
LINE
  5
23e
100
AcDbEntity
  8
text
 62
7
100
AcDbLine
 10
21.341605
 20
121.276004
 30
0.0
 11
21.163804
 21
121.453805
 31
0.0
  0
LINE
  5
23f
100
AcDbEntity
  8
text
 62
7
100
AcDbLine
 10
21.163804
 20
121.453805
 30
0.0
 11
20.986004
 21
121.544116
 31
0.0
  0
LINE
  5
240
100
AcDbEntity
  8
text
 62
7
100
AcDbLine
 10
20.986004
 20
121.544116
 30
0.0
 11
20.630403
 21
121.544116
 31
0.0
  0
LINE
  5
241
100
AcDbEntity
  8
text
 62
7
100
AcDbLine
 10
20.630403
 20
121.544116
 30
0.0
 11
20.452602
 21
121.453805
 31
0.0
  0
LINE
  5
242
100
AcDbEntity
  8
text
 62
7
100
AcDbLine
 10
20.452602
 20
121.453805
 30
0.0
 11
20.274802
 21
121.276004
 31
0.0
  0
LINE
  5
243
100
AcDbEntity
  8
text
 62
7
100
AcDbLine
 10
20.274802
 20
121.276004
 30
0.0
 11
20.184491
 21
121.098204
 31
0.0
  0
LINE
  5
244
100
AcDbEntity
  8
text
 62
7
100
AcDbLine
 10
20.184491
 20
121.098204
 30
0.0
 11
20.097001
 21
120.832914
 31
0.0
  0
LINE
  5
245
100
AcDbEntity
  8
text
 62
7
100
AcDbLine
 10
20.097001
 20
120.832914
 30
0.0
 11
20.097001
 21
120.387002
 31
0.0
  0
LINE
  5
246
100
AcDbEntity
  8
text
 62
7
100
AcDbLine
 10
20.097001
 20
120.387002
 30
0.0
 11
20.184491
 21
120.121712
 31
0.0
  0
LINE
  5
247
100
AcDbEntity
  8
text
 62
7
100
AcDbLine
 10
20.184491
 20
120.121712
 30
0.0
 11
20.274802
 21
119.942501
 31
0.0
  0
LINE
  5
248
100
AcDbEntity
  8
text
 62
7
100
AcDbLine
 10
20.274802
 20
119.942501
 30
0.0
 11
20.452602
 21
119.764700
 31
0.0
  0
LINE
  5
249
100
AcDbEntity
  8
text
 62
7
100
AcDbLine
 10
20.452602
 20
119.764700
 30
0.0
 11
20.630403
 21
119.675800
 31
0.0
  0
LINE
  5
24a
100
AcDbEntity
  8
text
 62
7
100
AcDbLine
 10
20.630403
 20
119.675800
 30
0.0
 11
20.986004
 21
119.675800
 31
0.0
  0
LINE
  5
24b
100
AcDbEntity
  8
text
 62
7
100
AcDbLine
 10
20.986004
 20
119.675800
 30
0.0
 11
21.163804
 21
119.764700
 31
0.0
  0
LINE
  5
24c
100
AcDbEntity
  8
text
 62
7
100
AcDbLine
 10
21.163804
 20
119.764700
 30
0.0
 11
21.341605
 21
119.942501
 31
0.0
  0
LINE
  5
24d
100
AcDbEntity
  8
text
 62
7
100
AcDbLine
 10
21.341605
 20
119.942501
 30
0.0
 11
21.431916
 21
120.121712
 31
0.0
  0
LINE
  5
24e
100
AcDbEntity
  8
text
 62
7
100
AcDbLine
 10
21.431916
 20
120.121712
 30
0.0
 11
21.431916
 21
120.387002
 31
0.0
  0
LINE
  5
24f
100
AcDbEntity
  8
text
 62
7
100
AcDbLine
 10
20.986004
 20
120.387002
 30
0.0
 11
21.431916
 21
120.387002
 31
0.0
  0
LINE
  5
250
100
AcDbEntity
  8
text
 62
7
100
AcDbLine
 10
22.052791
 20
121.544116
 30
0.0
 11
22.052791
 21
119.675800
 31
0.0
  0
LINE
  5
251
100
AcDbEntity
  8
text
 62
7
100
AcDbLine
 10
22.052791
 20
121.544116
 30
0.0
 11
23.209905
 21
121.544116
 31
0.0
  0
LINE
  5
252
100
AcDbEntity
  8
text
 62
7
100
AcDbLine
 10
22.052791
 20
120.652292
 30
0.0
 11
22.763993
 21
120.652292
 31
0.0
  0
LINE
  5
253
100
AcDbEntity
  8
text
 62
7
100
AcDbLine
 10
22.052791
 20
119.675800
 30
0.0
 11
23.209905
 21
119.675800
 31
0.0
  0
LINE
  5
254
100
AcDbEntity
  8
text
 62
7
100
AcDbLine
 10
23.740491
 20
121.544116
 30
0.0
 11
23.740491
 21
119.675800
 31
0.0
  0
LINE
  5
255
100
AcDbEntity
  8
text
 62
7
100
AcDbLine
 10
23.740491
 20
121.544116
 30
0.0
 11
24.987916
 21
119.675800
 31
0.0
  0
LINE
  5
256
100
AcDbEntity
  8
text
 62
7
100
AcDbLine
 10
24.987916
 20
121.544116
 30
0.0
 11
24.987916
 21
119.675800
 31
0.0
  0
LINE
  5
257
100
AcDbEntity
  8
text
 62
7
100
AcDbLine
 10
25.696291
 20
121.544116
 30
0.0
 11
25.696291
 21
119.675800
 31
0.0
  0
LINE
  5
258
100
AcDbEntity
  8
text
 62
7
100
AcDbLine
 10
25.696291
 20
121.544116
 30
0.0
 11
26.853405
 21
121.544116
 31
0.0
  0
LINE
  5
259
100
AcDbEntity
  8
text
 62
7
100
AcDbLine
 10
25.696291
 20
120.652292
 30
0.0
 11
26.407493
 21
120.652292
 31
0.0
  0
LINE
  5
25a
100
AcDbEntity
  8
text
 62
7
100
AcDbLine
 10
25.696291
 20
119.675800
 30
0.0
 11
26.853405
 21
119.675800
 31
0.0
  0
LINE
  5
25b
100
AcDbEntity
  8
text
 62
7
100
AcDbLine
 10
27.383991
 20
121.544116
 30
0.0
 11
27.383991
 21
119.675800
 31
0.0
  0
LINE
  5
25c
100
AcDbEntity
  8
text
 62
7
100
AcDbLine
 10
27.383991
 20
121.544116
 30
0.0
 11
28.185504
 21
121.544116
 31
0.0
  0
LINE
  5
25d
100
AcDbEntity
  8
text
 62
7
100
AcDbLine
 10
28.185504
 20
121.544116
 30
0.0
 11
28.450794
 21
121.453805
 31
0.0
  0
LINE
  5
25e
100
AcDbEntity
  8
text
 62
7
100
AcDbLine
 10
28.450794
 20
121.453805
 30
0.0
 11
28.541105
 21
121.363494
 31
0.0
  0
LINE
  5
25f
100
AcDbEntity
  8
text
 62
7
100
AcDbLine
 10
28.541105
 20
121.363494
 30
0.0
 11
28.631416
 21
121.188515
 31
0.0
  0
LINE
  5
260
100
AcDbEntity
  8
text
 62
7
100
AcDbLine
 10
28.631416
 20
121.188515
 30
0.0
 11
28.631416
 21
121.007893
 31
0.0
  0
LINE
  5
261
100
AcDbEntity
  8
text
 62
7
100
AcDbLine
 10
28.631416
 20
121.007893
 30
0.0
 11
28.541105
 21
120.832914
 31
0.0
  0
LINE
  5
262
100
AcDbEntity
  8
text
 62
7
100
AcDbLine
 10
28.541105
 20
120.832914
 30
0.0
 11
28.450794
 21
120.742603
 31
0.0
  0
LINE
  5
263
100
AcDbEntity
  8
text
 62
7
100
AcDbLine
 10
28.450794
 20
120.742603
 30
0.0
 11
28.185504
 21
120.652292
 31
0.0
  0
LINE
  5
264
100
AcDbEntity
  8
text
 62
7
100
AcDbLine
 10
28.185504
 20
120.652292
 30
0.0
 11
27.383991
 21
120.652292
 31
0.0
  0
LINE
  5
265
100
AcDbEntity
  8
text
 62
7
100
AcDbLine
 10
28.007703
 20
120.652292
 30
0.0
 11
28.631416
 21
119.675800
 31
0.0
  0
LINE
  5
266
100
AcDbEntity
  8
text
 62
7
100
AcDbLine
 10
29.698303
 20
121.544116
 30
0.0
 11
28.987101
 21
119.675800
 31
0.0
  0
LINE
  5
267
100
AcDbEntity
  8
text
 62
7
100
AcDbLine
 10
29.698303
 20
121.544116
 30
0.0
 11
30.409505
 21
119.675800
 31
0.0
  0
LINE
  5
268
100
AcDbEntity
  8
text
 62
7
100
AcDbLine
 10
29.252391
 20
120.296691
 30
0.0
 11
30.144215
 21
120.296691
 31
0.0
  0
LINE
  5
269
100
AcDbEntity
  8
text
 62
7
100
AcDbLine
 10
31.208192
 20
121.544116
 30
0.0
 11
31.208192
 21
119.675800
 31
0.0
  0
LINE
  5
26a
100
AcDbEntity
  8
text
 62
7
100
AcDbLine
 10
30.587301
 20
121.544116
 30
0.0
 11
31.831904
 21
121.544116
 31
0.0
  0
LINE
  5
26b
100
AcDbEntity
  8
text
 62
7
100
AcDbLine
 10
32.720903
 20
121.544116
 30
0.0
 11
32.543102
 21
121.453805
 31
0.0
  0
LINE
  5
26c
100
AcDbEntity
  8
text
 62
7
100
AcDbLine
 10
32.543102
 20
121.453805
 30
0.0
 11
32.365302
 21
121.276004
 31
0.0
  0
LINE
  5
26d
100
AcDbEntity
  8
text
 62
7
100
AcDbLine
 10
32.365302
 20
121.276004
 30
0.0
 11
32.274991
 21
121.098204
 31
0.0
  0
LINE
  5
26e
100
AcDbEntity
  8
text
 62
7
100
AcDbLine
 10
32.274991
 20
121.098204
 30
0.0
 11
32.187501
 21
120.832914
 31
0.0
  0
LINE
  5
26f
100
AcDbEntity
  8
text
 62
7
100
AcDbLine
 10
32.187501
 20
120.832914
 30
0.0
 11
32.187501
 21
120.387002
 31
0.0
  0
LINE
  5
270
100
AcDbEntity
  8
text
 62
7
100
AcDbLine
 10
32.187501
 20
120.387002
 30
0.0
 11
32.274991
 21
120.121712
 31
0.0
  0
LINE
  5
271
100
AcDbEntity
  8
text
 62
7
100
AcDbLine
 10
32.274991
 20
120.121712
 30
0.0
 11
32.365302
 21
119.942501
 31
0.0
  0
LINE
  5
272
100
AcDbEntity
  8
text
 62
7
100
AcDbLine
 10
32.365302
 20
119.942501
 30
0.0
 11
32.543102
 21
119.764700
 31
0.0
  0
LINE
  5
273
100
AcDbEntity
  8
text
 62
7
100
AcDbLine
 10
32.543102
 20
119.764700
 30
0.0
 11
32.720903
 21
119.675800
 31
0.0
  0
LINE
  5
274
100
AcDbEntity
  8
text
 62
7
100
AcDbLine
 10
32.720903
 20
119.675800
 30
0.0
 11
33.076504
 21
119.675800
 31
0.0
  0
LINE
  5
275
100
AcDbEntity
  8
text
 62
7
100
AcDbLine
 10
33.076504
 20
119.675800
 30
0.0
 11
33.254304
 21
119.764700
 31
0.0
  0
LINE
  5
276
100
AcDbEntity
  8
text
 62
7
100
AcDbLine
 10
33.254304
 20
119.764700
 30
0.0
 11
33.432105
 21
119.942501
 31
0.0
  0
LINE
  5
277
100
AcDbEntity
  8
text
 62
7
100
AcDbLine
 10
33.432105
 20
119.942501
 30
0.0
 11
33.522416
 21
120.121712
 31
0.0
  0
LINE
  5
278
100
AcDbEntity
  8
text
 62
7
100
AcDbLine
 10
33.522416
 20
120.121712
 30
0.0
 11
33.609905
 21
120.387002
 31
0.0
  0
LINE
  5
279
100
AcDbEntity
  8
text
 62
7
100
AcDbLine
 10
33.609905
 20
120.387002
 30
0.0
 11
33.609905
 21
120.832914
 31
0.0
  0
LINE
  5
27a
100
AcDbEntity
  8
text
 62
7
100
AcDbLine
 10
33.609905
 20
120.832914
 30
0.0
 11
33.522416
 21
121.098204
 31
0.0
  0
LINE
  5
27b
100
AcDbEntity
  8
text
 62
7
100
AcDbLine
 10
33.522416
 20
121.098204
 30
0.0
 11
33.432105
 21
121.276004
 31
0.0
  0
LINE
  5
27c
100
AcDbEntity
  8
text
 62
7
100
AcDbLine
 10
33.432105
 20
121.276004
 30
0.0
 11
33.254304
 21
121.453805
 31
0.0
  0
LINE
  5
27d
100
AcDbEntity
  8
text
 62
7
100
AcDbLine
 10
33.254304
 20
121.453805
 30
0.0
 11
33.076504
 21
121.544116
 31
0.0
  0
LINE
  5
27e
100
AcDbEntity
  8
text
 62
7
100
AcDbLine
 10
33.076504
 20
121.544116
 30
0.0
 11
32.720903
 21
121.544116
 31
0.0
  0
LINE
  5
27f
100
AcDbEntity
  8
text
 62
7
100
AcDbLine
 10
34.230791
 20
121.544116
 30
0.0
 11
34.230791
 21
119.675800
 31
0.0
  0
LINE
  5
280
100
AcDbEntity
  8
text
 62
7
100
AcDbLine
 10
34.230791
 20
121.544116
 30
0.0
 11
35.032304
 21
121.544116
 31
0.0
  0
LINE
  5
281
100
AcDbEntity
  8
text
 62
7
100
AcDbLine
 10
35.032304
 20
121.544116
 30
0.0
 11
35.297594
 21
121.453805
 31
0.0
  0
LINE
  5
282
100
AcDbEntity
  8
text
 62
7
100
AcDbLine
 10
35.297594
 20
121.453805
 30
0.0
 11
35.387905
 21
121.363494
 31
0.0
  0
LINE
  5
283
100
AcDbEntity
  8
text
 62
7
100
AcDbLine
 10
35.387905
 20
121.363494
 30
0.0
 11
35.478216
 21
121.188515
 31
0.0
  0
LINE
  5
284
100
AcDbEntity
  8
text
 62
7
100
AcDbLine
 10
35.478216
 20
121.188515
 30
0.0
 11
35.478216
 21
121.007893
 31
0.0
  0
LINE
  5
285
100
AcDbEntity
  8
text
 62
7
100
AcDbLine
 10
35.478216
 20
121.007893
 30
0.0
 11
35.387905
 21
120.832914
 31
0.0
  0
LINE
  5
286
100
AcDbEntity
  8
text
 62
7
100
AcDbLine
 10
35.387905
 20
120.832914
 30
0.0
 11
35.297594
 21
120.742603
 31
0.0
  0
LINE
  5
287
100
AcDbEntity
  8
text
 62
7
100
AcDbLine
 10
35.297594
 20
120.742603
 30
0.0
 11
35.032304
 21
120.652292
 31
0.0
  0
LINE
  5
288
100
AcDbEntity
  8
text
 62
7
100
AcDbLine
 10
35.032304
 20
120.652292
 30
0.0
 11
34.230791
 21
120.652292
 31
0.0
  0
LINE
  5
289
100
AcDbEntity
  8
text
 62
7
100
AcDbLine
 10
34.854503
 20
120.652292
 30
0.0
 11
35.478216
 21
119.675800
 31
0.0
  0
LINE
  5
28a
100
AcDbEntity
  8
text
 62
7
100
AcDbLine
 10
2.556436
 20
37.987522
 30
0.0
 11
2.014449
 21
36.563728
 31
0.0
  0
LINE
  5
28b
100
AcDbEntity
  8
text
 62
7
100
AcDbLine
 10
2.556436
 20
37.987522
 30
0.0
 11
3.098424
 21
36.563728
 31
0.0
  0
LINE
  5
28c
100
AcDbEntity
  8
text
 62
7
100
AcDbLine
 10
2.216619
 20
37.036892
 30
0.0
 11
2.896254
 21
37.036892
 31
0.0
  0
LINE
  5
28d
100
AcDbEntity
  8
text
 62
7
100
AcDbLine
 10
3.707082
 20
37.987522
 30
0.0
 11
3.707082
 21
36.563728
 31
0.0
  0
LINE
  5
28e
100
AcDbEntity
  8
text
 62
7
100
AcDbLine
 10
3.233918
 20
37.987522
 30
0.0
 11
4.182396
 21
37.987522
 31
0.0
  0
LINE
  5
28f
100
AcDbEntity
  8
text
 62
7
100
AcDbLine
 10
4.791062
 20
37.987522
 30
0.0
 11
4.791062
 21
36.563728
 31
0.0
  0
LINE
  5
290
100
AcDbEntity
  8
text
 62
7
100
AcDbLine
 10
4.317898
 20
37.987522
 30
0.0
 11
5.266377
 21
37.987522
 31
0.0
  0
LINE
  5
291
100
AcDbEntity
  8
text
 62
7
100
AcDbLine
 10
5.943858
 20
37.987522
 30
0.0
 11
5.401871
 21
36.563728
 31
0.0
  0
LINE
  5
292
100
AcDbEntity
  8
text
 62
7
100
AcDbLine
 10
5.943858
 20
37.987522
 30
0.0
 11
6.485846
 21
36.563728
 31
0.0
  0
LINE
  5
293
100
AcDbEntity
  8
text
 62
7
100
AcDbLine
 10
5.604041
 20
37.036892
 30
0.0
 11
6.283676
 21
37.036892
 31
0.0
  0
LINE
  5
294
100
AcDbEntity
  8
text
 62
7
100
AcDbLine
 10
7.774147
 20
37.647704
 30
0.0
 11
7.705323
 21
37.783201
 31
0.0
  0
LINE
  5
295
100
AcDbEntity
  8
text
 62
7
100
AcDbLine
 10
7.705323
 20
37.783201
 30
0.0
 11
7.569826
 21
37.918698
 31
0.0
  0
LINE
  5
296
100
AcDbEntity
  8
text
 62
7
100
AcDbLine
 10
7.569826
 20
37.918698
 30
0.0
 11
7.434329
 21
37.987522
 31
0.0
  0
LINE
  5
297
100
AcDbEntity
  8
text
 62
7
100
AcDbLine
 10
7.434329
 20
37.987522
 30
0.0
 11
7.163335
 21
37.987522
 31
0.0
  0
LINE
  5
298
100
AcDbEntity
  8
text
 62
7
100
AcDbLine
 10
7.163335
 20
37.987522
 30
0.0
 11
7.027838
 21
37.918698
 31
0.0
  0
LINE
  5
299
100
AcDbEntity
  8
text
 62
7
100
AcDbLine
 10
7.027838
 20
37.918698
 30
0.0
 11
6.892341
 21
37.783201
 31
0.0
  0
LINE
  5
29a
100
AcDbEntity
  8
text
 62
7
100
AcDbLine
 10
6.892341
 20
37.783201
 30
0.0
 11
6.823518
 21
37.647704
 31
0.0
  0
LINE
  5
29b
100
AcDbEntity
  8
text
 62
7
100
AcDbLine
 10
6.823518
 20
37.647704
 30
0.0
 11
6.756844
 21
37.445534
 31
0.0
  0
LINE
  5
29c
100
AcDbEntity
  8
text
 62
7
100
AcDbLine
 10
6.756844
 20
37.445534
 30
0.0
 11
6.756844
 21
37.105716
 31
0.0
  0
LINE
  5
29d
100
AcDbEntity
  8
text
 62
7
100
AcDbLine
 10
6.756844
 20
37.105716
 30
0.0
 11
6.823518
 21
36.903546
 31
0.0
  0
LINE
  5
29e
100
AcDbEntity
  8
text
 62
7
100
AcDbLine
 10
6.823518
 20
36.903546
 30
0.0
 11
6.892341
 21
36.766974
 31
0.0
  0
LINE
  5
29f
100
AcDbEntity
  8
text
 62
7
100
AcDbLine
 10
6.892341
 20
36.766974
 30
0.0
 11
7.027838
 21
36.631477
 31
0.0
  0
LINE
  5
2a0
100
AcDbEntity
  8
text
 62
7
100
AcDbLine
 10
7.027838
 20
36.631477
 30
0.0
 11
7.163335
 21
36.563728
 31
0.0
  0
LINE
  5
2a1
100
AcDbEntity
  8
text
 62
7
100
AcDbLine
 10
7.163335
 20
36.563728
 30
0.0
 11
7.434329
 21
36.563728
 31
0.0
  0
LINE
  5
2a2
100
AcDbEntity
  8
text
 62
7
100
AcDbLine
 10
7.434329
 20
36.563728
 30
0.0
 11
7.569826
 21
36.631477
 31
0.0
  0
LINE
  5
2a3
100
AcDbEntity
  8
text
 62
7
100
AcDbLine
 10
7.569826
 20
36.631477
 30
0.0
 11
7.705323
 21
36.766974
 31
0.0
  0
LINE
  5
2a4
100
AcDbEntity
  8
text
 62
7
100
AcDbLine
 10
7.705323
 20
36.766974
 30
0.0
 11
7.774147
 21
36.903546
 31
0.0
  0
LINE
  5
2a5
100
AcDbEntity
  8
text
 62
7
100
AcDbLine
 10
8.247306
 20
37.987522
 30
0.0
 11
8.247306
 21
36.563728
 31
0.0
  0
LINE
  5
2a6
100
AcDbEntity
  8
text
 62
7
100
AcDbLine
 10
9.197936
 20
37.987522
 30
0.0
 11
8.247306
 21
37.036892
 31
0.0
  0
LINE
  5
2a7
100
AcDbEntity
  8
text
 62
7
100
AcDbLine
 10
8.587124
 20
37.376710
 30
0.0
 11
9.197936
 21
36.563728
 31
0.0
  0
LINE
  5
2a8
100
AcDbEntity
  8
text
 62
7
100
AcDbLine
 10
12.298525
 20
37.987557
 30
0.0
 11
12.298525
 21
36.563763
 31
0.0
  0
LINE
  5
2a9
100
AcDbEntity
  8
text
 62
7
100
AcDbLine
 10
12.298525
 20
37.987557
 30
0.0
 11
12.773839
 21
37.987557
 31
0.0
  0
LINE
  5
2aa
100
AcDbEntity
  8
text
 62
7
100
AcDbLine
 10
12.773839
 20
37.987557
 30
0.0
 11
12.978160
 21
37.918733
 31
0.0
  0
LINE
  5
2ab
100
AcDbEntity
  8
text
 62
7
100
AcDbLine
 10
12.978160
 20
37.918733
 30
0.0
 11
13.111506
 21
37.783236
 31
0.0
  0
LINE
  5
2ac
100
AcDbEntity
  8
text
 62
7
100
AcDbLine
 10
13.111506
 20
37.783236
 30
0.0
 11
13.180330
 21
37.647739
 31
0.0
  0
LINE
  5
2ad
100
AcDbEntity
  8
text
 62
7
100
AcDbLine
 10
13.180330
 20
37.647739
 30
0.0
 11
13.249154
 21
37.445569
 31
0.0
  0
LINE
  5
2ae
100
AcDbEntity
  8
text
 62
7
100
AcDbLine
 10
13.249154
 20
37.445569
 30
0.0
 11
13.249154
 21
37.105751
 31
0.0
  0
LINE
  5
2af
100
AcDbEntity
  8
text
 62
7
100
AcDbLine
 10
13.249154
 20
37.105751
 30
0.0
 11
13.180330
 21
36.903581
 31
0.0
  0
LINE
  5
2b0
100
AcDbEntity
  8
text
 62
7
100
AcDbLine
 10
13.180330
 20
36.903581
 30
0.0
 11
13.111506
 21
36.767009
 31
0.0
  0
LINE
  5
2b1
100
AcDbEntity
  8
text
 62
7
100
AcDbLine
 10
13.111506
 20
36.767009
 30
0.0
 11
12.978160
 21
36.631512
 31
0.0
  0
LINE
  5
2b2
100
AcDbEntity
  8
text
 62
7
100
AcDbLine
 10
12.978160
 20
36.631512
 30
0.0
 11
12.773839
 21
36.563763
 31
0.0
  0
LINE
  5
2b3
100
AcDbEntity
  8
text
 62
7
100
AcDbLine
 10
12.773839
 20
36.563763
 30
0.0
 11
12.298525
 21
36.563763
 31
0.0
  0
LINE
  5
2b4
100
AcDbEntity
  8
text
 62
7
100
AcDbLine
 10
13.722321
 20
37.987557
 30
0.0
 11
13.722321
 21
36.563763
 31
0.0
  0
LINE
  5
2b5
100
AcDbEntity
  8
text
 62
7
100
AcDbLine
 10
13.722321
 20
37.987557
 30
0.0
 11
14.604126
 21
37.987557
 31
0.0
  0
LINE
  5
2b6
100
AcDbEntity
  8
text
 62
7
100
AcDbLine
 10
13.722321
 20
37.307921
 30
0.0
 11
14.264309
 21
37.307921
 31
0.0
  0
LINE
  5
2b7
100
AcDbEntity
  8
text
 62
7
100
AcDbLine
 10
13.722321
 20
36.563763
 30
0.0
 11
14.604126
 21
36.563763
 31
0.0
  0
LINE
  5
2b8
100
AcDbEntity
  8
text
 62
7
100
AcDbLine
 10
15.959093
 20
37.647739
 30
0.0
 11
15.890269
 21
37.783236
 31
0.0
  0
LINE
  5
2b9
100
AcDbEntity
  8
text
 62
7
100
AcDbLine
 10
15.890269
 20
37.783236
 30
0.0
 11
15.754773
 21
37.918733
 31
0.0
  0
LINE
  5
2ba
100
AcDbEntity
  8
text
 62
7
100
AcDbLine
 10
15.754773
 20
37.918733
 30
0.0
 11
15.619276
 21
37.987557
 31
0.0
  0
LINE
  5
2bb
100
AcDbEntity
  8
text
 62
7
100
AcDbLine
 10
15.619276
 20
37.987557
 30
0.0
 11
15.348282
 21
37.987557
 31
0.0
  0
LINE
  5
2bc
100
AcDbEntity
  8
text
 62
7
100
AcDbLine
 10
15.348282
 20
37.987557
 30
0.0
 11
15.212785
 21
37.918733
 31
0.0
  0
LINE
  5
2bd
100
AcDbEntity
  8
text
 62
7
100
AcDbLine
 10
15.212785
 20
37.918733
 30
0.0
 11
15.077288
 21
37.783236
 31
0.0
  0
LINE
  5
2be
100
AcDbEntity
  8
text
 62
7
100
AcDbLine
 10
15.077288
 20
37.783236
 30
0.0
 11
15.008464
 21
37.647739
 31
0.0
  0
LINE
  5
2bf
100
AcDbEntity
  8
text
 62
7
100
AcDbLine
 10
15.008464
 20
37.647739
 30
0.0
 11
14.941791
 21
37.445569
 31
0.0
  0
LINE
  5
2c0
100
AcDbEntity
  8
text
 62
7
100
AcDbLine
 10
14.941791
 20
37.445569
 30
0.0
 11
14.941791
 21
37.105751
 31
0.0
  0
LINE
  5
2c1
100
AcDbEntity
  8
text
 62
7
100
AcDbLine
 10
14.941791
 20
37.105751
 30
0.0
 11
15.008464
 21
36.903581
 31
0.0
  0
LINE
  5
2c2
100
AcDbEntity
  8
text
 62
7
100
AcDbLine
 10
15.008464
 20
36.903581
 30
0.0
 11
15.077288
 21
36.767009
 31
0.0
  0
LINE
  5
2c3
100
AcDbEntity
  8
text
 62
7
100
AcDbLine
 10
15.077288
 20
36.767009
 30
0.0
 11
15.212785
 21
36.631512
 31
0.0
  0
LINE
  5
2c4
100
AcDbEntity
  8
text
 62
7
100
AcDbLine
 10
15.212785
 20
36.631512
 30
0.0
 11
15.348282
 21
36.563763
 31
0.0
  0
LINE
  5
2c5
100
AcDbEntity
  8
text
 62
7
100
AcDbLine
 10
15.348282
 20
36.563763
 30
0.0
 11
15.619276
 21
36.563763
 31
0.0
  0
LINE
  5
2c6
100
AcDbEntity
  8
text
 62
7
100
AcDbLine
 10
15.619276
 20
36.563763
 30
0.0
 11
15.754773
 21
36.631512
 31
0.0
  0
LINE
  5
2c7
100
AcDbEntity
  8
text
 62
7
100
AcDbLine
 10
15.754773
 20
36.631512
 30
0.0
 11
15.890269
 21
36.767009
 31
0.0
  0
LINE
  5
2c8
100
AcDbEntity
  8
text
 62
7
100
AcDbLine
 10
15.890269
 20
36.767009
 30
0.0
 11
15.959093
 21
36.903581
 31
0.0
  0
LINE
  5
2c9
100
AcDbEntity
  8
text
 62
7
100
AcDbLine
 10
16.772078
 20
37.987557
 30
0.0
 11
16.230090
 21
36.563763
 31
0.0
  0
LINE
  5
2ca
100
AcDbEntity
  8
text
 62
7
100
AcDbLine
 10
16.772078
 20
37.987557
 30
0.0
 11
17.314066
 21
36.563763
 31
0.0
  0
LINE
  5
2cb
100
AcDbEntity
  8
text
 62
7
100
AcDbLine
 10
16.432260
 20
37.036927
 30
0.0
 11
17.111896
 21
37.036927
 31
0.0
  0
LINE
  5
2cc
100
AcDbEntity
  8
text
 62
7
100
AcDbLine
 10
17.449559
 20
37.987557
 30
0.0
 11
17.991547
 21
37.307921
 31
0.0
  0
LINE
  5
2cd
100
AcDbEntity
  8
text
 62
7
100
AcDbLine
 10
17.991547
 20
37.307921
 30
0.0
 11
17.991547
 21
36.563763
 31
0.0
  0
LINE
  5
2ce
100
AcDbEntity
  8
text
 62
7
100
AcDbLine
 10
18.533535
 20
37.987557
 30
0.0
 11
17.991547
 21
37.307921
 31
0.0
  0
LINE
  5
2cf
100
AcDbEntity
  8
text
 62
7
100
AcDbLine
 10
30.731229
 20
37.987521
 30
0.0
 11
30.731229
 21
36.563728
 31
0.0
  0
LINE
  5
2d0
100
AcDbEntity
  8
text
 62
7
100
AcDbLine
 10
30.731229
 20
37.987521
 30
0.0
 11
31.342040
 21
37.987521
 31
0.0
  0
LINE
  5
2d1
100
AcDbEntity
  8
text
 62
7
100
AcDbLine
 10
31.342040
 20
37.987521
 30
0.0
 11
31.544210
 21
37.918697
 31
0.0
  0
LINE
  5
2d2
100
AcDbEntity
  8
text
 62
7
100
AcDbLine
 10
31.544210
 20
37.918697
 30
0.0
 11
31.613034
 21
37.849874
 31
0.0
  0
LINE
  5
2d3
100
AcDbEntity
  8
text
 62
7
100
AcDbLine
 10
31.613034
 20
37.849874
 30
0.0
 11
31.681858
 21
37.716527
 31
0.0
  0
LINE
  5
2d4
100
AcDbEntity
  8
text
 62
7
100
AcDbLine
 10
31.681858
 20
37.716527
 30
0.0
 11
31.681858
 21
37.578880
 31
0.0
  0
LINE
  5
2d5
100
AcDbEntity
  8
text
 62
7
100
AcDbLine
 10
31.681858
 20
37.578880
 30
0.0
 11
31.613034
 21
37.445534
 31
0.0
  0
LINE
  5
2d6
100
AcDbEntity
  8
text
 62
7
100
AcDbLine
 10
31.613034
 20
37.445534
 30
0.0
 11
31.544210
 21
37.376710
 31
0.0
  0
LINE
  5
2d7
100
AcDbEntity
  8
text
 62
7
100
AcDbLine
 10
31.544210
 20
37.376710
 30
0.0
 11
31.342040
 21
37.307886
 31
0.0
  0
LINE
  5
2d8
100
AcDbEntity
  8
text
 62
7
100
AcDbLine
 10
31.342040
 20
37.307886
 30
0.0
 11
30.731229
 21
37.307886
 31
0.0
  0
LINE
  5
2d9
100
AcDbEntity
  8
text
 62
7
100
AcDbLine
 10
31.206543
 20
37.307886
 30
0.0
 11
31.681858
 21
36.563728
 31
0.0
  0
LINE
  5
2da
100
AcDbEntity
  8
text
 62
7
100
AcDbLine
 10
32.155025
 20
37.987521
 30
0.0
 11
32.155025
 21
36.563728
 31
0.0
  0
LINE
  5
2db
100
AcDbEntity
  8
text
 62
7
100
AcDbLine
 10
32.155025
 20
37.987521
 30
0.0
 11
33.036830
 21
37.987521
 31
0.0
  0
LINE
  5
2dc
100
AcDbEntity
  8
text
 62
7
100
AcDbLine
 10
32.155025
 20
37.307886
 30
0.0
 11
32.697013
 21
37.307886
 31
0.0
  0
LINE
  5
2dd
100
AcDbEntity
  8
text
 62
7
100
AcDbLine
 10
32.155025
 20
36.563728
 30
0.0
 11
33.036830
 21
36.563728
 31
0.0
  0
LINE
  5
2de
100
AcDbEntity
  8
text
 62
7
100
AcDbLine
 10
33.441168
 20
37.987521
 30
0.0
 11
33.441168
 21
36.563728
 31
0.0
  0
LINE
  5
2df
100
AcDbEntity
  8
text
 62
7
100
AcDbLine
 10
33.441168
 20
36.563728
 30
0.0
 11
34.254150
 21
36.563728
 31
0.0
  0
LINE
  5
2e0
100
AcDbEntity
  8
text
 62
7
100
AcDbLine
 10
34.593971
 20
37.987521
 30
0.0
 11
34.593971
 21
36.563728
 31
0.0
  0
LINE
  5
2e1
100
AcDbEntity
  8
text
 62
7
100
AcDbLine
 10
34.593971
 20
37.987521
 30
0.0
 11
35.475776
 21
37.987521
 31
0.0
  0
LINE
  5
2e2
100
AcDbEntity
  8
text
 62
7
100
AcDbLine
 10
34.593971
 20
37.307886
 30
0.0
 11
35.135959
 21
37.307886
 31
0.0
  0
LINE
  5
2e3
100
AcDbEntity
  8
text
 62
7
100
AcDbLine
 10
34.593971
 20
36.563728
 30
0.0
 11
35.475776
 21
36.563728
 31
0.0
  0
LINE
  5
2e4
100
AcDbEntity
  8
text
 62
7
100
AcDbLine
 10
36.219932
 20
37.987521
 30
0.0
 11
35.677944
 21
36.563728
 31
0.0
  0
LINE
  5
2e5
100
AcDbEntity
  8
text
 62
7
100
AcDbLine
 10
36.219932
 20
37.987521
 30
0.0
 11
36.761919
 21
36.563728
 31
0.0
  0
LINE
  5
2e6
100
AcDbEntity
  8
text
 62
7
100
AcDbLine
 10
35.880114
 20
37.036892
 30
0.0
 11
36.559749
 21
37.036892
 31
0.0
  0
LINE
  5
2e7
100
AcDbEntity
  8
text
 62
7
100
AcDbLine
 10
37.981389
 20
37.783201
 30
0.0
 11
37.845892
 21
37.918697
 31
0.0
  0
LINE
  5
2e8
100
AcDbEntity
  8
text
 62
7
100
AcDbLine
 10
37.845892
 20
37.918697
 30
0.0
 11
37.641571
 21
37.987521
 31
0.0
  0
LINE
  5
2e9
100
AcDbEntity
  8
text
 62
7
100
AcDbLine
 10
37.641571
 20
37.987521
 30
0.0
 11
37.370577
 21
37.987521
 31
0.0
  0
LINE
  5
2ea
100
AcDbEntity
  8
text
 62
7
100
AcDbLine
 10
37.370577
 20
37.987521
 30
0.0
 11
37.168407
 21
37.918697
 31
0.0
  0
LINE
  5
2eb
100
AcDbEntity
  8
text
 62
7
100
AcDbLine
 10
37.168407
 20
37.918697
 30
0.0
 11
37.032910
 21
37.783201
 31
0.0
  0
LINE
  5
2ec
100
AcDbEntity
  8
text
 62
7
100
AcDbLine
 10
37.032910
 20
37.783201
 30
0.0
 11
37.032910
 21
37.647704
 31
0.0
  0
LINE
  5
2ed
100
AcDbEntity
  8
text
 62
7
100
AcDbLine
 10
37.032910
 20
37.647704
 30
0.0
 11
37.099583
 21
37.512207
 31
0.0
  0
LINE
  5
2ee
100
AcDbEntity
  8
text
 62
7
100
AcDbLine
 10
37.099583
 20
37.512207
 30
0.0
 11
37.168407
 21
37.445534
 31
0.0
  0
LINE
  5
2ef
100
AcDbEntity
  8
text
 62
7
100
AcDbLine
 10
37.168407
 20
37.445534
 30
0.0
 11
37.303904
 21
37.376710
 31
0.0
  0
LINE
  5
2f0
100
AcDbEntity
  8
text
 62
7
100
AcDbLine
 10
37.303904
 20
37.376710
 30
0.0
 11
37.710395
 21
37.241213
 31
0.0
  0
LINE
  5
2f1
100
AcDbEntity
  8
text
 62
7
100
AcDbLine
 10
37.710395
 20
37.241213
 30
0.0
 11
37.845892
 21
37.174540
 31
0.0
  0
LINE
  5
2f2
100
AcDbEntity
  8
text
 62
7
100
AcDbLine
 10
37.845892
 20
37.174540
 30
0.0
 11
37.912565
 21
37.105716
 31
0.0
  0
LINE
  5
2f3
100
AcDbEntity
  8
text
 62
7
100
AcDbLine
 10
37.912565
 20
37.105716
 30
0.0
 11
37.981389
 21
36.970219
 31
0.0
  0
LINE
  5
2f4
100
AcDbEntity
  8
text
 62
7
100
AcDbLine
 10
37.981389
 20
36.970219
 30
0.0
 11
37.981389
 21
36.766973
 31
0.0
  0
LINE
  5
2f5
100
AcDbEntity
  8
text
 62
7
100
AcDbLine
 10
37.981389
 20
36.766973
 30
0.0
 11
37.845892
 21
36.631476
 31
0.0
  0
LINE
  5
2f6
100
AcDbEntity
  8
text
 62
7
100
AcDbLine
 10
37.845892
 20
36.631476
 30
0.0
 11
37.641571
 21
36.563728
 31
0.0
  0
LINE
  5
2f7
100
AcDbEntity
  8
text
 62
7
100
AcDbLine
 10
37.641571
 20
36.563728
 30
0.0
 11
37.370577
 21
36.563728
 31
0.0
  0
LINE
  5
2f8
100
AcDbEntity
  8
text
 62
7
100
AcDbLine
 10
37.370577
 20
36.563728
 30
0.0
 11
37.168407
 21
36.631476
 31
0.0
  0
LINE
  5
2f9
100
AcDbEntity
  8
text
 62
7
100
AcDbLine
 10
37.168407
 20
36.631476
 30
0.0
 11
37.032910
 21
36.766973
 31
0.0
  0
LINE
  5
2fa
100
AcDbEntity
  8
text
 62
7
100
AcDbLine
 10
38.454534
 20
37.987521
 30
0.0
 11
38.454534
 21
36.563728
 31
0.0
  0
LINE
  5
2fb
100
AcDbEntity
  8
text
 62
7
100
AcDbLine
 10
38.454534
 20
37.987521
 30
0.0
 11
39.336339
 21
37.987521
 31
0.0
  0
LINE
  5
2fc
100
AcDbEntity
  8
text
 62
7
100
AcDbLine
 10
38.454534
 20
37.307886
 30
0.0
 11
38.996521
 21
37.307886
 31
0.0
  0
LINE
  5
2fd
100
AcDbEntity
  8
text
 62
7
100
AcDbLine
 10
38.454534
 20
36.563728
 30
0.0
 11
39.336339
 21
36.563728
 31
0.0
  0
LINE
  5
2fe
100
AcDbEntity
  8
text
 62
7
100
AcDbLine
 10
22.141828
 20
37.783231
 30
0.0
 11
22.006331
 21
37.918728
 31
0.0
  0
LINE
  5
2ff
100
AcDbEntity
  8
text
 62
7
100
AcDbLine
 10
22.006331
 20
37.918728
 30
0.0
 11
21.802010
 21
37.987552
 31
0.0
  0
LINE
  5
300
100
AcDbEntity
  8
text
 62
7
100
AcDbLine
 10
21.802010
 20
37.987552
 30
0.0
 11
21.531016
 21
37.987552
 31
0.0
  0
LINE
  5
301
100
AcDbEntity
  8
text
 62
7
100
AcDbLine
 10
21.531016
 20
37.987552
 30
0.0
 11
21.328846
 21
37.918728
 31
0.0
  0
LINE
  5
302
100
AcDbEntity
  8
text
 62
7
100
AcDbLine
 10
21.328846
 20
37.918728
 30
0.0
 11
21.193349
 21
37.783231
 31
0.0
  0
LINE
  5
303
100
AcDbEntity
  8
text
 62
7
100
AcDbLine
 10
21.193349
 20
37.783231
 30
0.0
 11
21.193349
 21
37.647734
 31
0.0
  0
LINE
  5
304
100
AcDbEntity
  8
text
 62
7
100
AcDbLine
 10
21.193349
 20
37.647734
 30
0.0
 11
21.260022
 21
37.512237
 31
0.0
  0
LINE
  5
305
100
AcDbEntity
  8
text
 62
7
100
AcDbLine
 10
21.260022
 20
37.512237
 30
0.0
 11
21.328846
 21
37.445564
 31
0.0
  0
LINE
  5
306
100
AcDbEntity
  8
text
 62
7
100
AcDbLine
 10
21.328846
 20
37.445564
 30
0.0
 11
21.464343
 21
37.376740
 31
0.0
  0
LINE
  5
307
100
AcDbEntity
  8
text
 62
7
100
AcDbLine
 10
21.464343
 20
37.376740
 30
0.0
 11
21.870834
 21
37.241243
 31
0.0
  0
LINE
  5
308
100
AcDbEntity
  8
text
 62
7
100
AcDbLine
 10
21.870834
 20
37.241243
 30
0.0
 11
22.006331
 21
37.174570
 31
0.0
  0
LINE
  5
309
100
AcDbEntity
  8
text
 62
7
100
AcDbLine
 10
22.006331
 20
37.174570
 30
0.0
 11
22.073004
 21
37.105746
 31
0.0
  0
LINE
  5
30a
100
AcDbEntity
  8
text
 62
7
100
AcDbLine
 10
22.073004
 20
37.105746
 30
0.0
 11
22.141828
 21
36.970249
 31
0.0
  0
LINE
  5
30b
100
AcDbEntity
  8
text
 62
7
100
AcDbLine
 10
22.141828
 20
36.970249
 30
0.0
 11
22.141828
 21
36.767004
 31
0.0
  0
LINE
  5
30c
100
AcDbEntity
  8
text
 62
7
100
AcDbLine
 10
22.141828
 20
36.767004
 30
0.0
 11
22.006331
 21
36.631507
 31
0.0
  0
LINE
  5
30d
100
AcDbEntity
  8
text
 62
7
100
AcDbLine
 10
22.006331
 20
36.631507
 30
0.0
 11
21.802010
 21
36.563759
 31
0.0
  0
LINE
  5
30e
100
AcDbEntity
  8
text
 62
7
100
AcDbLine
 10
21.802010
 20
36.563759
 30
0.0
 11
21.531016
 21
36.563759
 31
0.0
  0
LINE
  5
30f
100
AcDbEntity
  8
text
 62
7
100
AcDbLine
 10
21.531016
 20
36.563759
 30
0.0
 11
21.328846
 21
36.631507
 31
0.0
  0
LINE
  5
310
100
AcDbEntity
  8
text
 62
7
100
AcDbLine
 10
21.328846
 20
36.631507
 30
0.0
 11
21.193349
 21
36.767004
 31
0.0
  0
LINE
  5
311
100
AcDbEntity
  8
text
 62
7
100
AcDbLine
 10
22.614988
 20
37.987552
 30
0.0
 11
22.614988
 21
36.970249
 31
0.0
  0
LINE
  5
312
100
AcDbEntity
  8
text
 62
7
100
AcDbLine
 10
22.614988
 20
36.970249
 30
0.0
 11
22.683812
 21
36.767004
 31
0.0
  0
LINE
  5
313
100
AcDbEntity
  8
text
 62
7
100
AcDbLine
 10
22.683812
 20
36.767004
 30
0.0
 11
22.819309
 21
36.631507
 31
0.0
  0
LINE
  5
314
100
AcDbEntity
  8
text
 62
7
100
AcDbLine
 10
22.819309
 20
36.631507
 30
0.0
 11
23.023630
 21
36.563759
 31
0.0
  0
LINE
  5
315
100
AcDbEntity
  8
text
 62
7
100
AcDbLine
 10
23.023630
 20
36.563759
 30
0.0
 11
23.156976
 21
36.563759
 31
0.0
  0
LINE
  5
316
100
AcDbEntity
  8
text
 62
7
100
AcDbLine
 10
23.156976
 20
36.563759
 30
0.0
 11
23.361297
 21
36.631507
 31
0.0
  0
LINE
  5
317
100
AcDbEntity
  8
text
 62
7
100
AcDbLine
 10
23.361297
 20
36.631507
 30
0.0
 11
23.496794
 21
36.767004
 31
0.0
  0
LINE
  5
318
100
AcDbEntity
  8
text
 62
7
100
AcDbLine
 10
23.496794
 20
36.767004
 30
0.0
 11
23.565618
 21
36.970249
 31
0.0
  0
LINE
  5
319
100
AcDbEntity
  8
text
 62
7
100
AcDbLine
 10
23.565618
 20
36.970249
 30
0.0
 11
23.565618
 21
37.987552
 31
0.0
  0
LINE
  5
31a
100
AcDbEntity
  8
text
 62
7
100
AcDbLine
 10
24.987264
 20
37.783231
 30
0.0
 11
24.851767
 21
37.918728
 31
0.0
  0
LINE
  5
31b
100
AcDbEntity
  8
text
 62
7
100
AcDbLine
 10
24.851767
 20
37.918728
 30
0.0
 11
24.647446
 21
37.987552
 31
0.0
  0
LINE
  5
31c
100
AcDbEntity
  8
text
 62
7
100
AcDbLine
 10
24.647446
 20
37.987552
 30
0.0
 11
24.376452
 21
37.987552
 31
0.0
  0
LINE
  5
31d
100
AcDbEntity
  8
text
 62
7
100
AcDbLine
 10
24.376452
 20
37.987552
 30
0.0
 11
24.174282
 21
37.918728
 31
0.0
  0
LINE
  5
31e
100
AcDbEntity
  8
text
 62
7
100
AcDbLine
 10
24.174282
 20
37.918728
 30
0.0
 11
24.038785
 21
37.783231
 31
0.0
  0
LINE
  5
31f
100
AcDbEntity
  8
text
 62
7
100
AcDbLine
 10
24.038785
 20
37.783231
 30
0.0
 11
24.038785
 21
37.647734
 31
0.0
  0
LINE
  5
320
100
AcDbEntity
  8
text
 62
7
100
AcDbLine
 10
24.038785
 20
37.647734
 30
0.0
 11
24.105458
 21
37.512237
 31
0.0
  0
LINE
  5
321
100
AcDbEntity
  8
text
 62
7
100
AcDbLine
 10
24.105458
 20
37.512237
 30
0.0
 11
24.174282
 21
37.445564
 31
0.0
  0
LINE
  5
322
100
AcDbEntity
  8
text
 62
7
100
AcDbLine
 10
24.174282
 20
37.445564
 30
0.0
 11
24.309779
 21
37.376740
 31
0.0
  0
LINE
  5
323
100
AcDbEntity
  8
text
 62
7
100
AcDbLine
 10
24.309779
 20
37.376740
 30
0.0
 11
24.716270
 21
37.241243
 31
0.0
  0
LINE
  5
324
100
AcDbEntity
  8
text
 62
7
100
AcDbLine
 10
24.716270
 20
37.241243
 30
0.0
 11
24.851767
 21
37.174570
 31
0.0
  0
LINE
  5
325
100
AcDbEntity
  8
text
 62
7
100
AcDbLine
 10
24.851767
 20
37.174570
 30
0.0
 11
24.918440
 21
37.105746
 31
0.0
  0
LINE
  5
326
100
AcDbEntity
  8
text
 62
7
100
AcDbLine
 10
24.918440
 20
37.105746
 30
0.0
 11
24.987264
 21
36.970249
 31
0.0
  0
LINE
  5
327
100
AcDbEntity
  8
text
 62
7
100
AcDbLine
 10
24.987264
 20
36.970249
 30
0.0
 11
24.987264
 21
36.767004
 31
0.0
  0
LINE
  5
328
100
AcDbEntity
  8
text
 62
7
100
AcDbLine
 10
24.987264
 20
36.767004
 30
0.0
 11
24.851767
 21
36.631507
 31
0.0
  0
LINE
  5
329
100
AcDbEntity
  8
text
 62
7
100
AcDbLine
 10
24.851767
 20
36.631507
 30
0.0
 11
24.647446
 21
36.563759
 31
0.0
  0
LINE
  5
32a
100
AcDbEntity
  8
text
 62
7
100
AcDbLine
 10
24.647446
 20
36.563759
 30
0.0
 11
24.376452
 21
36.563759
 31
0.0
  0
LINE
  5
32b
100
AcDbEntity
  8
text
 62
7
100
AcDbLine
 10
24.376452
 20
36.563759
 30
0.0
 11
24.174282
 21
36.631507
 31
0.0
  0
LINE
  5
32c
100
AcDbEntity
  8
text
 62
7
100
AcDbLine
 10
24.174282
 20
36.631507
 30
0.0
 11
24.038785
 21
36.767004
 31
0.0
  0
LINE
  5
32d
100
AcDbEntity
  8
text
 62
7
100
AcDbLine
 10
25.731426
 20
37.987552
 30
0.0
 11
25.731426
 21
36.563759
 31
0.0
  0
LINE
  5
32e
100
AcDbEntity
  8
text
 62
7
100
AcDbLine
 10
25.258262
 20
37.987552
 30
0.0
 11
26.206740
 21
37.987552
 31
0.0
  0
LINE
  5
32f
100
AcDbEntity
  8
text
 62
7
100
AcDbLine
 10
26.884222
 20
37.987552
 30
0.0
 11
26.342234
 21
36.563759
 31
0.0
  0
LINE
  5
330
100
AcDbEntity
  8
text
 62
7
100
AcDbLine
 10
26.884222
 20
37.987552
 30
0.0
 11
27.426210
 21
36.563759
 31
0.0
  0
LINE
  5
331
100
AcDbEntity
  8
text
 62
7
100
AcDbLine
 10
26.544404
 20
37.036923
 30
0.0
 11
27.224040
 21
37.036923
 31
0.0
  0
LINE
  5
332
100
AcDbEntity
  8
text
 62
7
100
AcDbLine
 10
27.763873
 20
37.987552
 30
0.0
 11
27.763873
 21
36.563759
 31
0.0
  0
LINE
  5
333
100
AcDbEntity
  8
text
 62
7
100
AcDbLine
 10
28.305867
 20
37.987552
 30
0.0
 11
28.305867
 21
36.563759
 31
0.0
  0
LINE
  5
334
100
AcDbEntity
  8
text
 62
7
100
AcDbLine
 10
28.305867
 20
37.987552
 30
0.0
 11
29.256497
 21
36.563759
 31
0.0
  0
LINE
  5
335
100
AcDbEntity
  8
text
 62
7
100
AcDbLine
 10
29.256497
 20
37.987552
 30
0.0
 11
29.256497
 21
36.563759
 31
0.0
  0
LINE
  5
336
100
AcDbEntity
  8
text
 62
7
100
AcDbLine
 10
12.129762
 20
46.978960
 30
0.0
 11
11.994265
 21
46.910136
 31
0.0
  0
LINE
  5
337
100
AcDbEntity
  8
text
 62
7
100
AcDbLine
 10
11.994265
 20
46.910136
 30
0.0
 11
11.858768
 21
46.774639
 31
0.0
  0
LINE
  5
338
100
AcDbEntity
  8
text
 62
7
100
AcDbLine
 10
11.858768
 20
46.774639
 30
0.0
 11
11.789944
 21
46.639142
 31
0.0
  0
LINE
  5
339
100
AcDbEntity
  8
text
 62
7
100
AcDbLine
 10
11.789944
 20
46.639142
 30
0.0
 11
11.723271
 21
46.436972
 31
0.0
  0
LINE
  5
33a
100
AcDbEntity
  8
text
 62
7
100
AcDbLine
 10
11.723271
 20
46.436972
 30
0.0
 11
11.723271
 21
46.097154
 31
0.0
  0
LINE
  5
33b
100
AcDbEntity
  8
text
 62
7
100
AcDbLine
 10
11.723271
 20
46.097154
 30
0.0
 11
11.789944
 21
45.894984
 31
0.0
  0
LINE
  5
33c
100
AcDbEntity
  8
text
 62
7
100
AcDbLine
 10
11.789944
 20
45.894984
 30
0.0
 11
11.858768
 21
45.758412
 31
0.0
  0
LINE
  5
33d
100
AcDbEntity
  8
text
 62
7
100
AcDbLine
 10
11.858768
 20
45.758412
 30
0.0
 11
11.994265
 21
45.622915
 31
0.0
  0
LINE
  5
33e
100
AcDbEntity
  8
text
 62
7
100
AcDbLine
 10
11.994265
 20
45.622915
 30
0.0
 11
12.129762
 21
45.555166
 31
0.0
  0
LINE
  5
33f
100
AcDbEntity
  8
text
 62
7
100
AcDbLine
 10
12.129762
 20
45.555166
 30
0.0
 11
12.400756
 21
45.555166
 31
0.0
  0
LINE
  5
340
100
AcDbEntity
  8
text
 62
7
100
AcDbLine
 10
12.400756
 20
45.555166
 30
0.0
 11
12.536253
 21
45.622915
 31
0.0
  0
LINE
  5
341
100
AcDbEntity
  8
text
 62
7
100
AcDbLine
 10
12.536253
 20
45.622915
 30
0.0
 11
12.671750
 21
45.758412
 31
0.0
  0
LINE
  5
342
100
AcDbEntity
  8
text
 62
7
100
AcDbLine
 10
12.671750
 20
45.758412
 30
0.0
 11
12.740574
 21
45.894984
 31
0.0
  0
LINE
  5
343
100
AcDbEntity
  8
text
 62
7
100
AcDbLine
 10
12.740574
 20
45.894984
 30
0.0
 11
12.807247
 21
46.097154
 31
0.0
  0
LINE
  5
344
100
AcDbEntity
  8
text
 62
7
100
AcDbLine
 10
12.807247
 20
46.097154
 30
0.0
 11
12.807247
 21
46.436972
 31
0.0
  0
LINE
  5
345
100
AcDbEntity
  8
text
 62
7
100
AcDbLine
 10
12.807247
 20
46.436972
 30
0.0
 11
12.740574
 21
46.639142
 31
0.0
  0
LINE
  5
346
100
AcDbEntity
  8
text
 62
7
100
AcDbLine
 10
12.740574
 20
46.639142
 30
0.0
 11
12.671750
 21
46.774639
 31
0.0
  0
LINE
  5
347
100
AcDbEntity
  8
text
 62
7
100
AcDbLine
 10
12.671750
 20
46.774639
 30
0.0
 11
12.536253
 21
46.910136
 31
0.0
  0
LINE
  5
348
100
AcDbEntity
  8
text
 62
7
100
AcDbLine
 10
12.536253
 20
46.910136
 30
0.0
 11
12.400756
 21
46.978960
 31
0.0
  0
LINE
  5
349
100
AcDbEntity
  8
text
 62
7
100
AcDbLine
 10
12.400756
 20
46.978960
 30
0.0
 11
12.129762
 21
46.978960
 31
0.0
  0
LINE
  5
34a
100
AcDbEntity
  8
text
 62
7
100
AcDbLine
 10
13.280414
 20
46.978960
 30
0.0
 11
13.280414
 21
45.555166
 31
0.0
  0
LINE
  5
34b
100
AcDbEntity
  8
text
 62
7
100
AcDbLine
 10
13.280414
 20
46.978960
 30
0.0
 11
14.162220
 21
46.978960
 31
0.0
  0
LINE
  5
34c
100
AcDbEntity
  8
text
 62
7
100
AcDbLine
 10
13.280414
 20
46.299324
 30
0.0
 11
13.822402
 21
46.299324
 31
0.0
  0
LINE
  5
34d
100
AcDbEntity
  8
text
 62
7
100
AcDbLine
 10
14.499884
 20
46.978960
 30
0.0
 11
14.499884
 21
45.555166
 31
0.0
  0
LINE
  5
34e
100
AcDbEntity
  8
text
 62
7
100
AcDbLine
 10
14.499884
 20
46.978960
 30
0.0
 11
15.381689
 21
46.978960
 31
0.0
  0
LINE
  5
34f
100
AcDbEntity
  8
text
 62
7
100
AcDbLine
 10
14.499884
 20
46.299324
 30
0.0
 11
15.041871
 21
46.299324
 31
0.0
  0
LINE
  5
350
100
AcDbEntity
  8
text
 62
7
100
AcDbLine
 10
16.601158
 20
46.774639
 30
0.0
 11
16.465661
 21
46.910136
 31
0.0
  0
LINE
  5
351
100
AcDbEntity
  8
text
 62
7
100
AcDbLine
 10
16.465661
 20
46.910136
 30
0.0
 11
16.261341
 21
46.978960
 31
0.0
  0
LINE
  5
352
100
AcDbEntity
  8
text
 62
7
100
AcDbLine
 10
16.261341
 20
46.978960
 30
0.0
 11
15.990347
 21
46.978960
 31
0.0
  0
LINE
  5
353
100
AcDbEntity
  8
text
 62
7
100
AcDbLine
 10
15.990347
 20
46.978960
 30
0.0
 11
15.788177
 21
46.910136
 31
0.0
  0
LINE
  5
354
100
AcDbEntity
  8
text
 62
7
100
AcDbLine
 10
15.788177
 20
46.910136
 30
0.0
 11
15.652680
 21
46.774639
 31
0.0
  0
LINE
  5
355
100
AcDbEntity
  8
text
 62
7
100
AcDbLine
 10
15.652680
 20
46.774639
 30
0.0
 11
15.652680
 21
46.639142
 31
0.0
  0
LINE
  5
356
100
AcDbEntity
  8
text
 62
7
100
AcDbLine
 10
15.652680
 20
46.639142
 30
0.0
 11
15.719353
 21
46.503645
 31
0.0
  0
LINE
  5
357
100
AcDbEntity
  8
text
 62
7
100
AcDbLine
 10
15.719353
 20
46.503645
 30
0.0
 11
15.788177
 21
46.436972
 31
0.0
  0
LINE
  5
358
100
AcDbEntity
  8
text
 62
7
100
AcDbLine
 10
15.788177
 20
46.436972
 30
0.0
 11
15.923674
 21
46.368148
 31
0.0
  0
LINE
  5
359
100
AcDbEntity
  8
text
 62
7
100
AcDbLine
 10
15.923674
 20
46.368148
 30
0.0
 11
16.330164
 21
46.232651
 31
0.0
  0
LINE
  5
35a
100
AcDbEntity
  8
text
 62
7
100
AcDbLine
 10
16.330164
 20
46.232651
 30
0.0
 11
16.465661
 21
46.165978
 31
0.0
  0
LINE
  5
35b
100
AcDbEntity
  8
text
 62
7
100
AcDbLine
 10
16.465661
 20
46.165978
 30
0.0
 11
16.532334
 21
46.097154
 31
0.0
  0
LINE
  5
35c
100
AcDbEntity
  8
text
 62
7
100
AcDbLine
 10
16.532334
 20
46.097154
 30
0.0
 11
16.601158
 21
45.961657
 31
0.0
  0
LINE
  5
35d
100
AcDbEntity
  8
text
 62
7
100
AcDbLine
 10
16.601158
 20
45.961657
 30
0.0
 11
16.601158
 21
45.758412
 31
0.0
  0
LINE
  5
35e
100
AcDbEntity
  8
text
 62
7
100
AcDbLine
 10
16.601158
 20
45.758412
 30
0.0
 11
16.465661
 21
45.622915
 31
0.0
  0
LINE
  5
35f
100
AcDbEntity
  8
text
 62
7
100
AcDbLine
 10
16.465661
 20
45.622915
 30
0.0
 11
16.261341
 21
45.555166
 31
0.0
  0
LINE
  5
360
100
AcDbEntity
  8
text
 62
7
100
AcDbLine
 10
16.261341
 20
45.555166
 30
0.0
 11
15.990347
 21
45.555166
 31
0.0
  0
LINE
  5
361
100
AcDbEntity
  8
text
 62
7
100
AcDbLine
 10
15.990347
 20
45.555166
 30
0.0
 11
15.788177
 21
45.622915
 31
0.0
  0
LINE
  5
362
100
AcDbEntity
  8
text
 62
7
100
AcDbLine
 10
15.788177
 20
45.622915
 30
0.0
 11
15.652680
 21
45.758412
 31
0.0
  0
LINE
  5
363
100
AcDbEntity
  8
text
 62
7
100
AcDbLine
 10
17.074326
 20
46.978960
 30
0.0
 11
17.074326
 21
45.555166
 31
0.0
  0
LINE
  5
364
100
AcDbEntity
  8
text
 62
7
100
AcDbLine
 10
17.074326
 20
46.978960
 30
0.0
 11
17.956132
 21
46.978960
 31
0.0
  0
LINE
  5
365
100
AcDbEntity
  8
text
 62
7
100
AcDbLine
 10
17.074326
 20
46.299324
 30
0.0
 11
17.616314
 21
46.299324
 31
0.0
  0
LINE
  5
366
100
AcDbEntity
  8
text
 62
7
100
AcDbLine
 10
17.074326
 20
45.555166
 30
0.0
 11
17.956132
 21
45.555166
 31
0.0
  0
LINE
  5
367
100
AcDbEntity
  8
text
 62
7
100
AcDbLine
 10
18.631463
 20
46.978960
 30
0.0
 11
18.631463
 21
45.555166
 31
0.0
  0
LINE
  5
368
100
AcDbEntity
  8
text
 62
7
100
AcDbLine
 10
18.158299
 20
46.978960
 30
0.0
 11
19.106778
 21
46.978960
 31
0.0
  0
LINE
  5
369
100
AcDbEntity
  8
text
 62
7
100
AcDbLine
 10
4.285627
 20
25.657024
 30
0.0
 11
4.216803
 21
25.792521
 31
0.0
  0
LINE
  5
36a
100
AcDbEntity
  8
text
 62
7
100
AcDbLine
 10
4.216803
 20
25.792521
 30
0.0
 11
4.081306
 21
25.928018
 31
0.0
  0
LINE
  5
36b
100
AcDbEntity
  8
text
 62
7
100
AcDbLine
 10
4.081306
 20
25.928018
 30
0.0
 11
3.945809
 21
25.996841
 31
0.0
  0
LINE
  5
36c
100
AcDbEntity
  8
text
 62
7
100
AcDbLine
 10
3.945809
 20
25.996841
 30
0.0
 11
3.674815
 21
25.996841
 31
0.0
  0
LINE
  5
36d
100
AcDbEntity
  8
text
 62
7
100
AcDbLine
 10
3.674815
 20
25.996841
 30
0.0
 11
3.539318
 21
25.928018
 31
0.0
  0
LINE
  5
36e
100
AcDbEntity
  8
text
 62
7
100
AcDbLine
 10
3.539318
 20
25.928018
 30
0.0
 11
3.403821
 21
25.792521
 31
0.0
  0
LINE
  5
36f
100
AcDbEntity
  8
text
 62
7
100
AcDbLine
 10
3.403821
 20
25.792521
 30
0.0
 11
3.334997
 21
25.657024
 31
0.0
  0
LINE
  5
370
100
AcDbEntity
  8
text
 62
7
100
AcDbLine
 10
3.334997
 20
25.657024
 30
0.0
 11
3.268324
 21
25.454854
 31
0.0
  0
LINE
  5
371
100
AcDbEntity
  8
text
 62
7
100
AcDbLine
 10
3.268324
 20
25.454854
 30
0.0
 11
3.268324
 21
25.115036
 31
0.0
  0
LINE
  5
372
100
AcDbEntity
  8
text
 62
7
100
AcDbLine
 10
3.268324
 20
25.115036
 30
0.0
 11
3.334997
 21
24.912866
 31
0.0
  0
LINE
  5
373
100
AcDbEntity
  8
text
 62
7
100
AcDbLine
 10
3.334997
 20
24.912866
 30
0.0
 11
3.403821
 21
24.776293
 31
0.0
  0
LINE
  5
374
100
AcDbEntity
  8
text
 62
7
100
AcDbLine
 10
3.403821
 20
24.776293
 30
0.0
 11
3.539318
 21
24.640796
 31
0.0
  0
LINE
  5
375
100
AcDbEntity
  8
text
 62
7
100
AcDbLine
 10
3.539318
 20
24.640796
 30
0.0
 11
3.674815
 21
24.573048
 31
0.0
  0
LINE
  5
376
100
AcDbEntity
  8
text
 62
7
100
AcDbLine
 10
3.674815
 20
24.573048
 30
0.0
 11
3.945809
 21
24.573048
 31
0.0
  0
LINE
  5
377
100
AcDbEntity
  8
text
 62
7
100
AcDbLine
 10
3.945809
 20
24.573048
 30
0.0
 11
4.081306
 21
24.640796
 31
0.0
  0
LINE
  5
378
100
AcDbEntity
  8
text
 62
7
100
AcDbLine
 10
4.081306
 20
24.640796
 30
0.0
 11
4.216803
 21
24.776293
 31
0.0
  0
LINE
  5
379
100
AcDbEntity
  8
text
 62
7
100
AcDbLine
 10
4.216803
 20
24.776293
 30
0.0
 11
4.285627
 21
24.912866
 31
0.0
  0
LINE
  5
37a
100
AcDbEntity
  8
text
 62
7
100
AcDbLine
 10
4.285627
 20
24.912866
 30
0.0
 11
4.285627
 21
25.115036
 31
0.0
  0
LINE
  5
37b
100
AcDbEntity
  8
text
 62
7
100
AcDbLine
 10
3.945809
 20
25.115036
 30
0.0
 11
4.285627
 21
25.115036
 31
0.0
  0
LINE
  5
37c
100
AcDbEntity
  8
text
 62
7
100
AcDbLine
 10
5.098611
 20
25.996841
 30
0.0
 11
4.556624
 21
24.573048
 31
0.0
  0
LINE
  5
37d
100
AcDbEntity
  8
text
 62
7
100
AcDbLine
 10
5.098611
 20
25.996841
 30
0.0
 11
5.640599
 21
24.573048
 31
0.0
  0
LINE
  5
37e
100
AcDbEntity
  8
text
 62
7
100
AcDbLine
 10
4.758794
 20
25.046212
 30
0.0
 11
5.438429
 21
25.046212
 31
0.0
  0
LINE
  5
37f
100
AcDbEntity
  8
text
 62
7
100
AcDbLine
 10
6.249257
 20
25.996841
 30
0.0
 11
6.249257
 21
24.573048
 31
0.0
  0
LINE
  5
380
100
AcDbEntity
  8
text
 62
7
100
AcDbLine
 10
5.776093
 20
25.996841
 30
0.0
 11
6.724571
 21
25.996841
 31
0.0
  0
LINE
  5
381
100
AcDbEntity
  8
text
 62
7
100
AcDbLine
 10
7.062235
 20
25.996841
 30
0.0
 11
7.062235
 21
24.573048
 31
0.0
  0
LINE
  5
382
100
AcDbEntity
  8
text
 62
7
100
AcDbLine
 10
7.062235
 20
25.996841
 30
0.0
 11
7.944041
 21
25.996841
 31
0.0
  0
LINE
  5
383
100
AcDbEntity
  8
text
 62
7
100
AcDbLine
 10
7.062235
 20
25.317206
 30
0.0
 11
7.604223
 21
25.317206
 31
0.0
  0
LINE
  5
384
100
AcDbEntity
  8
text
 62
7
100
AcDbLine
 10
7.062235
 20
24.573048
 30
0.0
 11
7.944041
 21
24.573048
 31
0.0
  0
LINE
  5
385
100
AcDbEntity
  8
text
 62
7
100
AcDbLine
 10
11.721091
 20
25.996841
 30
0.0
 11
11.721091
 21
24.573047
 31
0.0
  0
LINE
  5
386
100
AcDbEntity
  8
text
 62
7
100
AcDbLine
 10
11.247927
 20
25.996841
 30
0.0
 11
12.196406
 21
25.996841
 31
0.0
  0
LINE
  5
387
100
AcDbEntity
  8
text
 62
7
100
AcDbLine
 10
12.534070
 20
25.996841
 30
0.0
 11
12.534070
 21
24.573047
 31
0.0
  0
LINE
  5
388
100
AcDbEntity
  8
text
 62
7
100
AcDbLine
 10
12.534070
 20
25.996841
 30
0.0
 11
13.144882
 21
25.996841
 31
0.0
  0
LINE
  5
389
100
AcDbEntity
  8
text
 62
7
100
AcDbLine
 10
13.144882
 20
25.996841
 30
0.0
 11
13.347052
 21
25.928017
 31
0.0
  0
LINE
  5
38a
100
AcDbEntity
  8
text
 62
7
100
AcDbLine
 10
13.347052
 20
25.928017
 30
0.0
 11
13.415876
 21
25.859193
 31
0.0
  0
LINE
  5
38b
100
AcDbEntity
  8
text
 62
7
100
AcDbLine
 10
13.415876
 20
25.859193
 30
0.0
 11
13.484699
 21
25.725847
 31
0.0
  0
LINE
  5
38c
100
AcDbEntity
  8
text
 62
7
100
AcDbLine
 10
13.484699
 20
25.725847
 30
0.0
 11
13.484699
 21
25.588199
 31
0.0
  0
LINE
  5
38d
100
AcDbEntity
  8
text
 62
7
100
AcDbLine
 10
13.484699
 20
25.588199
 30
0.0
 11
13.415876
 21
25.454853
 31
0.0
  0
LINE
  5
38e
100
AcDbEntity
  8
text
 62
7
100
AcDbLine
 10
13.415876
 20
25.454853
 30
0.0
 11
13.347052
 21
25.386029
 31
0.0
  0
LINE
  5
38f
100
AcDbEntity
  8
text
 62
7
100
AcDbLine
 10
13.347052
 20
25.386029
 30
0.0
 11
13.144882
 21
25.317205
 31
0.0
  0
LINE
  5
390
100
AcDbEntity
  8
text
 62
7
100
AcDbLine
 10
13.144882
 20
25.317205
 30
0.0
 11
12.534070
 21
25.317205
 31
0.0
  0
LINE
  5
391
100
AcDbEntity
  8
text
 62
7
100
AcDbLine
 10
13.009385
 20
25.317205
 30
0.0
 11
13.484699
 21
24.573047
 31
0.0
  0
LINE
  5
392
100
AcDbEntity
  8
text
 62
7
100
AcDbLine
 10
13.957866
 20
25.996841
 30
0.0
 11
13.957866
 21
24.573047
 31
0.0
  0
LINE
  5
393
100
AcDbEntity
  8
text
 62
7
100
AcDbLine
 10
15.450482
 20
25.657023
 30
0.0
 11
15.381658
 21
25.792520
 31
0.0
  0
LINE
  5
394
100
AcDbEntity
  8
text
 62
7
100
AcDbLine
 10
15.381658
 20
25.792520
 30
0.0
 11
15.246161
 21
25.928017
 31
0.0
  0
LINE
  5
395
100
AcDbEntity
  8
text
 62
7
100
AcDbLine
 10
15.246161
 20
25.928017
 30
0.0
 11
15.110664
 21
25.996841
 31
0.0
  0
LINE
  5
396
100
AcDbEntity
  8
text
 62
7
100
AcDbLine
 10
15.110664
 20
25.996841
 30
0.0
 11
14.839670
 21
25.996841
 31
0.0
  0
LINE
  5
397
100
AcDbEntity
  8
text
 62
7
100
AcDbLine
 10
14.839670
 20
25.996841
 30
0.0
 11
14.704173
 21
25.928017
 31
0.0
  0
LINE
  5
398
100
AcDbEntity
  8
text
 62
7
100
AcDbLine
 10
14.704173
 20
25.928017
 30
0.0
 11
14.568676
 21
25.792520
 31
0.0
  0
LINE
  5
399
100
AcDbEntity
  8
text
 62
7
100
AcDbLine
 10
14.568676
 20
25.792520
 30
0.0
 11
14.499853
 21
25.657023
 31
0.0
  0
LINE
  5
39a
100
AcDbEntity
  8
text
 62
7
100
AcDbLine
 10
14.499853
 20
25.657023
 30
0.0
 11
14.433179
 21
25.454853
 31
0.0
  0
LINE
  5
39b
100
AcDbEntity
  8
text
 62
7
100
AcDbLine
 10
14.433179
 20
25.454853
 30
0.0
 11
14.433179
 21
25.115035
 31
0.0
  0
LINE
  5
39c
100
AcDbEntity
  8
text
 62
7
100
AcDbLine
 10
14.433179
 20
25.115035
 30
0.0
 11
14.499853
 21
24.912865
 31
0.0
  0
LINE
  5
39d
100
AcDbEntity
  8
text
 62
7
100
AcDbLine
 10
14.499853
 20
24.912865
 30
0.0
 11
14.568676
 21
24.776293
 31
0.0
  0
LINE
  5
39e
100
AcDbEntity
  8
text
 62
7
100
AcDbLine
 10
14.568676
 20
24.776293
 30
0.0
 11
14.704173
 21
24.640796
 31
0.0
  0
LINE
  5
39f
100
AcDbEntity
  8
text
 62
7
100
AcDbLine
 10
14.704173
 20
24.640796
 30
0.0
 11
14.839670
 21
24.573047
 31
0.0
  0
LINE
  5
3a0
100
AcDbEntity
  8
text
 62
7
100
AcDbLine
 10
14.839670
 20
24.573047
 30
0.0
 11
15.110664
 21
24.573047
 31
0.0
  0
LINE
  5
3a1
100
AcDbEntity
  8
text
 62
7
100
AcDbLine
 10
15.110664
 20
24.573047
 30
0.0
 11
15.246161
 21
24.640796
 31
0.0
  0
LINE
  5
3a2
100
AcDbEntity
  8
text
 62
7
100
AcDbLine
 10
15.246161
 20
24.640796
 30
0.0
 11
15.381658
 21
24.776293
 31
0.0
  0
LINE
  5
3a3
100
AcDbEntity
  8
text
 62
7
100
AcDbLine
 10
15.381658
 20
24.776293
 30
0.0
 11
15.450482
 21
24.912865
 31
0.0
  0
LINE
  5
3a4
100
AcDbEntity
  8
text
 62
7
100
AcDbLine
 10
15.450482
 20
24.912865
 30
0.0
 11
15.450482
 21
25.115035
 31
0.0
  0
LINE
  5
3a5
100
AcDbEntity
  8
text
 62
7
100
AcDbLine
 10
15.110664
 20
25.115035
 30
0.0
 11
15.450482
 21
25.115035
 31
0.0
  0
LINE
  5
3a6
100
AcDbEntity
  8
text
 62
7
100
AcDbLine
 10
16.874278
 20
25.657023
 30
0.0
 11
16.805454
 21
25.792520
 31
0.0
  0
LINE
  5
3a7
100
AcDbEntity
  8
text
 62
7
100
AcDbLine
 10
16.805454
 20
25.792520
 30
0.0
 11
16.669957
 21
25.928017
 31
0.0
  0
LINE
  5
3a8
100
AcDbEntity
  8
text
 62
7
100
AcDbLine
 10
16.669957
 20
25.928017
 30
0.0
 11
16.534460
 21
25.996841
 31
0.0
  0
LINE
  5
3a9
100
AcDbEntity
  8
text
 62
7
100
AcDbLine
 10
16.534460
 20
25.996841
 30
0.0
 11
16.263467
 21
25.996841
 31
0.0
  0
LINE
  5
3aa
100
AcDbEntity
  8
text
 62
7
100
AcDbLine
 10
16.263467
 20
25.996841
 30
0.0
 11
16.127970
 21
25.928017
 31
0.0
  0
LINE
  5
3ab
100
AcDbEntity
  8
text
 62
7
100
AcDbLine
 10
16.127970
 20
25.928017
 30
0.0
 11
15.992473
 21
25.792520
 31
0.0
  0
LINE
  5
3ac
100
AcDbEntity
  8
text
 62
7
100
AcDbLine
 10
15.992473
 20
25.792520
 30
0.0
 11
15.923649
 21
25.657023
 31
0.0
  0
LINE
  5
3ad
100
AcDbEntity
  8
text
 62
7
100
AcDbLine
 10
15.923649
 20
25.657023
 30
0.0
 11
15.856976
 21
25.454853
 31
0.0
  0
LINE
  5
3ae
100
AcDbEntity
  8
text
 62
7
100
AcDbLine
 10
15.856976
 20
25.454853
 30
0.0
 11
15.856976
 21
25.115035
 31
0.0
  0
LINE
  5
3af
100
AcDbEntity
  8
text
 62
7
100
AcDbLine
 10
15.856976
 20
25.115035
 30
0.0
 11
15.923649
 21
24.912865
 31
0.0
  0
LINE
  5
3b0
100
AcDbEntity
  8
text
 62
7
100
AcDbLine
 10
15.923649
 20
24.912865
 30
0.0
 11
15.992473
 21
24.776293
 31
0.0
  0
LINE
  5
3b1
100
AcDbEntity
  8
text
 62
7
100
AcDbLine
 10
15.992473
 20
24.776293
 30
0.0
 11
16.127970
 21
24.640796
 31
0.0
  0
LINE
  5
3b2
100
AcDbEntity
  8
text
 62
7
100
AcDbLine
 10
16.127970
 20
24.640796
 30
0.0
 11
16.263467
 21
24.573047
 31
0.0
  0
LINE
  5
3b3
100
AcDbEntity
  8
text
 62
7
100
AcDbLine
 10
16.263467
 20
24.573047
 30
0.0
 11
16.534460
 21
24.573047
 31
0.0
  0
LINE
  5
3b4
100
AcDbEntity
  8
text
 62
7
100
AcDbLine
 10
16.534460
 20
24.573047
 30
0.0
 11
16.669957
 21
24.640796
 31
0.0
  0
LINE
  5
3b5
100
AcDbEntity
  8
text
 62
7
100
AcDbLine
 10
16.669957
 20
24.640796
 30
0.0
 11
16.805454
 21
24.776293
 31
0.0
  0
LINE
  5
3b6
100
AcDbEntity
  8
text
 62
7
100
AcDbLine
 10
16.805454
 20
24.776293
 30
0.0
 11
16.874278
 21
24.912865
 31
0.0
  0
LINE
  5
3b7
100
AcDbEntity
  8
text
 62
7
100
AcDbLine
 10
16.874278
 20
24.912865
 30
0.0
 11
16.874278
 21
25.115035
 31
0.0
  0
LINE
  5
3b8
100
AcDbEntity
  8
text
 62
7
100
AcDbLine
 10
16.534460
 20
25.115035
 30
0.0
 11
16.874278
 21
25.115035
 31
0.0
  0
LINE
  5
3b9
100
AcDbEntity
  8
text
 62
7
100
AcDbLine
 10
17.347437
 20
25.996841
 30
0.0
 11
17.347437
 21
24.573047
 31
0.0
  0
LINE
  5
3ba
100
AcDbEntity
  8
text
 62
7
100
AcDbLine
 10
17.347437
 20
25.996841
 30
0.0
 11
18.229243
 21
25.996841
 31
0.0
  0
LINE
  5
3bb
100
AcDbEntity
  8
text
 62
7
100
AcDbLine
 10
17.347437
 20
25.317205
 30
0.0
 11
17.889425
 21
25.317205
 31
0.0
  0
LINE
  5
3bc
100
AcDbEntity
  8
text
 62
7
100
AcDbLine
 10
17.347437
 20
24.573047
 30
0.0
 11
18.229243
 21
24.573047
 31
0.0
  0
LINE
  5
3bd
100
AcDbEntity
  8
text
 62
7
100
AcDbLine
 10
18.633588
 20
25.996841
 30
0.0
 11
18.633588
 21
24.573047
 31
0.0
  0
LINE
  5
3be
100
AcDbEntity
  8
text
 62
7
100
AcDbLine
 10
18.633588
 20
25.996841
 30
0.0
 11
19.244400
 21
25.996841
 31
0.0
  0
LINE
  5
3bf
100
AcDbEntity
  8
text
 62
7
100
AcDbLine
 10
19.244400
 20
25.996841
 30
0.0
 11
19.446570
 21
25.928017
 31
0.0
  0
LINE
  5
3c0
100
AcDbEntity
  8
text
 62
7
100
AcDbLine
 10
19.446570
 20
25.928017
 30
0.0
 11
19.515394
 21
25.859193
 31
0.0
  0
LINE
  5
3c1
100
AcDbEntity
  8
text
 62
7
100
AcDbLine
 10
19.515394
 20
25.859193
 30
0.0
 11
19.584217
 21
25.725847
 31
0.0
  0
LINE
  5
3c2
100
AcDbEntity
  8
text
 62
7
100
AcDbLine
 10
19.584217
 20
25.725847
 30
0.0
 11
19.584217
 21
25.588199
 31
0.0
  0
LINE
  5
3c3
100
AcDbEntity
  8
text
 62
7
100
AcDbLine
 10
19.584217
 20
25.588199
 30
0.0
 11
19.515394
 21
25.454853
 31
0.0
  0
LINE
  5
3c4
100
AcDbEntity
  8
text
 62
7
100
AcDbLine
 10
19.515394
 20
25.454853
 30
0.0
 11
19.446570
 21
25.386029
 31
0.0
  0
LINE
  5
3c5
100
AcDbEntity
  8
text
 62
7
100
AcDbLine
 10
19.446570
 20
25.386029
 30
0.0
 11
19.244400
 21
25.317205
 31
0.0
  0
LINE
  5
3c6
100
AcDbEntity
  8
text
 62
7
100
AcDbLine
 10
19.244400
 20
25.317205
 30
0.0
 11
18.633588
 21
25.317205
 31
0.0
  0
LINE
  5
3c7
100
AcDbEntity
  8
text
 62
7
100
AcDbLine
 10
19.108903
 20
25.317205
 30
0.0
 11
19.584217
 21
24.573047
 31
0.0
  0
LINE
  5
3c8
100
AcDbEntity
  8
text
 62
7
100
AcDbLine
 10
25.295903
 20
118.149216
 30
0.0
 11
24.584701
 21
116.280900
 31
0.0
  0
LINE
  5
3c9
100
AcDbEntity
  8
text
 62
7
100
AcDbLine
 10
25.295903
 20
118.149216
 30
0.0
 11
26.007105
 21
116.280900
 31
0.0
  0
LINE
  5
3ca
100
AcDbEntity
  8
text
 62
7
100
AcDbLine
 10
24.849991
 20
116.901791
 30
0.0
 11
25.741815
 21
116.901791
 31
0.0
  0
LINE
  5
3cb
100
AcDbEntity
  8
text
 62
7
100
AcDbLine
 10
26.805792
 20
118.149216
 30
0.0
 11
26.805792
 21
116.280900
 31
0.0
  0
LINE
  5
3cc
100
AcDbEntity
  8
text
 62
7
100
AcDbLine
 10
26.184901
 20
118.149216
 30
0.0
 11
27.429504
 21
118.149216
 31
0.0
  0
LINE
  5
3cd
100
AcDbEntity
  8
text
 62
7
100
AcDbLine
 10
28.228202
 20
118.149216
 30
0.0
 11
28.228202
 21
116.280900
 31
0.0
  0
LINE
  5
3ce
100
AcDbEntity
  8
text
 62
7
100
AcDbLine
 10
27.607311
 20
118.149216
 30
0.0
 11
28.851914
 21
118.149216
 31
0.0
  0
LINE
  5
3cf
100
AcDbEntity
  8
text
 62
7
100
AcDbLine
 10
29.740913
 20
118.149216
 30
0.0
 11
29.029711
 21
116.280900
 31
0.0
  0
LINE
  5
3d0
100
AcDbEntity
  8
text
 62
7
100
AcDbLine
 10
29.740913
 20
118.149216
 30
0.0
 11
30.452115
 21
116.280900
 31
0.0
  0
LINE
  5
3d1
100
AcDbEntity
  8
text
 62
7
100
AcDbLine
 10
29.295001
 20
116.901791
 30
0.0
 11
30.186825
 21
116.901791
 31
0.0
  0
LINE
  5
3d2
100
AcDbEntity
  8
text
 62
7
100
AcDbLine
 10
32.142636
 20
117.703304
 30
0.0
 11
32.052325
 21
117.881104
 31
0.0
  0
LINE
  5
3d3
100
AcDbEntity
  8
text
 62
7
100
AcDbLine
 10
32.052325
 20
117.881104
 30
0.0
 11
31.874524
 21
118.058905
 31
0.0
  0
LINE
  5
3d4
100
AcDbEntity
  8
text
 62
7
100
AcDbLine
 10
31.874524
 20
118.058905
 30
0.0
 11
31.696724
 21
118.149216
 31
0.0
  0
LINE
  5
3d5
100
AcDbEntity
  8
text
 62
7
100
AcDbLine
 10
31.696724
 20
118.149216
 30
0.0
 11
31.341123
 21
118.149216
 31
0.0
  0
LINE
  5
3d6
100
AcDbEntity
  8
text
 62
7
100
AcDbLine
 10
31.341123
 20
118.149216
 30
0.0
 11
31.163322
 21
118.058905
 31
0.0
  0
LINE
  5
3d7
100
AcDbEntity
  8
text
 62
7
100
AcDbLine
 10
31.163322
 20
118.058905
 30
0.0
 11
30.985522
 21
117.881104
 31
0.0
  0
LINE
  5
3d8
100
AcDbEntity
  8
text
 62
7
100
AcDbLine
 10
30.985522
 20
117.881104
 30
0.0
 11
30.895211
 21
117.703304
 31
0.0
  0
LINE
  5
3d9
100
AcDbEntity
  8
text
 62
7
100
AcDbLine
 10
30.895211
 20
117.703304
 30
0.0
 11
30.807721
 21
117.438014
 31
0.0
  0
LINE
  5
3da
100
AcDbEntity
  8
text
 62
7
100
AcDbLine
 10
30.807721
 20
117.438014
 30
0.0
 11
30.807721
 21
116.992102
 31
0.0
  0
LINE
  5
3db
100
AcDbEntity
  8
text
 62
7
100
AcDbLine
 10
30.807721
 20
116.992102
 30
0.0
 11
30.895211
 21
116.726812
 31
0.0
  0
LINE
  5
3dc
100
AcDbEntity
  8
text
 62
7
100
AcDbLine
 10
30.895211
 20
116.726812
 30
0.0
 11
30.985522
 21
116.547601
 31
0.0
  0
LINE
  5
3dd
100
AcDbEntity
  8
text
 62
7
100
AcDbLine
 10
30.985522
 20
116.547601
 30
0.0
 11
31.163322
 21
116.369800
 31
0.0
  0
LINE
  5
3de
100
AcDbEntity
  8
text
 62
7
100
AcDbLine
 10
31.163322
 20
116.369800
 30
0.0
 11
31.341123
 21
116.280900
 31
0.0
  0
LINE
  5
3df
100
AcDbEntity
  8
text
 62
7
100
AcDbLine
 10
31.341123
 20
116.280900
 30
0.0
 11
31.696724
 21
116.280900
 31
0.0
  0
LINE
  5
3e0
100
AcDbEntity
  8
text
 62
7
100
AcDbLine
 10
31.696724
 20
116.280900
 30
0.0
 11
31.874524
 21
116.369800
 31
0.0
  0
LINE
  5
3e1
100
AcDbEntity
  8
text
 62
7
100
AcDbLine
 10
31.874524
 20
116.369800
 30
0.0
 11
32.052325
 21
116.547601
 31
0.0
  0
LINE
  5
3e2
100
AcDbEntity
  8
text
 62
7
100
AcDbLine
 10
32.052325
 20
116.547601
 30
0.0
 11
32.142636
 21
116.726812
 31
0.0
  0
LINE
  5
3e3
100
AcDbEntity
  8
text
 62
7
100
AcDbLine
 10
32.763521
 20
118.149216
 30
0.0
 11
32.763521
 21
116.280900
 31
0.0
  0
LINE
  5
3e4
100
AcDbEntity
  8
text
 62
7
100
AcDbLine
 10
34.010946
 20
118.149216
 30
0.0
 11
32.763521
 21
116.901791
 31
0.0
  0
LINE
  5
3e5
100
AcDbEntity
  8
text
 62
7
100
AcDbLine
 10
33.209433
 20
117.347703
 30
0.0
 11
34.010946
 21
116.280900
 31
0.0
  0
LINE
  5
3e6
100
AcDbEntity
  8
text
 62
7
100
AcDbLine
 10
25.206991
 20
98.164716
 30
0.0
 11
25.206991
 21
96.296400
 31
0.0
  0
LINE
  5
3e7
100
AcDbEntity
  8
text
 62
7
100
AcDbLine
 10
25.206991
 20
98.164716
 30
0.0
 11
25.830703
 21
98.164716
 31
0.0
  0
LINE
  5
3e8
100
AcDbEntity
  8
text
 62
7
100
AcDbLine
 10
25.830703
 20
98.164716
 30
0.0
 11
26.098815
 21
98.074405
 31
0.0
  0
LINE
  5
3e9
100
AcDbEntity
  8
text
 62
7
100
AcDbLine
 10
26.098815
 20
98.074405
 30
0.0
 11
26.273794
 21
97.896604
 31
0.0
  0
LINE
  5
3ea
100
AcDbEntity
  8
text
 62
7
100
AcDbLine
 10
26.273794
 20
97.896604
 30
0.0
 11
26.364105
 21
97.718804
 31
0.0
  0
LINE
  5
3eb
100
AcDbEntity
  8
text
 62
7
100
AcDbLine
 10
26.364105
 20
97.718804
 30
0.0
 11
26.454416
 21
97.453514
 31
0.0
  0
LINE
  5
3ec
100
AcDbEntity
  8
text
 62
7
100
AcDbLine
 10
26.454416
 20
97.453514
 30
0.0
 11
26.454416
 21
97.007602
 31
0.0
  0
LINE
  5
3ed
100
AcDbEntity
  8
text
 62
7
100
AcDbLine
 10
26.454416
 20
97.007602
 30
0.0
 11
26.364105
 21
96.742312
 31
0.0
  0
LINE
  5
3ee
100
AcDbEntity
  8
text
 62
7
100
AcDbLine
 10
26.364105
 20
96.742312
 30
0.0
 11
26.273794
 21
96.563101
 31
0.0
  0
LINE
  5
3ef
100
AcDbEntity
  8
text
 62
7
100
AcDbLine
 10
26.273794
 20
96.563101
 30
0.0
 11
26.098815
 21
96.385300
 31
0.0
  0
LINE
  5
3f0
100
AcDbEntity
  8
text
 62
7
100
AcDbLine
 10
26.098815
 20
96.385300
 30
0.0
 11
25.830703
 21
96.296400
 31
0.0
  0
LINE
  5
3f1
100
AcDbEntity
  8
text
 62
7
100
AcDbLine
 10
25.830703
 20
96.296400
 30
0.0
 11
25.206991
 21
96.296400
 31
0.0
  0
LINE
  5
3f2
100
AcDbEntity
  8
text
 62
7
100
AcDbLine
 10
27.075311
 20
98.164716
 30
0.0
 11
27.075311
 21
96.296400
 31
0.0
  0
LINE
  5
3f3
100
AcDbEntity
  8
text
 62
7
100
AcDbLine
 10
27.075311
 20
98.164716
 30
0.0
 11
28.232425
 21
98.164716
 31
0.0
  0
LINE
  5
3f4
100
AcDbEntity
  8
text
 62
7
100
AcDbLine
 10
27.075311
 20
97.272892
 30
0.0
 11
27.786513
 21
97.272892
 31
0.0
  0
LINE
  5
3f5
100
AcDbEntity
  8
text
 62
7
100
AcDbLine
 10
27.075311
 20
96.296400
 30
0.0
 11
28.232425
 21
96.296400
 31
0.0
  0
LINE
  5
3f6
100
AcDbEntity
  8
text
 62
7
100
AcDbLine
 10
30.010426
 20
97.718804
 30
0.0
 11
29.920115
 21
97.896604
 31
0.0
  0
LINE
  5
3f7
100
AcDbEntity
  8
text
 62
7
100
AcDbLine
 10
29.920115
 20
97.896604
 30
0.0
 11
29.742314
 21
98.074405
 31
0.0
  0
LINE
  5
3f8
100
AcDbEntity
  8
text
 62
7
100
AcDbLine
 10
29.742314
 20
98.074405
 30
0.0
 11
29.564514
 21
98.164716
 31
0.0
  0
LINE
  5
3f9
100
AcDbEntity
  8
text
 62
7
100
AcDbLine
 10
29.564514
 20
98.164716
 30
0.0
 11
29.208913
 21
98.164716
 31
0.0
  0
LINE
  5
3fa
100
AcDbEntity
  8
text
 62
7
100
AcDbLine
 10
29.208913
 20
98.164716
 30
0.0
 11
29.031112
 21
98.074405
 31
0.0
  0
LINE
  5
3fb
100
AcDbEntity
  8
text
 62
7
100
AcDbLine
 10
29.031112
 20
98.074405
 30
0.0
 11
28.853312
 21
97.896604
 31
0.0
  0
LINE
  5
3fc
100
AcDbEntity
  8
text
 62
7
100
AcDbLine
 10
28.853312
 20
97.896604
 30
0.0
 11
28.763001
 21
97.718804
 31
0.0
  0
LINE
  5
3fd
100
AcDbEntity
  8
text
 62
7
100
AcDbLine
 10
28.763001
 20
97.718804
 30
0.0
 11
28.675511
 21
97.453514
 31
0.0
  0
LINE
  5
3fe
100
AcDbEntity
  8
text
 62
7
100
AcDbLine
 10
28.675511
 20
97.453514
 30
0.0
 11
28.675511
 21
97.007602
 31
0.0
  0
LINE
  5
3ff
100
AcDbEntity
  8
text
 62
7
100
AcDbLine
 10
28.675511
 20
97.007602
 30
0.0
 11
28.763001
 21
96.742312
 31
0.0
  0
LINE
  5
400
100
AcDbEntity
  8
text
 62
7
100
AcDbLine
 10
28.763001
 20
96.742312
 30
0.0
 11
28.853312
 21
96.563101
 31
0.0
  0
LINE
  5
401
100
AcDbEntity
  8
text
 62
7
100
AcDbLine
 10
28.853312
 20
96.563101
 30
0.0
 11
29.031112
 21
96.385300
 31
0.0
  0
LINE
  5
402
100
AcDbEntity
  8
text
 62
7
100
AcDbLine
 10
29.031112
 20
96.385300
 30
0.0
 11
29.208913
 21
96.296400
 31
0.0
  0
LINE
  5
403
100
AcDbEntity
  8
text
 62
7
100
AcDbLine
 10
29.208913
 20
96.296400
 30
0.0
 11
29.564514
 21
96.296400
 31
0.0
  0
LINE
  5
404
100
AcDbEntity
  8
text
 62
7
100
AcDbLine
 10
29.564514
 20
96.296400
 30
0.0
 11
29.742314
 21
96.385300
 31
0.0
  0
LINE
  5
405
100
AcDbEntity
  8
text
 62
7
100
AcDbLine
 10
29.742314
 20
96.385300
 30
0.0
 11
29.920115
 21
96.563101
 31
0.0
  0
LINE
  5
406
100
AcDbEntity
  8
text
 62
7
100
AcDbLine
 10
29.920115
 20
96.563101
 30
0.0
 11
30.010426
 21
96.742312
 31
0.0
  0
LINE
  5
407
100
AcDbEntity
  8
text
 62
7
100
AcDbLine
 10
31.077233
 20
98.164716
 30
0.0
 11
30.366031
 21
96.296400
 31
0.0
  0
LINE
  5
408
100
AcDbEntity
  8
text
 62
7
100
AcDbLine
 10
31.077233
 20
98.164716
 30
0.0
 11
31.788435
 21
96.296400
 31
0.0
  0
LINE
  5
409
100
AcDbEntity
  8
text
 62
7
100
AcDbLine
 10
30.631321
 20
96.917291
 30
0.0
 11
31.523145
 21
96.917291
 31
0.0
  0
LINE
  5
40a
100
AcDbEntity
  8
text
 62
7
100
AcDbLine
 10
31.966231
 20
98.164716
 30
0.0
 11
32.677433
 21
97.272892
 31
0.0
  0
LINE
  5
40b
100
AcDbEntity
  8
text
 62
7
100
AcDbLine
 10
32.677433
 20
97.272892
 30
0.0
 11
32.677433
 21
96.296400
 31
0.0
  0
LINE
  5
40c
100
AcDbEntity
  8
text
 62
7
100
AcDbLine
 10
33.388635
 20
98.164716
 30
0.0
 11
32.677433
 21
97.272892
 31
0.0
  0
LINE
  5
40d
100
AcDbEntity
  8
text
 62
7
100
AcDbLine
 10
23.651991
 20
58.195821
 30
0.0
 11
23.651991
 21
56.327505
 31
0.0
  0
LINE
  5
40e
100
AcDbEntity
  8
text
 62
7
100
AcDbLine
 10
23.651991
 20
58.195821
 30
0.0
 11
24.453504
 21
58.195821
 31
0.0
  0
LINE
  5
40f
100
AcDbEntity
  8
text
 62
7
100
AcDbLine
 10
24.453504
 20
58.195821
 30
0.0
 11
24.718794
 21
58.105510
 31
0.0
  0
LINE
  5
410
100
AcDbEntity
  8
text
 62
7
100
AcDbLine
 10
24.718794
 20
58.105510
 30
0.0
 11
24.809105
 21
58.015199
 31
0.0
  0
LINE
  5
411
100
AcDbEntity
  8
text
 62
7
100
AcDbLine
 10
24.809105
 20
58.015199
 30
0.0
 11
24.899416
 21
57.840220
 31
0.0
  0
LINE
  5
412
100
AcDbEntity
  8
text
 62
7
100
AcDbLine
 10
24.899416
 20
57.840220
 30
0.0
 11
24.899416
 21
57.659598
 31
0.0
  0
LINE
  5
413
100
AcDbEntity
  8
text
 62
7
100
AcDbLine
 10
24.899416
 20
57.659598
 30
0.0
 11
24.809105
 21
57.484619
 31
0.0
  0
LINE
  5
414
100
AcDbEntity
  8
text
 62
7
100
AcDbLine
 10
24.809105
 20
57.484619
 30
0.0
 11
24.718794
 21
57.394308
 31
0.0
  0
LINE
  5
415
100
AcDbEntity
  8
text
 62
7
100
AcDbLine
 10
24.718794
 20
57.394308
 30
0.0
 11
24.453504
 21
57.303997
 31
0.0
  0
LINE
  5
416
100
AcDbEntity
  8
text
 62
7
100
AcDbLine
 10
24.453504
 20
57.303997
 30
0.0
 11
23.651991
 21
57.303997
 31
0.0
  0
LINE
  5
417
100
AcDbEntity
  8
text
 62
7
100
AcDbLine
 10
24.275703
 20
57.303997
 30
0.0
 11
24.899416
 21
56.327505
 31
0.0
  0
LINE
  5
418
100
AcDbEntity
  8
text
 62
7
100
AcDbLine
 10
25.520311
 20
58.195821
 30
0.0
 11
25.520311
 21
56.327505
 31
0.0
  0
LINE
  5
419
100
AcDbEntity
  8
text
 62
7
100
AcDbLine
 10
25.520311
 20
58.195821
 30
0.0
 11
26.677425
 21
58.195821
 31
0.0
  0
LINE
  5
41a
100
AcDbEntity
  8
text
 62
7
100
AcDbLine
 10
25.520311
 20
57.303997
 30
0.0
 11
26.231513
 21
57.303997
 31
0.0
  0
LINE
  5
41b
100
AcDbEntity
  8
text
 62
7
100
AcDbLine
 10
25.520311
 20
56.327505
 30
0.0
 11
26.677425
 21
56.327505
 31
0.0
  0
LINE
  5
41c
100
AcDbEntity
  8
text
 62
7
100
AcDbLine
 10
27.208001
 20
58.195821
 30
0.0
 11
27.208001
 21
56.327505
 31
0.0
  0
LINE
  5
41d
100
AcDbEntity
  8
text
 62
7
100
AcDbLine
 10
27.208001
 20
56.327505
 30
0.0
 11
28.274804
 21
56.327505
 31
0.0
  0
LINE
  5
41e
100
AcDbEntity
  8
text
 62
7
100
AcDbLine
 10
28.720721
 20
58.195821
 30
0.0
 11
28.720721
 21
56.327505
 31
0.0
  0
LINE
  5
41f
100
AcDbEntity
  8
text
 62
7
100
AcDbLine
 10
28.720721
 20
58.195821
 30
0.0
 11
29.877835
 21
58.195821
 31
0.0
  0
LINE
  5
420
100
AcDbEntity
  8
text
 62
7
100
AcDbLine
 10
28.720721
 20
57.303997
 30
0.0
 11
29.431923
 21
57.303997
 31
0.0
  0
LINE
  5
421
100
AcDbEntity
  8
text
 62
7
100
AcDbLine
 10
28.720721
 20
56.327505
 30
0.0
 11
29.877835
 21
56.327505
 31
0.0
  0
LINE
  5
422
100
AcDbEntity
  8
text
 62
7
100
AcDbLine
 10
30.854323
 20
58.195821
 30
0.0
 11
30.143121
 21
56.327505
 31
0.0
  0
LINE
  5
423
100
AcDbEntity
  8
text
 62
7
100
AcDbLine
 10
30.854323
 20
58.195821
 30
0.0
 11
31.565525
 21
56.327505
 31
0.0
  0
LINE
  5
424
100
AcDbEntity
  8
text
 62
7
100
AcDbLine
 10
30.408411
 20
56.948396
 30
0.0
 11
31.300235
 21
56.948396
 31
0.0
  0
LINE
  5
425
100
AcDbEntity
  8
text
 62
7
100
AcDbLine
 10
33.165725
 20
57.927709
 30
0.0
 11
32.987924
 21
58.105510
 31
0.0
  0
LINE
  5
426
100
AcDbEntity
  8
text
 62
7
100
AcDbLine
 10
32.987924
 20
58.105510
 30
0.0
 11
32.719813
 21
58.195821
 31
0.0
  0
LINE
  5
427
100
AcDbEntity
  8
text
 62
7
100
AcDbLine
 10
32.719813
 20
58.195821
 30
0.0
 11
32.364212
 21
58.195821
 31
0.0
  0
LINE
  5
428
100
AcDbEntity
  8
text
 62
7
100
AcDbLine
 10
32.364212
 20
58.195821
 30
0.0
 11
32.098922
 21
58.105510
 31
0.0
  0
LINE
  5
429
100
AcDbEntity
  8
text
 62
7
100
AcDbLine
 10
32.098922
 20
58.105510
 30
0.0
 11
31.921121
 21
57.927709
 31
0.0
  0
LINE
  5
42a
100
AcDbEntity
  8
text
 62
7
100
AcDbLine
 10
31.921121
 20
57.927709
 30
0.0
 11
31.921121
 21
57.749909
 31
0.0
  0
LINE
  5
42b
100
AcDbEntity
  8
text
 62
7
100
AcDbLine
 10
31.921121
 20
57.749909
 30
0.0
 11
32.008611
 21
57.572108
 31
0.0
  0
LINE
  5
42c
100
AcDbEntity
  8
text
 62
7
100
AcDbLine
 10
32.008611
 20
57.572108
 30
0.0
 11
32.098922
 21
57.484619
 31
0.0
  0
LINE
  5
42d
100
AcDbEntity
  8
text
 62
7
100
AcDbLine
 10
32.098922
 20
57.484619
 30
0.0
 11
32.276722
 21
57.394308
 31
0.0
  0
LINE
  5
42e
100
AcDbEntity
  8
text
 62
7
100
AcDbLine
 10
32.276722
 20
57.394308
 30
0.0
 11
32.810124
 21
57.216507
 31
0.0
  0
LINE
  5
42f
100
AcDbEntity
  8
text
 62
7
100
AcDbLine
 10
32.810124
 20
57.216507
 30
0.0
 11
32.987924
 21
57.129018
 31
0.0
  0
LINE
  5
430
100
AcDbEntity
  8
text
 62
7
100
AcDbLine
 10
32.987924
 20
57.129018
 30
0.0
 11
33.075414
 21
57.038707
 31
0.0
  0
LINE
  5
431
100
AcDbEntity
  8
text
 62
7
100
AcDbLine
 10
33.075414
 20
57.038707
 30
0.0
 11
33.165725
 21
56.860906
 31
0.0
  0
LINE
  5
432
100
AcDbEntity
  8
text
 62
7
100
AcDbLine
 10
33.165725
 20
56.860906
 30
0.0
 11
33.165725
 21
56.594206
 31
0.0
  0
LINE
  5
433
100
AcDbEntity
  8
text
 62
7
100
AcDbLine
 10
33.165725
 20
56.594206
 30
0.0
 11
32.987924
 21
56.416405
 31
0.0
  0
LINE
  5
434
100
AcDbEntity
  8
text
 62
7
100
AcDbLine
 10
32.987924
 20
56.416405
 30
0.0
 11
32.719813
 21
56.327505
 31
0.0
  0
LINE
  5
435
100
AcDbEntity
  8
text
 62
7
100
AcDbLine
 10
32.719813
 20
56.327505
 30
0.0
 11
32.364212
 21
56.327505
 31
0.0
  0
LINE
  5
436
100
AcDbEntity
  8
text
 62
7
100
AcDbLine
 10
32.364212
 20
56.327505
 30
0.0
 11
32.098922
 21
56.416405
 31
0.0
  0
LINE
  5
437
100
AcDbEntity
  8
text
 62
7
100
AcDbLine
 10
32.098922
 20
56.416405
 30
0.0
 11
31.921121
 21
56.594206
 31
0.0
  0
LINE
  5
438
100
AcDbEntity
  8
text
 62
7
100
AcDbLine
 10
33.786591
 20
58.195821
 30
0.0
 11
33.786591
 21
56.327505
 31
0.0
  0
LINE
  5
439
100
AcDbEntity
  8
text
 62
7
100
AcDbLine
 10
33.786591
 20
58.195821
 30
0.0
 11
34.943705
 21
58.195821
 31
0.0
  0
LINE
  5
43a
100
AcDbEntity
  8
text
 62
7
100
AcDbLine
 10
33.786591
 20
57.303997
 30
0.0
 11
34.497793
 21
57.303997
 31
0.0
  0
LINE
  5
43b
100
AcDbEntity
  8
text
 62
7
100
AcDbLine
 10
33.786591
 20
56.327505
 30
0.0
 11
34.943705
 21
56.327505
 31
0.0
  0
LINE
  5
43c
100
AcDbEntity
  8
text
 62
7
100
AcDbLine
 10
25.252205
 20
77.912204
 30
0.0
 11
25.074404
 21
78.090005
 31
0.0
  0
LINE
  5
43d
100
AcDbEntity
  8
text
 62
7
100
AcDbLine
 10
25.074404
 20
78.090005
 30
0.0
 11
24.806293
 21
78.180316
 31
0.0
  0
LINE
  5
43e
100
AcDbEntity
  8
text
 62
7
100
AcDbLine
 10
24.806293
 20
78.180316
 30
0.0
 11
24.450692
 21
78.180316
 31
0.0
  0
LINE
  5
43f
100
AcDbEntity
  8
text
 62
7
100
AcDbLine
 10
24.450692
 20
78.180316
 30
0.0
 11
24.185402
 21
78.090005
 31
0.0
  0
LINE
  5
440
100
AcDbEntity
  8
text
 62
7
100
AcDbLine
 10
24.185402
 20
78.090005
 30
0.0
 11
24.007601
 21
77.912204
 31
0.0
  0
LINE
  5
441
100
AcDbEntity
  8
text
 62
7
100
AcDbLine
 10
24.007601
 20
77.912204
 30
0.0
 11
24.007601
 21
77.734404
 31
0.0
  0
LINE
  5
442
100
AcDbEntity
  8
text
 62
7
100
AcDbLine
 10
24.007601
 20
77.734404
 30
0.0
 11
24.095091
 21
77.556603
 31
0.0
  0
LINE
  5
443
100
AcDbEntity
  8
text
 62
7
100
AcDbLine
 10
24.095091
 20
77.556603
 30
0.0
 11
24.185402
 21
77.469114
 31
0.0
  0
LINE
  5
444
100
AcDbEntity
  8
text
 62
7
100
AcDbLine
 10
24.185402
 20
77.469114
 30
0.0
 11
24.363202
 21
77.378803
 31
0.0
  0
LINE
  5
445
100
AcDbEntity
  8
text
 62
7
100
AcDbLine
 10
24.363202
 20
77.378803
 30
0.0
 11
24.896604
 21
77.201002
 31
0.0
  0
LINE
  5
446
100
AcDbEntity
  8
text
 62
7
100
AcDbLine
 10
24.896604
 20
77.201002
 30
0.0
 11
25.074404
 21
77.113513
 31
0.0
  0
LINE
  5
447
100
AcDbEntity
  8
text
 62
7
100
AcDbLine
 10
25.074404
 20
77.113513
 30
0.0
 11
25.161894
 21
77.023202
 31
0.0
  0
LINE
  5
448
100
AcDbEntity
  8
text
 62
7
100
AcDbLine
 10
25.161894
 20
77.023202
 30
0.0
 11
25.252205
 21
76.845401
 31
0.0
  0
LINE
  5
449
100
AcDbEntity
  8
text
 62
7
100
AcDbLine
 10
25.252205
 20
76.845401
 30
0.0
 11
25.252205
 21
76.578701
 31
0.0
  0
LINE
  5
44a
100
AcDbEntity
  8
text
 62
7
100
AcDbLine
 10
25.252205
 20
76.578701
 30
0.0
 11
25.074404
 21
76.400900
 31
0.0
  0
LINE
  5
44b
100
AcDbEntity
  8
text
 62
7
100
AcDbLine
 10
25.074404
 20
76.400900
 30
0.0
 11
24.806293
 21
76.312000
 31
0.0
  0
LINE
  5
44c
100
AcDbEntity
  8
text
 62
7
100
AcDbLine
 10
24.806293
 20
76.312000
 30
0.0
 11
24.450692
 21
76.312000
 31
0.0
  0
LINE
  5
44d
100
AcDbEntity
  8
text
 62
7
100
AcDbLine
 10
24.450692
 20
76.312000
 30
0.0
 11
24.185402
 21
76.400900
 31
0.0
  0
LINE
  5
44e
100
AcDbEntity
  8
text
 62
7
100
AcDbLine
 10
24.185402
 20
76.400900
 30
0.0
 11
24.007601
 21
76.578701
 31
0.0
  0
LINE
  5
44f
100
AcDbEntity
  8
text
 62
7
100
AcDbLine
 10
25.873091
 20
78.180316
 30
0.0
 11
25.873091
 21
76.845401
 31
0.0
  0
LINE
  5
450
100
AcDbEntity
  8
text
 62
7
100
AcDbLine
 10
25.873091
 20
76.845401
 30
0.0
 11
25.963402
 21
76.578701
 31
0.0
  0
LINE
  5
451
100
AcDbEntity
  8
text
 62
7
100
AcDbLine
 10
25.963402
 20
76.578701
 30
0.0
 11
26.141202
 21
76.400900
 31
0.0
  0
LINE
  5
452
100
AcDbEntity
  8
text
 62
7
100
AcDbLine
 10
26.141202
 20
76.400900
 30
0.0
 11
26.409314
 21
76.312000
 31
0.0
  0
LINE
  5
453
100
AcDbEntity
  8
text
 62
7
100
AcDbLine
 10
26.409314
 20
76.312000
 30
0.0
 11
26.584293
 21
76.312000
 31
0.0
  0
LINE
  5
454
100
AcDbEntity
  8
text
 62
7
100
AcDbLine
 10
26.584293
 20
76.312000
 30
0.0
 11
26.852404
 21
76.400900
 31
0.0
  0
LINE
  5
455
100
AcDbEntity
  8
text
 62
7
100
AcDbLine
 10
26.852404
 20
76.400900
 30
0.0
 11
27.030205
 21
76.578701
 31
0.0
  0
LINE
  5
456
100
AcDbEntity
  8
text
 62
7
100
AcDbLine
 10
27.030205
 20
76.578701
 30
0.0
 11
27.120516
 21
76.845401
 31
0.0
  0
LINE
  5
457
100
AcDbEntity
  8
text
 62
7
100
AcDbLine
 10
27.120516
 20
76.845401
 30
0.0
 11
27.120516
 21
78.180316
 31
0.0
  0
LINE
  5
458
100
AcDbEntity
  8
text
 62
7
100
AcDbLine
 10
28.986015
 20
77.912204
 30
0.0
 11
28.808214
 21
78.090005
 31
0.0
  0
LINE
  5
459
100
AcDbEntity
  8
text
 62
7
100
AcDbLine
 10
28.808214
 20
78.090005
 30
0.0
 11
28.540103
 21
78.180316
 31
0.0
  0
LINE
  5
45a
100
AcDbEntity
  8
text
 62
7
100
AcDbLine
 10
28.540103
 20
78.180316
 30
0.0
 11
28.184502
 21
78.180316
 31
0.0
  0
LINE
  5
45b
100
AcDbEntity
  8
text
 62
7
100
AcDbLine
 10
28.184502
 20
78.180316
 30
0.0
 11
27.919212
 21
78.090005
 31
0.0
  0
LINE
  5
45c
100
AcDbEntity
  8
text
 62
7
100
AcDbLine
 10
27.919212
 20
78.090005
 30
0.0
 11
27.741411
 21
77.912204
 31
0.0
  0
LINE
  5
45d
100
AcDbEntity
  8
text
 62
7
100
AcDbLine
 10
27.741411
 20
77.912204
 30
0.0
 11
27.741411
 21
77.734404
 31
0.0
  0
LINE
  5
45e
100
AcDbEntity
  8
text
 62
7
100
AcDbLine
 10
27.741411
 20
77.734404
 30
0.0
 11
27.828901
 21
77.556603
 31
0.0
  0
LINE
  5
45f
100
AcDbEntity
  8
text
 62
7
100
AcDbLine
 10
27.828901
 20
77.556603
 30
0.0
 11
27.919212
 21
77.469114
 31
0.0
  0
LINE
  5
460
100
AcDbEntity
  8
text
 62
7
100
AcDbLine
 10
27.919212
 20
77.469114
 30
0.0
 11
28.097012
 21
77.378803
 31
0.0
  0
LINE
  5
461
100
AcDbEntity
  8
text
 62
7
100
AcDbLine
 10
28.097012
 20
77.378803
 30
0.0
 11
28.630414
 21
77.201002
 31
0.0
  0
LINE
  5
462
100
AcDbEntity
  8
text
 62
7
100
AcDbLine
 10
28.630414
 20
77.201002
 30
0.0
 11
28.808214
 21
77.113513
 31
0.0
  0
LINE
  5
463
100
AcDbEntity
  8
text
 62
7
100
AcDbLine
 10
28.808214
 20
77.113513
 30
0.0
 11
28.895704
 21
77.023202
 31
0.0
  0
LINE
  5
464
100
AcDbEntity
  8
text
 62
7
100
AcDbLine
 10
28.895704
 20
77.023202
 30
0.0
 11
28.986015
 21
76.845401
 31
0.0
  0
LINE
  5
465
100
AcDbEntity
  8
text
 62
7
100
AcDbLine
 10
28.986015
 20
76.845401
 30
0.0
 11
28.986015
 21
76.578701
 31
0.0
  0
LINE
  5
466
100
AcDbEntity
  8
text
 62
7
100
AcDbLine
 10
28.986015
 20
76.578701
 30
0.0
 11
28.808214
 21
76.400900
 31
0.0
  0
LINE
  5
467
100
AcDbEntity
  8
text
 62
7
100
AcDbLine
 10
28.808214
 20
76.400900
 30
0.0
 11
28.540103
 21
76.312000
 31
0.0
  0
LINE
  5
468
100
AcDbEntity
  8
text
 62
7
100
AcDbLine
 10
28.540103
 20
76.312000
 30
0.0
 11
28.184502
 21
76.312000
 31
0.0
  0
LINE
  5
469
100
AcDbEntity
  8
text
 62
7
100
AcDbLine
 10
28.184502
 20
76.312000
 30
0.0
 11
27.919212
 21
76.400900
 31
0.0
  0
LINE
  5
46a
100
AcDbEntity
  8
text
 62
7
100
AcDbLine
 10
27.919212
 20
76.400900
 30
0.0
 11
27.741411
 21
76.578701
 31
0.0
  0
LINE
  5
46b
100
AcDbEntity
  8
text
 62
7
100
AcDbLine
 10
29.962512
 20
78.180316
 30
0.0
 11
29.962512
 21
76.312000
 31
0.0
  0
LINE
  5
46c
100
AcDbEntity
  8
text
 62
7
100
AcDbLine
 10
29.341621
 20
78.180316
 30
0.0
 11
30.586224
 21
78.180316
 31
0.0
  0
LINE
  5
46d
100
AcDbEntity
  8
text
 62
7
100
AcDbLine
 10
31.475223
 20
78.180316
 30
0.0
 11
30.764021
 21
76.312000
 31
0.0
  0
LINE
  5
46e
100
AcDbEntity
  8
text
 62
7
100
AcDbLine
 10
31.475223
 20
78.180316
 30
0.0
 11
32.186425
 21
76.312000
 31
0.0
  0
LINE
  5
46f
100
AcDbEntity
  8
text
 62
7
100
AcDbLine
 10
31.029311
 20
76.932891
 30
0.0
 11
31.921135
 21
76.932891
 31
0.0
  0
LINE
  5
470
100
AcDbEntity
  8
text
 62
7
100
AcDbLine
 10
32.629511
 20
78.180316
 30
0.0
 11
32.629511
 21
76.312000
 31
0.0
  0
LINE
  5
471
100
AcDbEntity
  8
text
 62
7
100
AcDbLine
 10
33.340721
 20
78.180316
 30
0.0
 11
33.340721
 21
76.312000
 31
0.0
  0
LINE
  5
472
100
AcDbEntity
  8
text
 62
7
100
AcDbLine
 10
33.340721
 20
78.180316
 30
0.0
 11
34.588146
 21
76.312000
 31
0.0
  0
LINE
  5
473
100
AcDbEntity
  8
text
 62
7
100
AcDbLine
 10
34.588146
 20
78.180316
 30
0.0
 11
34.588146
 21
76.312000
 31
0.0
  0
LINE
  5
474
100
AcDbEntity
  8
text
 62
7
100
AcDbLine
 10
8.611716
 20
107.695204
 30
0.0
 11
8.521405
 21
107.873004
 31
0.0
  0
LINE
  5
475
100
AcDbEntity
  8
text
 62
7
100
AcDbLine
 10
8.521405
 20
107.873004
 30
0.0
 11
8.343604
 21
108.050805
 31
0.0
  0
LINE
  5
476
100
AcDbEntity
  8
text
 62
7
100
AcDbLine
 10
8.343604
 20
108.050805
 30
0.0
 11
8.165804
 21
108.141116
 31
0.0
  0
LINE
  5
477
100
AcDbEntity
  8
text
 62
7
100
AcDbLine
 10
8.165804
 20
108.141116
 30
0.0
 11
7.810203
 21
108.141116
 31
0.0
  0
LINE
  5
478
100
AcDbEntity
  8
text
 62
7
100
AcDbLine
 10
7.810203
 20
108.141116
 30
0.0
 11
7.632402
 21
108.050805
 31
0.0
  0
LINE
  5
479
100
AcDbEntity
  8
text
 62
7
100
AcDbLine
 10
7.632402
 20
108.050805
 30
0.0
 11
7.454602
 21
107.873004
 31
0.0
  0
LINE
  5
47a
100
AcDbEntity
  8
text
 62
7
100
AcDbLine
 10
7.454602
 20
107.873004
 30
0.0
 11
7.364291
 21
107.695204
 31
0.0
  0
LINE
  5
47b
100
AcDbEntity
  8
text
 62
7
100
AcDbLine
 10
7.364291
 20
107.695204
 30
0.0
 11
7.276801
 21
107.429914
 31
0.0
  0
LINE
  5
47c
100
AcDbEntity
  8
text
 62
7
100
AcDbLine
 10
7.276801
 20
107.429914
 30
0.0
 11
7.276801
 21
106.984002
 31
0.0
  0
LINE
  5
47d
100
AcDbEntity
  8
text
 62
7
100
AcDbLine
 10
7.276801
 20
106.984002
 30
0.0
 11
7.364291
 21
106.718712
 31
0.0
  0
LINE
  5
47e
100
AcDbEntity
  8
text
 62
7
100
AcDbLine
 10
7.364291
 20
106.718712
 30
0.0
 11
7.454602
 21
106.539501
 31
0.0
  0
LINE
  5
47f
100
AcDbEntity
  8
text
 62
7
100
AcDbLine
 10
7.454602
 20
106.539501
 30
0.0
 11
7.632402
 21
106.361700
 31
0.0
  0
LINE
  5
480
100
AcDbEntity
  8
text
 62
7
100
AcDbLine
 10
7.632402
 20
106.361700
 30
0.0
 11
7.810203
 21
106.272800
 31
0.0
  0
LINE
  5
481
100
AcDbEntity
  8
text
 62
7
100
AcDbLine
 10
7.810203
 20
106.272800
 30
0.0
 11
8.165804
 21
106.272800
 31
0.0
  0
LINE
  5
482
100
AcDbEntity
  8
text
 62
7
100
AcDbLine
 10
8.165804
 20
106.272800
 30
0.0
 11
8.343604
 21
106.361700
 31
0.0
  0
LINE
  5
483
100
AcDbEntity
  8
text
 62
7
100
AcDbLine
 10
8.343604
 20
106.361700
 30
0.0
 11
8.521405
 21
106.539501
 31
0.0
  0
LINE
  5
484
100
AcDbEntity
  8
text
 62
7
100
AcDbLine
 10
8.521405
 20
106.539501
 30
0.0
 11
8.611716
 21
106.718712
 31
0.0
  0
LINE
  5
485
100
AcDbEntity
  8
text
 62
7
100
AcDbLine
 10
8.611716
 20
106.718712
 30
0.0
 11
8.611716
 21
106.984002
 31
0.0
  0
LINE
  5
486
100
AcDbEntity
  8
text
 62
7
100
AcDbLine
 10
8.165804
 20
106.984002
 30
0.0
 11
8.611716
 21
106.984002
 31
0.0
  0
LINE
  5
487
100
AcDbEntity
  8
text
 62
7
100
AcDbLine
 10
9.678523
 20
108.141116
 30
0.0
 11
8.967321
 21
106.272800
 31
0.0
  0
LINE
  5
488
100
AcDbEntity
  8
text
 62
7
100
AcDbLine
 10
9.678523
 20
108.141116
 30
0.0
 11
10.389725
 21
106.272800
 31
0.0
  0
LINE
  5
489
100
AcDbEntity
  8
text
 62
7
100
AcDbLine
 10
9.232611
 20
106.893691
 30
0.0
 11
10.124435
 21
106.893691
 31
0.0
  0
LINE
  5
48a
100
AcDbEntity
  8
text
 62
7
100
AcDbLine
 10
11.188412
 20
108.141116
 30
0.0
 11
11.188412
 21
106.272800
 31
0.0
  0
LINE
  5
48b
100
AcDbEntity
  8
text
 62
7
100
AcDbLine
 10
10.567521
 20
108.141116
 30
0.0
 11
11.812124
 21
108.141116
 31
0.0
  0
LINE
  5
48c
100
AcDbEntity
  8
text
 62
7
100
AcDbLine
 10
12.255211
 20
108.141116
 30
0.0
 11
12.255211
 21
106.272800
 31
0.0
  0
LINE
  5
48d
100
AcDbEntity
  8
text
 62
7
100
AcDbLine
 10
12.255211
 20
108.141116
 30
0.0
 11
13.412325
 21
108.141116
 31
0.0
  0
LINE
  5
48e
100
AcDbEntity
  8
text
 62
7
100
AcDbLine
 10
12.255211
 20
107.249292
 30
0.0
 11
12.966413
 21
107.249292
 31
0.0
  0
LINE
  5
48f
100
AcDbEntity
  8
text
 62
7
100
AcDbLine
 10
12.255211
 20
106.272800
 30
0.0
 11
13.412325
 21
106.272800
 31
0.0
  0
LINE
  5
490
100
AcDbEntity
  8
text
 62
7
100
AcDbLine
 10
5.495892
 20
88.156616
 30
0.0
 11
5.495892
 21
86.288300
 31
0.0
  0
LINE
  5
491
100
AcDbEntity
  8
text
 62
7
100
AcDbLine
 10
4.875001
 20
88.156616
 30
0.0
 11
6.119604
 21
88.156616
 31
0.0
  0
LINE
  5
492
100
AcDbEntity
  8
text
 62
7
100
AcDbLine
 10
6.562691
 20
88.156616
 30
0.0
 11
6.562691
 21
86.288300
 31
0.0
  0
LINE
  5
493
100
AcDbEntity
  8
text
 62
7
100
AcDbLine
 10
6.562691
 20
88.156616
 30
0.0
 11
7.364204
 21
88.156616
 31
0.0
  0
LINE
  5
494
100
AcDbEntity
  8
text
 62
7
100
AcDbLine
 10
7.364204
 20
88.156616
 30
0.0
 11
7.629494
 21
88.066305
 31
0.0
  0
LINE
  5
495
100
AcDbEntity
  8
text
 62
7
100
AcDbLine
 10
7.629494
 20
88.066305
 30
0.0
 11
7.719805
 21
87.975994
 31
0.0
  0
LINE
  5
496
100
AcDbEntity
  8
text
 62
7
100
AcDbLine
 10
7.719805
 20
87.975994
 30
0.0
 11
7.810116
 21
87.801015
 31
0.0
  0
LINE
  5
497
100
AcDbEntity
  8
text
 62
7
100
AcDbLine
 10
7.810116
 20
87.801015
 30
0.0
 11
7.810116
 21
87.620393
 31
0.0
  0
LINE
  5
498
100
AcDbEntity
  8
text
 62
7
100
AcDbLine
 10
7.810116
 20
87.620393
 30
0.0
 11
7.719805
 21
87.445414
 31
0.0
  0
LINE
  5
499
100
AcDbEntity
  8
text
 62
7
100
AcDbLine
 10
7.719805
 20
87.445414
 30
0.0
 11
7.629494
 21
87.355103
 31
0.0
  0
LINE
  5
49a
100
AcDbEntity
  8
text
 62
7
100
AcDbLine
 10
7.629494
 20
87.355103
 30
0.0
 11
7.364204
 21
87.264792
 31
0.0
  0
LINE
  5
49b
100
AcDbEntity
  8
text
 62
7
100
AcDbLine
 10
7.364204
 20
87.264792
 30
0.0
 11
6.562691
 21
87.264792
 31
0.0
  0
LINE
  5
49c
100
AcDbEntity
  8
text
 62
7
100
AcDbLine
 10
7.186403
 20
87.264792
 30
0.0
 11
7.810116
 21
86.288300
 31
0.0
  0
LINE
  5
49d
100
AcDbEntity
  8
text
 62
7
100
AcDbLine
 10
8.431011
 20
88.156616
 30
0.0
 11
8.431011
 21
86.288300
 31
0.0
  0
LINE
  5
49e
100
AcDbEntity
  8
text
 62
7
100
AcDbLine
 10
10.389636
 20
87.710704
 30
0.0
 11
10.299325
 21
87.888504
 31
0.0
  0
LINE
  5
49f
100
AcDbEntity
  8
text
 62
7
100
AcDbLine
 10
10.299325
 20
87.888504
 30
0.0
 11
10.121524
 21
88.066305
 31
0.0
  0
LINE
  5
4a0
100
AcDbEntity
  8
text
 62
7
100
AcDbLine
 10
10.121524
 20
88.066305
 30
0.0
 11
9.943724
 21
88.156616
 31
0.0
  0
LINE
  5
4a1
100
AcDbEntity
  8
text
 62
7
100
AcDbLine
 10
9.943724
 20
88.156616
 30
0.0
 11
9.588123
 21
88.156616
 31
0.0
  0
LINE
  5
4a2
100
AcDbEntity
  8
text
 62
7
100
AcDbLine
 10
9.588123
 20
88.156616
 30
0.0
 11
9.410322
 21
88.066305
 31
0.0
  0
LINE
  5
4a3
100
AcDbEntity
  8
text
 62
7
100
AcDbLine
 10
9.410322
 20
88.066305
 30
0.0
 11
9.232522
 21
87.888504
 31
0.0
  0
LINE
  5
4a4
100
AcDbEntity
  8
text
 62
7
100
AcDbLine
 10
9.232522
 20
87.888504
 30
0.0
 11
9.142211
 21
87.710704
 31
0.0
  0
LINE
  5
4a5
100
AcDbEntity
  8
text
 62
7
100
AcDbLine
 10
9.142211
 20
87.710704
 30
0.0
 11
9.054721
 21
87.445414
 31
0.0
  0
LINE
  5
4a6
100
AcDbEntity
  8
text
 62
7
100
AcDbLine
 10
9.054721
 20
87.445414
 30
0.0
 11
9.054721
 21
86.999502
 31
0.0
  0
LINE
  5
4a7
100
AcDbEntity
  8
text
 62
7
100
AcDbLine
 10
9.054721
 20
86.999502
 30
0.0
 11
9.142211
 21
86.734212
 31
0.0
  0
LINE
  5
4a8
100
AcDbEntity
  8
text
 62
7
100
AcDbLine
 10
9.142211
 20
86.734212
 30
0.0
 11
9.232522
 21
86.555001
 31
0.0
  0
LINE
  5
4a9
100
AcDbEntity
  8
text
 62
7
100
AcDbLine
 10
9.232522
 20
86.555001
 30
0.0
 11
9.410322
 21
86.377200
 31
0.0
  0
LINE
  5
4aa
100
AcDbEntity
  8
text
 62
7
100
AcDbLine
 10
9.410322
 20
86.377200
 30
0.0
 11
9.588123
 21
86.288300
 31
0.0
  0
LINE
  5
4ab
100
AcDbEntity
  8
text
 62
7
100
AcDbLine
 10
9.588123
 20
86.288300
 30
0.0
 11
9.943724
 21
86.288300
 31
0.0
  0
LINE
  5
4ac
100
AcDbEntity
  8
text
 62
7
100
AcDbLine
 10
9.943724
 20
86.288300
 30
0.0
 11
10.121524
 21
86.377200
 31
0.0
  0
LINE
  5
4ad
100
AcDbEntity
  8
text
 62
7
100
AcDbLine
 10
10.121524
 20
86.377200
 30
0.0
 11
10.299325
 21
86.555001
 31
0.0
  0
LINE
  5
4ae
100
AcDbEntity
  8
text
 62
7
100
AcDbLine
 10
10.299325
 20
86.555001
 30
0.0
 11
10.389636
 21
86.734212
 31
0.0
  0
LINE
  5
4af
100
AcDbEntity
  8
text
 62
7
100
AcDbLine
 10
10.389636
 20
86.734212
 30
0.0
 11
10.389636
 21
86.999502
 31
0.0
  0
LINE
  5
4b0
100
AcDbEntity
  8
text
 62
7
100
AcDbLine
 10
9.943724
 20
86.999502
 30
0.0
 11
10.389636
 21
86.999502
 31
0.0
  0
LINE
  5
4b1
100
AcDbEntity
  8
text
 62
7
100
AcDbLine
 10
12.257956
 20
87.710704
 30
0.0
 11
12.167645
 21
87.888504
 31
0.0
  0
LINE
  5
4b2
100
AcDbEntity
  8
text
 62
7
100
AcDbLine
 10
12.167645
 20
87.888504
 30
0.0
 11
11.989844
 21
88.066305
 31
0.0
  0
LINE
  5
4b3
100
AcDbEntity
  8
text
 62
7
100
AcDbLine
 10
11.989844
 20
88.066305
 30
0.0
 11
11.812044
 21
88.156616
 31
0.0
  0
LINE
  5
4b4
100
AcDbEntity
  8
text
 62
7
100
AcDbLine
 10
11.812044
 20
88.156616
 30
0.0
 11
11.456443
 21
88.156616
 31
0.0
  0
LINE
  5
4b5
100
AcDbEntity
  8
text
 62
7
100
AcDbLine
 10
11.456443
 20
88.156616
 30
0.0
 11
11.278642
 21
88.066305
 31
0.0
  0
LINE
  5
4b6
100
AcDbEntity
  8
text
 62
7
100
AcDbLine
 10
11.278642
 20
88.066305
 30
0.0
 11
11.100842
 21
87.888504
 31
0.0
  0
LINE
  5
4b7
100
AcDbEntity
  8
text
 62
7
100
AcDbLine
 10
11.100842
 20
87.888504
 30
0.0
 11
11.010531
 21
87.710704
 31
0.0
  0
LINE
  5
4b8
100
AcDbEntity
  8
text
 62
7
100
AcDbLine
 10
11.010531
 20
87.710704
 30
0.0
 11
10.923041
 21
87.445414
 31
0.0
  0
LINE
  5
4b9
100
AcDbEntity
  8
text
 62
7
100
AcDbLine
 10
10.923041
 20
87.445414
 30
0.0
 11
10.923041
 21
86.999502
 31
0.0
  0
LINE
  5
4ba
100
AcDbEntity
  8
text
 62
7
100
AcDbLine
 10
10.923041
 20
86.999502
 30
0.0
 11
11.010531
 21
86.734212
 31
0.0
  0
LINE
  5
4bb
100
AcDbEntity
  8
text
 62
7
100
AcDbLine
 10
11.010531
 20
86.734212
 30
0.0
 11
11.100842
 21
86.555001
 31
0.0
  0
LINE
  5
4bc
100
AcDbEntity
  8
text
 62
7
100
AcDbLine
 10
11.100842
 20
86.555001
 30
0.0
 11
11.278642
 21
86.377200
 31
0.0
  0
LINE
  5
4bd
100
AcDbEntity
  8
text
 62
7
100
AcDbLine
 10
11.278642
 20
86.377200
 30
0.0
 11
11.456443
 21
86.288300
 31
0.0
  0
LINE
  5
4be
100
AcDbEntity
  8
text
 62
7
100
AcDbLine
 10
11.456443
 20
86.288300
 30
0.0
 11
11.812044
 21
86.288300
 31
0.0
  0
LINE
  5
4bf
100
AcDbEntity
  8
text
 62
7
100
AcDbLine
 10
11.812044
 20
86.288300
 30
0.0
 11
11.989844
 21
86.377200
 31
0.0
  0
LINE
  5
4c0
100
AcDbEntity
  8
text
 62
7
100
AcDbLine
 10
11.989844
 20
86.377200
 30
0.0
 11
12.167645
 21
86.555001
 31
0.0
  0
LINE
  5
4c1
100
AcDbEntity
  8
text
 62
7
100
AcDbLine
 10
12.167645
 20
86.555001
 30
0.0
 11
12.257956
 21
86.734212
 31
0.0
  0
LINE
  5
4c2
100
AcDbEntity
  8
text
 62
7
100
AcDbLine
 10
12.257956
 20
86.734212
 30
0.0
 11
12.257956
 21
86.999502
 31
0.0
  0
LINE
  5
4c3
100
AcDbEntity
  8
text
 62
7
100
AcDbLine
 10
11.812044
 20
86.999502
 30
0.0
 11
12.257956
 21
86.999502
 31
0.0
  0
LINE
  5
4c4
100
AcDbEntity
  8
text
 62
7
100
AcDbLine
 10
12.878841
 20
88.156616
 30
0.0
 11
12.878841
 21
86.288300
 31
0.0
  0
LINE
  5
4c5
100
AcDbEntity
  8
text
 62
7
100
AcDbLine
 10
12.878841
 20
88.156616
 30
0.0
 11
14.035955
 21
88.156616
 31
0.0
  0
LINE
  5
4c6
100
AcDbEntity
  8
text
 62
7
100
AcDbLine
 10
12.878841
 20
87.264792
 30
0.0
 11
13.590043
 21
87.264792
 31
0.0
  0
LINE
  5
4c7
100
AcDbEntity
  8
text
 62
7
100
AcDbLine
 10
12.878841
 20
86.288300
 30
0.0
 11
14.035955
 21
86.288300
 31
0.0
  0
LINE
  5
4c8
100
AcDbEntity
  8
text
 62
7
100
AcDbLine
 10
14.566541
 20
88.156616
 30
0.0
 11
14.566541
 21
86.288300
 31
0.0
  0
LINE
  5
4c9
100
AcDbEntity
  8
text
 62
7
100
AcDbLine
 10
14.566541
 20
88.156616
 30
0.0
 11
15.368054
 21
88.156616
 31
0.0
  0
LINE
  5
4ca
100
AcDbEntity
  8
text
 62
7
100
AcDbLine
 10
15.368054
 20
88.156616
 30
0.0
 11
15.633344
 21
88.066305
 31
0.0
  0
LINE
  5
4cb
100
AcDbEntity
  8
text
 62
7
100
AcDbLine
 10
15.633344
 20
88.066305
 30
0.0
 11
15.723655
 21
87.975994
 31
0.0
  0
LINE
  5
4cc
100
AcDbEntity
  8
text
 62
7
100
AcDbLine
 10
15.723655
 20
87.975994
 30
0.0
 11
15.813966
 21
87.801015
 31
0.0
  0
LINE
  5
4cd
100
AcDbEntity
  8
text
 62
7
100
AcDbLine
 10
15.813966
 20
87.801015
 30
0.0
 11
15.813966
 21
87.620393
 31
0.0
  0
LINE
  5
4ce
100
AcDbEntity
  8
text
 62
7
100
AcDbLine
 10
15.813966
 20
87.620393
 30
0.0
 11
15.723655
 21
87.445414
 31
0.0
  0
LINE
  5
4cf
100
AcDbEntity
  8
text
 62
7
100
AcDbLine
 10
15.723655
 20
87.445414
 30
0.0
 11
15.633344
 21
87.355103
 31
0.0
  0
LINE
  5
4d0
100
AcDbEntity
  8
text
 62
7
100
AcDbLine
 10
15.633344
 20
87.355103
 30
0.0
 11
15.368054
 21
87.264792
 31
0.0
  0
LINE
  5
4d1
100
AcDbEntity
  8
text
 62
7
100
AcDbLine
 10
15.368054
 20
87.264792
 30
0.0
 11
14.566541
 21
87.264792
 31
0.0
  0
LINE
  5
4d2
100
AcDbEntity
  8
text
 62
7
100
AcDbLine
 10
15.190253
 20
87.264792
 30
0.0
 11
15.813966
 21
86.288300
 31
0.0
  0
LINE
  5
4d3
100
AcDbEntity
  8
text
 62
7
100
AcDbLine
 10
33.543309
 20
25.996798
 30
0.0
 11
33.407812
 21
25.927974
 31
0.0
  0
LINE
  5
4d4
100
AcDbEntity
  8
text
 62
7
100
AcDbLine
 10
33.407812
 20
25.927974
 30
0.0
 11
33.272315
 21
25.792477
 31
0.0
  0
LINE
  5
4d5
100
AcDbEntity
  8
text
 62
7
100
AcDbLine
 10
33.272315
 20
25.792477
 30
0.0
 11
33.203491
 21
25.656980
 31
0.0
  0
LINE
  5
4d6
100
AcDbEntity
  8
text
 62
7
100
AcDbLine
 10
33.203491
 20
25.656980
 30
0.0
 11
33.136818
 21
25.454810
 31
0.0
  0
LINE
  5
4d7
100
AcDbEntity
  8
text
 62
7
100
AcDbLine
 10
33.136818
 20
25.454810
 30
0.0
 11
33.136818
 21
25.114993
 31
0.0
  0
LINE
  5
4d8
100
AcDbEntity
  8
text
 62
7
100
AcDbLine
 10
33.136818
 20
25.114993
 30
0.0
 11
33.203491
 21
24.912823
 31
0.0
  0
LINE
  5
4d9
100
AcDbEntity
  8
text
 62
7
100
AcDbLine
 10
33.203491
 20
24.912823
 30
0.0
 11
33.272315
 21
24.776250
 31
0.0
  0
LINE
  5
4da
100
AcDbEntity
  8
text
 62
7
100
AcDbLine
 10
33.272315
 20
24.776250
 30
0.0
 11
33.407812
 21
24.640753
 31
0.0
  0
LINE
  5
4db
100
AcDbEntity
  8
text
 62
7
100
AcDbLine
 10
33.407812
 20
24.640753
 30
0.0
 11
33.543309
 21
24.573005
 31
0.0
  0
LINE
  5
4dc
100
AcDbEntity
  8
text
 62
7
100
AcDbLine
 10
33.543309
 20
24.573005
 30
0.0
 11
33.814303
 21
24.573005
 31
0.0
  0
LINE
  5
4dd
100
AcDbEntity
  8
text
 62
7
100
AcDbLine
 10
33.814303
 20
24.573005
 30
0.0
 11
33.949800
 21
24.640753
 31
0.0
  0
LINE
  5
4de
100
AcDbEntity
  8
text
 62
7
100
AcDbLine
 10
33.949800
 20
24.640753
 30
0.0
 11
34.085297
 21
24.776250
 31
0.0
  0
LINE
  5
4df
100
AcDbEntity
  8
text
 62
7
100
AcDbLine
 10
34.085297
 20
24.776250
 30
0.0
 11
34.154121
 21
24.912823
 31
0.0
  0
LINE
  5
4e0
100
AcDbEntity
  8
text
 62
7
100
AcDbLine
 10
34.154121
 20
24.912823
 30
0.0
 11
34.220794
 21
25.114993
 31
0.0
  0
LINE
  5
4e1
100
AcDbEntity
  8
text
 62
7
100
AcDbLine
 10
34.220794
 20
25.114993
 30
0.0
 11
34.220794
 21
25.454810
 31
0.0
  0
LINE
  5
4e2
100
AcDbEntity
  8
text
 62
7
100
AcDbLine
 10
34.220794
 20
25.454810
 30
0.0
 11
34.154121
 21
25.656980
 31
0.0
  0
LINE
  5
4e3
100
AcDbEntity
  8
text
 62
7
100
AcDbLine
 10
34.154121
 20
25.656980
 30
0.0
 11
34.085297
 21
25.792477
 31
0.0
  0
LINE
  5
4e4
100
AcDbEntity
  8
text
 62
7
100
AcDbLine
 10
34.085297
 20
25.792477
 30
0.0
 11
33.949800
 21
25.927974
 31
0.0
  0
LINE
  5
4e5
100
AcDbEntity
  8
text
 62
7
100
AcDbLine
 10
33.949800
 20
25.927974
 30
0.0
 11
33.814303
 21
25.996798
 31
0.0
  0
LINE
  5
4e6
100
AcDbEntity
  8
text
 62
7
100
AcDbLine
 10
33.814303
 20
25.996798
 30
0.0
 11
33.543309
 21
25.996798
 31
0.0
  0
LINE
  5
4e7
100
AcDbEntity
  8
text
 62
7
100
AcDbLine
 10
34.693961
 20
25.996798
 30
0.0
 11
34.693961
 21
24.979496
 31
0.0
  0
LINE
  5
4e8
100
AcDbEntity
  8
text
 62
7
100
AcDbLine
 10
34.693961
 20
24.979496
 30
0.0
 11
34.762785
 21
24.776250
 31
0.0
  0
LINE
  5
4e9
100
AcDbEntity
  8
text
 62
7
100
AcDbLine
 10
34.762785
 20
24.776250
 30
0.0
 11
34.898282
 21
24.640753
 31
0.0
  0
LINE
  5
4ea
100
AcDbEntity
  8
text
 62
7
100
AcDbLine
 10
34.898282
 20
24.640753
 30
0.0
 11
35.102603
 21
24.573005
 31
0.0
  0
LINE
  5
4eb
100
AcDbEntity
  8
text
 62
7
100
AcDbLine
 10
35.102603
 20
24.573005
 30
0.0
 11
35.235949
 21
24.573005
 31
0.0
  0
LINE
  5
4ec
100
AcDbEntity
  8
text
 62
7
100
AcDbLine
 10
35.235949
 20
24.573005
 30
0.0
 11
35.440270
 21
24.640753
 31
0.0
  0
LINE
  5
4ed
100
AcDbEntity
  8
text
 62
7
100
AcDbLine
 10
35.440270
 20
24.640753
 30
0.0
 11
35.575767
 21
24.776250
 31
0.0
  0
LINE
  5
4ee
100
AcDbEntity
  8
text
 62
7
100
AcDbLine
 10
35.575767
 20
24.776250
 30
0.0
 11
35.644591
 21
24.979496
 31
0.0
  0
LINE
  5
4ef
100
AcDbEntity
  8
text
 62
7
100
AcDbLine
 10
35.644591
 20
24.979496
 30
0.0
 11
35.644591
 21
25.996798
 31
0.0
  0
LINE
  5
4f0
100
AcDbEntity
  8
text
 62
7
100
AcDbLine
 10
36.455418
 20
25.996798
 30
0.0
 11
36.455418
 21
24.573005
 31
0.0
  0
LINE
  5
4f1
100
AcDbEntity
  8
text
 62
7
100
AcDbLine
 10
35.982254
 20
25.996798
 30
0.0
 11
36.930732
 21
25.996798
 31
0.0
  0
LINE
  5
4f2
100
AcDbEntity
  8
text
 62
7
100
AcDbLine
 10
17.262693
 20
14.015061
 30
0.0
 11
17.055340
 21
13.944473
 31
0.0
  0
LINE
  5
4f3
100
AcDbEntity
  8
text
 62
7
100
AcDbLine
 10
17.055340
 20
13.944473
 30
0.0
 11
16.914164
 21
13.737120
 31
0.0
  0
LINE
  5
4f4
100
AcDbEntity
  8
text
 62
7
100
AcDbLine
 10
16.914164
 20
13.737120
 30
0.0
 11
16.845781
 21
13.388590
 31
0.0
  0
LINE
  5
4f5
100
AcDbEntity
  8
text
 62
7
100
AcDbLine
 10
16.845781
 20
13.388590
 30
0.0
 11
16.845781
 21
13.181237
 31
0.0
  0
LINE
  5
4f6
100
AcDbEntity
  8
text
 62
7
100
AcDbLine
 10
16.845781
 20
13.181237
 30
0.0
 11
16.914164
 21
12.832708
 31
0.0
  0
LINE
  5
4f7
100
AcDbEntity
  8
text
 62
7
100
AcDbLine
 10
16.914164
 20
12.832708
 30
0.0
 11
17.055340
 21
12.624252
 31
0.0
  0
LINE
  5
4f8
100
AcDbEntity
  8
text
 62
7
100
AcDbLine
 10
17.055340
 20
12.624252
 30
0.0
 11
17.262693
 21
12.554767
 31
0.0
  0
LINE
  5
4f9
100
AcDbEntity
  8
text
 62
7
100
AcDbLine
 10
17.262693
 20
12.554767
 30
0.0
 11
17.401664
 21
12.554767
 31
0.0
  0
LINE
  5
4fa
100
AcDbEntity
  8
text
 62
7
100
AcDbLine
 10
17.401664
 20
12.554767
 30
0.0
 11
17.611223
 21
12.624252
 31
0.0
  0
LINE
  5
4fb
100
AcDbEntity
  8
text
 62
7
100
AcDbLine
 10
17.611223
 20
12.624252
 30
0.0
 11
17.747988
 21
12.832708
 31
0.0
  0
LINE
  5
4fc
100
AcDbEntity
  8
text
 62
7
100
AcDbLine
 10
17.747988
 20
12.832708
 30
0.0
 11
17.818576
 21
13.181237
 31
0.0
  0
LINE
  5
4fd
100
AcDbEntity
  8
text
 62
7
100
AcDbLine
 10
17.818576
 20
13.181237
 30
0.0
 11
17.818576
 21
13.388590
 31
0.0
  0
LINE
  5
4fe
100
AcDbEntity
  8
text
 62
7
100
AcDbLine
 10
17.818576
 20
13.388590
 30
0.0
 11
17.747988
 21
13.737120
 31
0.0
  0
LINE
  5
4ff
100
AcDbEntity
  8
text
 62
7
100
AcDbLine
 10
17.747988
 20
13.737120
 30
0.0
 11
17.611223
 21
13.944473
 31
0.0
  0
LINE
  5
500
100
AcDbEntity
  8
text
 62
7
100
AcDbLine
 10
17.611223
 20
13.944473
 30
0.0
 11
17.401664
 21
14.015061
 31
0.0
  0
LINE
  5
501
100
AcDbEntity
  8
text
 62
7
100
AcDbLine
 10
17.401664
 20
14.015061
 30
0.0
 11
17.262693
 21
14.015061
 31
0.0
  0
LINE
  5
502
100
AcDbEntity
  8
text
 62
7
100
AcDbLine
 10
18.303866
 20
13.181237
 30
0.0
 11
19.556808
 21
13.181237
 31
0.0
  0
LINE
  5
503
100
AcDbEntity
  8
text
 62
7
100
AcDbLine
 10
20.251664
 20
13.737120
 30
0.0
 11
20.388429
 21
13.805502
 31
0.0
  0
LINE
  5
504
100
AcDbEntity
  8
text
 62
7
100
AcDbLine
 10
20.388429
 20
13.805502
 30
0.0
 11
20.597988
 21
14.015061
 31
0.0
  0
LINE
  5
505
100
AcDbEntity
  8
text
 62
7
100
AcDbLine
 10
20.597988
 20
14.015061
 30
0.0
 11
20.597988
 21
12.554767
 31
0.0
  0
LINE
  5
506
100
AcDbEntity
  8
text
 62
7
100
AcDbLine
 10
21.848727
 20
14.015061
 30
0.0
 11
21.641374
 21
13.944473
 31
0.0
  0
LINE
  5
507
100
AcDbEntity
  8
text
 62
7
100
AcDbLine
 10
21.641374
 20
13.944473
 30
0.0
 11
21.500198
 21
13.737120
 31
0.0
  0
LINE
  5
508
100
AcDbEntity
  8
text
 62
7
100
AcDbLine
 10
21.500198
 20
13.737120
 30
0.0
 11
21.431816
 21
13.388590
 31
0.0
  0
LINE
  5
509
100
AcDbEntity
  8
text
 62
7
100
AcDbLine
 10
21.431816
 20
13.388590
 30
0.0
 11
21.431816
 21
13.181237
 31
0.0
  0
LINE
  5
50a
100
AcDbEntity
  8
text
 62
7
100
AcDbLine
 10
21.431816
 20
13.181237
 30
0.0
 11
21.500198
 21
12.832708
 31
0.0
  0
LINE
  5
50b
100
AcDbEntity
  8
text
 62
7
100
AcDbLine
 10
21.500198
 20
12.832708
 30
0.0
 11
21.641374
 21
12.624252
 31
0.0
  0
LINE
  5
50c
100
AcDbEntity
  8
text
 62
7
100
AcDbLine
 10
21.641374
 20
12.624252
 30
0.0
 11
21.848727
 21
12.554767
 31
0.0
  0
LINE
  5
50d
100
AcDbEntity
  8
text
 62
7
100
AcDbLine
 10
21.848727
 20
12.554767
 30
0.0
 11
21.987698
 21
12.554767
 31
0.0
  0
LINE
  5
50e
100
AcDbEntity
  8
text
 62
7
100
AcDbLine
 10
21.987698
 20
12.554767
 30
0.0
 11
22.197257
 21
12.624252
 31
0.0
  0
LINE
  5
50f
100
AcDbEntity
  8
text
 62
7
100
AcDbLine
 10
22.197257
 20
12.624252
 30
0.0
 11
22.334022
 21
12.832708
 31
0.0
  0
LINE
  5
510
100
AcDbEntity
  8
text
 62
7
100
AcDbLine
 10
22.334022
 20
12.832708
 30
0.0
 11
22.404610
 21
13.181237
 31
0.0
  0
LINE
  5
511
100
AcDbEntity
  8
text
 62
7
100
AcDbLine
 10
22.404610
 20
13.181237
 30
0.0
 11
22.404610
 21
13.388590
 31
0.0
  0
LINE
  5
512
100
AcDbEntity
  8
text
 62
7
100
AcDbLine
 10
22.404610
 20
13.388590
 30
0.0
 11
22.334022
 21
13.737120
 31
0.0
  0
LINE
  5
513
100
AcDbEntity
  8
text
 62
7
100
AcDbLine
 10
22.334022
 20
13.737120
 30
0.0
 11
22.197257
 21
13.944473
 31
0.0
  0
LINE
  5
514
100
AcDbEntity
  8
text
 62
7
100
AcDbLine
 10
22.197257
 20
13.944473
 30
0.0
 11
21.987698
 21
14.015061
 31
0.0
  0
LINE
  5
515
100
AcDbEntity
  8
text
 62
7
100
AcDbLine
 10
21.987698
 20
14.015061
 30
0.0
 11
21.848727
 21
14.015061
 31
0.0
  0
LINE
  5
516
100
AcDbEntity
  8
text
 62
7
100
AcDbLine
 10
22.682547
 20
14.015061
 30
0.0
 11
23.238430
 21
12.554767
 31
0.0
  0
LINE
  5
517
100
AcDbEntity
  8
text
 62
7
100
AcDbLine
 10
23.794313
 20
14.015061
 30
0.0
 11
23.238430
 21
12.554767
 31
0.0
  0
SPLINE
  5
518
100
AcDbEntity
  8
symbol
 62
7
100
AcDbSpline
 70
8
 71
3
 72
8
 73
4
 74
0
 40
0
 40
0
 40
0
 40
0
 40
1
 40
1
 40
1
 40
1
 10
3.038347
 20
57.835260
 30
0.0
 10
3.955115
 20
60.907343
 30
0.0
 10
4.845669
 20
62.934886
 30
0.0
 10
7.520273
 20
66.075013
 30
0.0
  0
SPLINE
  5
519
100
AcDbEntity
  8
symbol
 62
7
100
AcDbSpline
 70
8
 71
3
 72
8
 73
4
 74
0
 40
0
 40
0
 40
0
 40
0
 40
1
 40
1
 40
1
 40
1
 10
7.520273
 20
66.075013
 30
0.0
 10
8.558267
 20
64.186631
 30
0.0
 10
9.461959
 20
62.123252
 30
0.0
 10
12.002199
 20
62.192343
 30
0.0
  0
LINE
  5
51a
100
AcDbEntity
  8
symbol
 62
7
100
AcDbLine
 10
12.002199
 20
62.192343
 30
0.0
 11
16.496610
 21
62.192343
 31
0.0
  0
SPLINE
  5
51b
100
AcDbEntity
  8
symbol
 62
7
100
AcDbSpline
 70
8
 71
3
 72
8
 73
4
 74
0
 40
0
 40
0
 40
0
 40
0
 40
1
 40
1
 40
1
 40
1
 10
16.496610
 20
62.192343
 30
0.0
 10
17.068027
 20
58.220976
 30
0.0
 10
19.161121
 20
58.425120
 30
0.0
 10
20.978534
 20
57.835260
 30
0.0
  0
LINE
  5
51c
100
AcDbEntity
  8
logo
 62
7
100
AcDbLine
 10
17.673201
 20
7.817070
 30
0.0
 11
17.894174
 21
7.706586
 31
0.0
  0
LINE
  5
51d
100
AcDbEntity
  8
logo
 62
7
100
AcDbLine
 10
17.894174
 20
7.706586
 30
0.0
 11
17.967831
 21
7.596101
 31
0.0
  0
LINE
  5
51e
100
AcDbEntity
  8
logo
 62
7
100
AcDbLine
 10
17.967831
 20
7.596101
 30
0.0
 11
18.041489
 21
7.375133
 31
0.0
  0
LINE
  5
51f
100
AcDbEntity
  8
logo
 62
7
100
AcDbLine
 10
18.041489
 20
7.375133
 30
0.0
 11
18.041489
 21
7.043680
 31
0.0
  0
LINE
  5
520
100
AcDbEntity
  8
logo
 62
7
100
AcDbLine
 10
18.041489
 20
7.043680
 30
0.0
 11
17.967831
 21
6.822711
 31
0.0
  0
LINE
  5
521
100
AcDbEntity
  8
logo
 62
7
100
AcDbLine
 10
17.967831
 20
6.822711
 30
0.0
 11
17.894174
 21
6.712228
 31
0.0
  0
LINE
  5
522
100
AcDbEntity
  8
logo
 62
7
100
AcDbLine
 10
17.894174
 20
6.712228
 30
0.0
 11
17.746858
 21
6.601743
 31
0.0
  0
LINE
  5
523
100
AcDbEntity
  8
logo
 62
7
100
AcDbLine
 10
17.746858
 20
6.601743
 30
0.0
 11
17.157613
 21
6.601743
 31
0.0
  0
LINE
  5
524
100
AcDbEntity
  8
logo
 62
7
100
AcDbLine
 10
17.157613
 20
6.601743
 30
0.0
 11
17.157613
 21
8.921913
 31
0.0
  0
LINE
  5
525
100
AcDbEntity
  8
logo
 62
7
100
AcDbLine
 10
17.157613
 20
8.921913
 30
0.0
 11
17.673201
 21
8.921913
 31
0.0
  0
LINE
  5
526
100
AcDbEntity
  8
logo
 62
7
100
AcDbLine
 10
17.673201
 20
8.921913
 30
0.0
 11
17.820516
 21
8.811428
 31
0.0
  0
LINE
  5
527
100
AcDbEntity
  8
logo
 62
7
100
AcDbLine
 10
17.820516
 20
8.811428
 30
0.0
 11
17.894174
 21
8.700945
 31
0.0
  0
LINE
  5
528
100
AcDbEntity
  8
logo
 62
7
100
AcDbLine
 10
17.894174
 20
8.700945
 30
0.0
 11
17.967831
 21
8.479976
 31
0.0
  0
LINE
  5
529
100
AcDbEntity
  8
logo
 62
7
100
AcDbLine
 10
17.967831
 20
8.479976
 30
0.0
 11
17.967831
 21
8.259008
 31
0.0
  0
LINE
  5
52a
100
AcDbEntity
  8
logo
 62
7
100
AcDbLine
 10
17.967831
 20
8.259008
 30
0.0
 11
17.894174
 21
8.038038
 31
0.0
  0
LINE
  5
52b
100
AcDbEntity
  8
logo
 62
7
100
AcDbLine
 10
17.894174
 20
8.038038
 30
0.0
 11
17.820516
 21
7.927555
 31
0.0
  0
LINE
  5
52c
100
AcDbEntity
  8
logo
 62
7
100
AcDbLine
 10
17.820516
 20
7.927555
 30
0.0
 11
17.673201
 21
7.817070
 31
0.0
  0
LINE
  5
52d
100
AcDbEntity
  8
logo
 62
7
100
AcDbLine
 10
17.673201
 20
7.817070
 30
0.0
 11
17.157613
 21
7.817070
 31
0.0
  0
LINE
  5
52e
100
AcDbEntity
  8
logo
 62
7
100
AcDbLine
 10
19.440954
 20
6.601743
 30
0.0
 11
18.704393
 21
6.601743
 31
0.0
  0
LINE
  5
52f
100
AcDbEntity
  8
logo
 62
7
100
AcDbLine
 10
18.704393
 20
6.601743
 30
0.0
 11
18.704393
 21
8.921913
 31
0.0
  0
LINE
  5
530
100
AcDbEntity
  8
logo
 62
7
100
AcDbLine
 10
19.956557
 20
7.817070
 30
0.0
 11
20.472145
 21
7.817070
 31
0.0
  0
LINE
  5
531
100
AcDbEntity
  8
logo
 62
7
100
AcDbLine
 10
20.693118
 20
6.601743
 30
0.0
 11
19.956557
 21
6.601743
 31
0.0
  0
LINE
  5
532
100
AcDbEntity
  8
logo
 62
7
100
AcDbLine
 10
19.956557
 20
6.601743
 30
0.0
 11
19.956557
 21
8.921913
 31
0.0
  0
LINE
  5
533
100
AcDbEntity
  8
logo
 62
7
100
AcDbLine
 10
19.956557
 20
8.921913
 30
0.0
 11
20.693118
 21
8.921913
 31
0.0
  0
LINE
  5
534
100
AcDbEntity
  8
logo
 62
7
100
AcDbLine
 10
21.356022
 20
7.817070
 30
0.0
 11
21.871610
 21
7.817070
 31
0.0
  0
LINE
  5
535
100
AcDbEntity
  8
logo
 62
7
100
AcDbLine
 10
22.092583
 20
6.601743
 30
0.0
 11
21.356022
 21
6.601743
 31
0.0
  0
LINE
  5
536
100
AcDbEntity
  8
logo
 62
7
100
AcDbLine
 10
21.356022
 20
6.601743
 30
0.0
 11
21.356022
 21
8.921913
 31
0.0
  0
LINE
  5
537
100
AcDbEntity
  8
logo
 62
7
100
AcDbLine
 10
21.356022
 20
8.921913
 30
0.0
 11
22.092583
 21
8.921913
 31
0.0
  0
LINE
  5
538
100
AcDbEntity
  8
logo
 62
7
100
AcDbLine
 10
22.755487
 20
6.601743
 30
0.0
 11
22.755487
 21
8.921913
 31
0.0
  0
LINE
  5
539
100
AcDbEntity
  8
logo
 62
7
100
AcDbLine
 10
22.755487
 20
8.921913
 30
0.0
 11
23.344733
 21
8.921913
 31
0.0
  0
LINE
  5
53a
100
AcDbEntity
  8
logo
 62
7
100
AcDbLine
 10
23.344733
 20
8.921913
 30
0.0
 11
23.492048
 21
8.811428
 31
0.0
  0
LINE
  5
53b
100
AcDbEntity
  8
logo
 62
7
100
AcDbLine
 10
23.492048
 20
8.811428
 30
0.0
 11
23.565705
 21
8.700945
 31
0.0
  0
LINE
  5
53c
100
AcDbEntity
  8
logo
 62
7
100
AcDbLine
 10
23.565705
 20
8.700945
 30
0.0
 11
23.639363
 21
8.479976
 31
0.0
  0
LINE
  5
53d
100
AcDbEntity
  8
logo
 62
7
100
AcDbLine
 10
23.639363
 20
8.479976
 30
0.0
 11
23.639363
 21
8.148523
 31
0.0
  0
LINE
  5
53e
100
AcDbEntity
  8
logo
 62
7
100
AcDbLine
 10
23.639363
 20
8.148523
 30
0.0
 11
23.565705
 21
7.927555
 31
0.0
  0
LINE
  5
53f
100
AcDbEntity
  8
logo
 62
7
100
AcDbLine
 10
23.565705
 20
7.927555
 30
0.0
 11
23.492048
 21
7.817070
 31
0.0
  0
LINE
  5
540
100
AcDbEntity
  8
logo
 62
7
100
AcDbLine
 10
23.492048
 20
7.817070
 30
0.0
 11
23.344733
 21
7.706586
 31
0.0
  0
LINE
  5
541
100
AcDbEntity
  8
logo
 62
7
100
AcDbLine
 10
23.344733
 20
7.706586
 30
0.0
 11
22.755487
 21
7.706586
 31
0.0
  0
LINE
  5
542
100
AcDbEntity
  8
logo
 62
7
100
AcDbLine
 10
17.452243
 20
4.878188
 30
0.0
 11
17.673201
 21
4.767704
 31
0.0
  0
LINE
  5
543
100
AcDbEntity
  8
logo
 62
7
100
AcDbLine
 10
17.673201
 20
4.767704
 30
0.0
 11
17.746858
 21
4.657219
 31
0.0
  0
LINE
  5
544
100
AcDbEntity
  8
logo
 62
7
100
AcDbLine
 10
17.746858
 20
4.657219
 30
0.0
 11
17.820516
 21
4.436251
 31
0.0
  0
LINE
  5
545
100
AcDbEntity
  8
logo
 62
7
100
AcDbLine
 10
17.820516
 20
4.436251
 30
0.0
 11
17.820516
 21
4.104798
 31
0.0
  0
LINE
  5
546
100
AcDbEntity
  8
logo
 62
7
100
AcDbLine
 10
17.820516
 20
4.104798
 30
0.0
 11
17.746858
 21
3.883829
 31
0.0
  0
LINE
  5
547
100
AcDbEntity
  8
logo
 62
7
100
AcDbLine
 10
17.746858
 20
3.883829
 30
0.0
 11
17.673201
 21
3.773346
 31
0.0
  0
LINE
  5
548
100
AcDbEntity
  8
logo
 62
7
100
AcDbLine
 10
17.673201
 20
3.773346
 30
0.0
 11
17.525901
 21
3.662861
 31
0.0
  0
LINE
  5
549
100
AcDbEntity
  8
logo
 62
7
100
AcDbLine
 10
17.525901
 20
3.662861
 30
0.0
 11
16.936640
 21
3.662861
 31
0.0
  0
LINE
  5
54a
100
AcDbEntity
  8
logo
 62
7
100
AcDbLine
 10
16.936640
 20
3.662861
 30
0.0
 11
16.936640
 21
5.983031
 31
0.0
  0
LINE
  5
54b
100
AcDbEntity
  8
logo
 62
7
100
AcDbLine
 10
16.936640
 20
5.983031
 30
0.0
 11
17.452243
 21
5.983031
 31
0.0
  0
LINE
  5
54c
100
AcDbEntity
  8
logo
 62
7
100
AcDbLine
 10
17.452243
 20
5.983031
 30
0.0
 11
17.599558
 21
5.872546
 31
0.0
  0
LINE
  5
54d
100
AcDbEntity
  8
logo
 62
7
100
AcDbLine
 10
17.599558
 20
5.872546
 30
0.0
 11
17.673201
 21
5.762063
 31
0.0
  0
LINE
  5
54e
100
AcDbEntity
  8
logo
 62
7
100
AcDbLine
 10
17.673201
 20
5.762063
 30
0.0
 11
17.746858
 21
5.541094
 31
0.0
  0
LINE
  5
54f
100
AcDbEntity
  8
logo
 62
7
100
AcDbLine
 10
17.746858
 20
5.541094
 30
0.0
 11
17.746858
 21
5.320126
 31
0.0
  0
LINE
  5
550
100
AcDbEntity
  8
logo
 62
7
100
AcDbLine
 10
17.746858
 20
5.320126
 30
0.0
 11
17.673201
 21
5.099156
 31
0.0
  0
LINE
  5
551
100
AcDbEntity
  8
logo
 62
7
100
AcDbLine
 10
17.673201
 20
5.099156
 30
0.0
 11
17.599558
 21
4.988673
 31
0.0
  0
LINE
  5
552
100
AcDbEntity
  8
logo
 62
7
100
AcDbLine
 10
17.599558
 20
4.988673
 30
0.0
 11
17.452243
 21
4.878188
 31
0.0
  0
LINE
  5
553
100
AcDbEntity
  8
logo
 62
7
100
AcDbLine
 10
17.452243
 20
4.878188
 30
0.0
 11
16.936640
 21
4.878188
 31
0.0
  0
LINE
  5
554
100
AcDbEntity
  8
logo
 62
7
100
AcDbLine
 10
19.219981
 20
3.662861
 30
0.0
 11
18.483420
 21
3.662861
 31
0.0
  0
LINE
  5
555
100
AcDbEntity
  8
logo
 62
7
100
AcDbLine
 10
18.483420
 20
3.662861
 30
0.0
 11
18.483420
 21
5.983031
 31
0.0
  0
LINE
  5
556
100
AcDbEntity
  8
logo
 62
7
100
AcDbLine
 10
20.030200
 20
5.983031
 30
0.0
 11
20.324830
 21
5.983031
 31
0.0
  0
LINE
  5
557
100
AcDbEntity
  8
logo
 62
7
100
AcDbLine
 10
20.324830
 20
5.983031
 30
0.0
 11
20.472145
 21
5.872546
 31
0.0
  0
LINE
  5
558
100
AcDbEntity
  8
logo
 62
7
100
AcDbLine
 10
20.472145
 20
5.872546
 30
0.0
 11
20.619461
 21
5.651578
 31
0.0
  0
LINE
  5
559
100
AcDbEntity
  8
logo
 62
7
100
AcDbLine
 10
20.619461
 20
5.651578
 30
0.0
 11
20.693118
 21
5.209641
 31
0.0
  0
LINE
  5
55a
100
AcDbEntity
  8
logo
 62
7
100
AcDbLine
 10
20.693118
 20
5.209641
 30
0.0
 11
20.693118
 21
4.436251
 31
0.0
  0
LINE
  5
55b
100
AcDbEntity
  8
logo
 62
7
100
AcDbLine
 10
20.693118
 20
4.436251
 30
0.0
 11
20.619461
 21
3.994314
 31
0.0
  0
LINE
  5
55c
100
AcDbEntity
  8
logo
 62
7
100
AcDbLine
 10
20.619461
 20
3.994314
 30
0.0
 11
20.472145
 21
3.773346
 31
0.0
  0
LINE
  5
55d
100
AcDbEntity
  8
logo
 62
7
100
AcDbLine
 10
20.472145
 20
3.773346
 30
0.0
 11
20.324830
 21
3.662861
 31
0.0
  0
LINE
  5
55e
100
AcDbEntity
  8
logo
 62
7
100
AcDbLine
 10
20.324830
 20
3.662861
 30
0.0
 11
20.030200
 21
3.662861
 31
0.0
  0
LINE
  5
55f
100
AcDbEntity
  8
logo
 62
7
100
AcDbLine
 10
20.030200
 20
3.662861
 30
0.0
 11
19.882900
 21
3.773346
 31
0.0
  0
LINE
  5
560
100
AcDbEntity
  8
logo
 62
7
100
AcDbLine
 10
19.882900
 20
3.773346
 30
0.0
 11
19.735584
 21
3.994314
 31
0.0
  0
LINE
  5
561
100
AcDbEntity
  8
logo
 62
7
100
AcDbLine
 10
19.735584
 20
3.994314
 30
0.0
 11
19.661927
 21
4.436251
 31
0.0
  0
LINE
  5
562
100
AcDbEntity
  8
logo
 62
7
100
AcDbLine
 10
19.661927
 20
4.436251
 30
0.0
 11
19.661927
 21
5.209641
 31
0.0
  0
LINE
  5
563
100
AcDbEntity
  8
logo
 62
7
100
AcDbLine
 10
19.661927
 20
5.209641
 30
0.0
 11
19.735584
 21
5.651578
 31
0.0
  0
LINE
  5
564
100
AcDbEntity
  8
logo
 62
7
100
AcDbLine
 10
19.735584
 20
5.651578
 30
0.0
 11
19.882900
 21
5.872546
 31
0.0
  0
LINE
  5
565
100
AcDbEntity
  8
logo
 62
7
100
AcDbLine
 10
19.882900
 20
5.872546
 30
0.0
 11
20.030200
 21
5.983031
 31
0.0
  0
LINE
  5
566
100
AcDbEntity
  8
logo
 62
7
100
AcDbLine
 10
21.650637
 20
5.983031
 30
0.0
 11
21.945268
 21
5.983031
 31
0.0
  0
LINE
  5
567
100
AcDbEntity
  8
logo
 62
7
100
AcDbLine
 10
21.945268
 20
5.983031
 30
0.0
 11
22.092583
 21
5.872546
 31
0.0
  0
LINE
  5
568
100
AcDbEntity
  8
logo
 62
7
100
AcDbLine
 10
22.092583
 20
5.872546
 30
0.0
 11
22.239898
 21
5.651578
 31
0.0
  0
LINE
  5
569
100
AcDbEntity
  8
logo
 62
7
100
AcDbLine
 10
22.239898
 20
5.651578
 30
0.0
 11
22.313541
 21
5.209641
 31
0.0
  0
LINE
  5
56a
100
AcDbEntity
  8
logo
 62
7
100
AcDbLine
 10
22.313541
 20
5.209641
 30
0.0
 11
22.313541
 21
4.436251
 31
0.0
  0
LINE
  5
56b
100
AcDbEntity
  8
logo
 62
7
100
AcDbLine
 10
22.313541
 20
4.436251
 30
0.0
 11
22.239898
 21
3.994314
 31
0.0
  0
LINE
  5
56c
100
AcDbEntity
  8
logo
 62
7
100
AcDbLine
 10
22.239898
 20
3.994314
 30
0.0
 11
22.092583
 21
3.773346
 31
0.0
  0
LINE
  5
56d
100
AcDbEntity
  8
logo
 62
7
100
AcDbLine
 10
22.092583
 20
3.773346
 30
0.0
 11
21.945268
 21
3.662861
 31
0.0
  0
LINE
  5
56e
100
AcDbEntity
  8
logo
 62
7
100
AcDbLine
 10
21.945268
 20
3.662861
 30
0.0
 11
21.650637
 21
3.662861
 31
0.0
  0
LINE
  5
56f
100
AcDbEntity
  8
logo
 62
7
100
AcDbLine
 10
21.650637
 20
3.662861
 30
0.0
 11
21.503337
 21
3.773346
 31
0.0
  0
LINE
  5
570
100
AcDbEntity
  8
logo
 62
7
100
AcDbLine
 10
21.503337
 20
3.773346
 30
0.0
 11
21.356022
 21
3.994314
 31
0.0
  0
LINE
  5
571
100
AcDbEntity
  8
logo
 62
7
100
AcDbLine
 10
21.356022
 20
3.994314
 30
0.0
 11
21.282364
 21
4.436251
 31
0.0
  0
LINE
  5
572
100
AcDbEntity
  8
logo
 62
7
100
AcDbLine
 10
21.282364
 20
4.436251
 30
0.0
 11
21.282364
 21
5.209641
 31
0.0
  0
LINE
  5
573
100
AcDbEntity
  8
logo
 62
7
100
AcDbLine
 10
21.282364
 20
5.209641
 30
0.0
 11
21.356022
 21
5.651578
 31
0.0
  0
LINE
  5
574
100
AcDbEntity
  8
logo
 62
7
100
AcDbLine
 10
21.356022
 20
5.651578
 30
0.0
 11
21.503337
 21
5.872546
 31
0.0
  0
LINE
  5
575
100
AcDbEntity
  8
logo
 62
7
100
AcDbLine
 10
21.503337
 20
5.872546
 30
0.0
 11
21.650637
 21
5.983031
 31
0.0
  0
LINE
  5
576
100
AcDbEntity
  8
logo
 62
7
100
AcDbLine
 10
22.976460
 20
3.662861
 30
0.0
 11
22.976460
 21
5.983031
 31
0.0
  0
LINE
  5
577
100
AcDbEntity
  8
logo
 62
7
100
AcDbLine
 10
22.976460
 20
5.983031
 30
0.0
 11
23.565705
 21
5.983031
 31
0.0
  0
LINE
  5
578
100
AcDbEntity
  8
logo
 62
7
100
AcDbLine
 10
23.565705
 20
5.983031
 30
0.0
 11
23.713021
 21
5.872546
 31
0.0
  0
LINE
  5
579
100
AcDbEntity
  8
logo
 62
7
100
AcDbLine
 10
23.713021
 20
5.872546
 30
0.0
 11
23.786678
 21
5.762063
 31
0.0
  0
LINE
  5
57a
100
AcDbEntity
  8
logo
 62
7
100
AcDbLine
 10
23.786678
 20
5.762063
 30
0.0
 11
23.860321
 21
5.541094
 31
0.0
  0
LINE
  5
57b
100
AcDbEntity
  8
logo
 62
7
100
AcDbLine
 10
23.860321
 20
5.541094
 30
0.0
 11
23.860321
 21
5.209641
 31
0.0
  0
LINE
  5
57c
100
AcDbEntity
  8
logo
 62
7
100
AcDbLine
 10
23.860321
 20
5.209641
 30
0.0
 11
23.786678
 21
4.988673
 31
0.0
  0
LINE
  5
57d
100
AcDbEntity
  8
logo
 62
7
100
AcDbLine
 10
23.786678
 20
4.988673
 30
0.0
 11
23.713021
 21
4.878188
 31
0.0
  0
LINE
  5
57e
100
AcDbEntity
  8
logo
 62
7
100
AcDbLine
 10
23.713021
 20
4.878188
 30
0.0
 11
23.565705
 21
4.767704
 31
0.0
  0
LINE
  5
57f
100
AcDbEntity
  8
logo
 62
7
100
AcDbLine
 10
23.565705
 20
4.767704
 30
0.0
 11
22.976460
 21
4.767704
 31
0.0
  0
LINE
  5
580
100
AcDbEntity
  8
logo
 62
7
100
AcDbLine
 10
15.861612
 20
9.147373
 30
0.0
 11
16.378298
 21
9.479889
 31
0.0
  0
LINE
  5
581
100
AcDbEntity
  8
logo
 62
7
100
AcDbLine
 10
15.448003
 20
4.168941
 30
0.0
 11
15.411437
 21
4.686528
 31
0.0
  0
LINE
  5
582
100
AcDbEntity
  8
logo
 62
7
100
AcDbLine
 10
15.407477
 20
3.049532
 30
0.0
 11
15.703964
 21
3.687148
 31
0.0
  0
LINE
  5
583
100
AcDbEntity
  8
logo
 62
7
100
AcDbLine
 10
25.115826
 20
4.016377
 30
0.0
 11
24.783300
 21
3.499697
 31
0.0
  0
LINE
  5
584
100
AcDbEntity
  8
logo
 62
7
100
AcDbLine
 10
15.411437
 20
7.960543
 30
0.0
 11
15.529101
 21
8.630693
 31
0.0
  0
LINE
  5
585
100
AcDbEntity
  8
logo
 62
7
100
AcDbLine
 10
24.783300
 20
9.147373
 30
0.0
 11
25.115826
 21
8.630693
 31
0.0
  0
LINE
  5
586
100
AcDbEntity
  8
logo
 62
7
100
AcDbLine
 10
24.266629
 20
9.479892
 30
0.0
 11
24.783300
 21
9.147373
 31
0.0
  0
LINE
  5
587
100
AcDbEntity
  8
logo
 62
7
100
AcDbLine
 10
25.233490
 20
7.960546
 30
0.0
 11
25.233475
 21
4.686528
 31
0.0
  0
LINE
  5
588
100
AcDbEntity
  8
logo
 62
7
100
AcDbLine
 10
15.529101
 20
8.630693
 30
0.0
 11
15.861612
 21
9.147373
 31
0.0
  0
LINE
  5
589
100
AcDbEntity
  8
logo
 62
7
100
AcDbLine
 10
16.536951
 20
3.084368
 30
0.0
 11
16.068911
 21
3.328316
 31
0.0
  0
LINE
  5
58a
100
AcDbEntity
  8
logo
 62
7
100
AcDbLine
 10
16.068911
 20
3.328316
 30
0.0
 11
15.407477
 21
3.049532
 31
0.0
  0
LINE
  5
58b
100
AcDbEntity
  8
logo
 62
7
100
AcDbLine
 10
17.048441
 20
9.597549
 30
0.0
 11
23.596471
 21
9.597554
 31
0.0
  0
LINE
  5
58c
100
AcDbEntity
  8
logo
 62
7
100
AcDbLine
 10
23.596471
 20
9.597554
 30
0.0
 11
24.266629
 21
9.479892
 31
0.0
  0
LINE
  5
58d
100
AcDbEntity
  8
logo
 62
7
100
AcDbLine
 10
24.266629
 20
3.167180
 30
0.0
 11
23.596471
 21
3.049519
 31
0.0
  0
LINE
  5
58e
100
AcDbEntity
  8
logo
 62
7
100
AcDbLine
 10
25.233475
 20
4.686528
 30
0.0
 11
25.115826
 21
4.016377
 31
0.0
  0
LINE
  5
58f
100
AcDbEntity
  8
logo
 62
7
100
AcDbLine
 10
23.596471
 20
3.049519
 30
0.0
 11
17.048441
 21
3.049519
 31
0.0
  0
LINE
  5
590
100
AcDbEntity
  8
logo
 62
7
100
AcDbLine
 10
17.048441
 20
3.049519
 30
0.0
 11
16.536951
 21
3.084368
 31
0.0
  0
LINE
  5
591
100
AcDbEntity
  8
logo
 62
7
100
AcDbLine
 10
24.783300
 20
3.499697
 30
0.0
 11
24.266629
 21
3.167180
 31
0.0
  0
LINE
  5
592
100
AcDbEntity
  8
logo
 62
7
100
AcDbLine
 10
15.703964
 20
3.687148
 30
0.0
 11
15.448003
 21
4.168941
 31
0.0
  0
LINE
  5
593
100
AcDbEntity
  8
logo
 62
7
100
AcDbLine
 10
16.378298
 20
9.479889
 30
0.0
 11
17.048441
 21
9.597549
 31
0.0
  0
LINE
  5
594
100
AcDbEntity
  8
logo
 62
7
100
AcDbLine
 10
25.115826
 20
8.630693
 30
0.0
 11
25.233490
 21
7.960546
 31
0.0
  0
LINE
  5
595
100
AcDbEntity
  8
logo
 62
7
100
AcDbLine
 10
15.411437
 20
4.686528
 30
0.0
 11
15.411437
 21
7.960543
 31
0.0
  0
ENDSEC
  0
SECTION
  2
OBJECTS
  0
DICTIONARY
  5
C
330
0
100
AcDbDictionary
  3
ACAD_GROUP
350
D
  3
ACAD_MLINESTYLE
350
17
  0
DICTIONARY
  5
D
330
C
100
AcDbDictionary
  0
DICTIONARY
  5
1A
330
C
100
AcDbDictionary
  0
DICTIONARY
  5
17
330
C
100
AcDbDictionary
  3
STANDARD
350
18
  0
DICTIONARY
  5
19
330
C
100
AcDbDictionary
  0
ENDSEC
  0
EOF
